#N canvas 240 94 1327 717 10;
#X obj 847 287 r \$0-init;
#X obj 847 308 samplerate~;
#X obj 847 370 s \$0-fs;
#X obj 123 175 hsl 135 15 32 22050 0 0 \$0-reduce \$0-reduce.in reduce
0 8 0 8 -262144 -1 -1 7400 0;
#X obj 260 175 nbx 5 15 32 22050 0 0 empty empty empty 48 8 0 8 -257985
-1 -1 22050 256;
#X obj 123 195 hsl 135 15 1 24 0 0 \$0-bits \$0-bits.in bits 0 8 0
8 -262144 -1 -1 7400 0;
#X obj 260 195 nbx 5 15 -1e+037 1e+037 0 0 empty empty empty 48 8 0
8 -257985 -1 -1 24 256;
#X obj 120 51 r \$0-fs;
#X obj 847 56 loadbang;
#X obj 847 77 bng 15 250 50 0 empty empty empty 17 7 0 10 -262144 -1
-1;
#X obj 847 98 f \$0;
#X obj 847 329 / 4;
#X obj 576 56 inlet~ fwd;
#X obj 731 72 s \$0-control;
#X obj 847 390 r \$0-control;
#X obj 847 545 f 2;
#X obj 847 566 pow \$1;
#X msg 847 587 set 1 8 \$1;
#X obj 847 524 r \$0-init;
#X msg 120 72 range 32 \$1 \, \$1;
#N canvas 0 50 450 300 \$0-noise 0;
#X obj 37 37 inlet~;
#X obj 90 146 *~;
#X obj 62 204 *~;
#X obj 90 167 abs~;
#X obj 37 220 +~;
#X obj 90 188 samphold~;
#X obj 37 241 outlet~;
#X obj 88 76 noise~;
#X obj 138 129 line~;
#X obj 138 108 pack f 20;
#X obj 189 87 r \$0-inertia;
#X obj 138 66 r \$0-noise;
#X obj 317 57 switch~;
#X obj 317 37 inlet;
#X connect 0 0 5 1;
#X connect 0 0 2 0;
#X connect 0 0 4 0;
#X connect 1 0 3 0;
#X connect 2 0 4 1;
#X connect 3 0 5 0;
#X connect 4 0 6 0;
#X connect 5 0 2 1;
#X connect 7 0 1 0;
#X connect 8 0 1 1;
#X connect 9 0 8 0;
#X connect 10 0 9 1;
#X connect 11 0 9 0;
#X connect 13 0 12 0;
#X restore 576 295 pd \$0-noise;
#N canvas 577 238 450 367 \$0-butterworth 0;
#X obj 37 37 inlet~;
#X obj 37 181 *~ 0.125;
#X obj 37 206 rzero~ -1;
#X obj 37 231 rzero~ -1;
#X obj 37 256 rzero~ -1;
#X obj 37 85 rpole~ 0.87467;
#X obj 37 61 *~ 0.12532;
#X obj 37 109 *~ 0.01668;
#X obj 37 133 cpole~ 0.9293 0.10812;
#X obj 37 157 cpole~ 0.9293 -0.10812;
#X obj 37 280 outlet~;
#N canvas 1039 112 793 637 \$0-bCoef 0;
#X obj 66 96 inlet;
#X obj 97 199 t f f, f 7;
#X msg 97 151 0.667;
#X msg 81 329 0;
#X obj 533 373 inlet;
#X obj 522 397 f;
#X obj 522 421 expr 1 - 2*$f1;
#X obj 207 277 * -1;
#X obj 159 277 t f f;
#X obj 66 437 f;
#X obj 66 533 outlet;
#X text 520 312 1 to normalize at Nyquist;
#X obj 341 533 outlet;
#X obj 497 533 outlet;
#X text 497 557 imag2a;
#X text 341 557 real1;
#X text 432 557 real2;
#X obj 558 533 outlet;
#X text 558 557 imag2b;
#X obj 431 533 outlet;
#X text 63 557 normalizer1;
#X obj 231 533 outlet;
#X text 228 557 normalizer2;
#X obj 231 474 expr (($f2-$f1)*($f2-$f1)+$f3*$f3);
#X obj 66 458 t f f;
#X obj 97 222 expr (1 - $f2*$f2) / (1 + $f2*$f2 + 2*$f2*cos($f1));
#X obj 159 250 expr 2*$f2*sin($f1) / (1 + $f2*$f2 + 2*$f2*cos($f1))
;
#X obj 81 353 expr (1 - $f2*$f2) / (1 + $f2*$f2 + 2*$f2*cos($f1));
#X obj 468 184 clip 0 1;
#X obj 468 206 expr tan($f1*1.57);
#X obj 97 176 expr $f1*1.5708;
#X text 520 326 0 to normalize at DC;
#X text 141 152 "theta" in units of pi/2;
#X text 210 183 conjugate pair of pole/zero locations:;
#X text 196 200 real part: (1-r*r)/(1+r*r-2rcos(th));
#X text 247 275 imaginary part: 2rsin(th)/(...);
#X text 275 328 real-valued one \, theta=0;
#X obj 66 505 expr abs($f1-$f2);
#X text 63 46 Miller Puckettes Butterworth Coefficient Calculator (J07)
;
#X obj 66 124 t b b b f b;
#X connect 0 0 39 0;
#X connect 1 0 25 0;
#X connect 1 1 26 0;
#X connect 2 0 30 0;
#X connect 3 0 27 0;
#X connect 4 0 5 0;
#X connect 5 0 6 0;
#X connect 6 0 9 1;
#X connect 7 0 17 0;
#X connect 8 0 13 0;
#X connect 8 0 23 2;
#X connect 8 1 7 0;
#X connect 9 0 24 0;
#X connect 23 0 21 0;
#X connect 24 0 37 0;
#X connect 24 1 23 0;
#X connect 25 0 19 0;
#X connect 25 0 23 1;
#X connect 26 0 8 0;
#X connect 27 0 12 0;
#X connect 27 0 37 1;
#X connect 28 0 29 0;
#X connect 29 0 26 1;
#X connect 29 0 27 1;
#X connect 29 0 25 1;
#X connect 30 0 1 0;
#X connect 37 0 10 0;
#X connect 39 0 9 0;
#X connect 39 1 3 0;
#X connect 39 2 2 0;
#X connect 39 3 28 0;
#X connect 39 4 5 0;
#X restore 231 141 pd \$0-bCoef;
#X msg 231 41 15000;
#X obj 231 62 t f b;
#X obj 258 83 samplerate~;
#X obj 258 104 / 2;
#X obj 231 120 /;
#X obj 231 20 r \$0-init;
#X text 34 308 Butterworth anti-aliasing filter (J07);
#X connect 0 0 6 0;
#X connect 1 0 2 0;
#X connect 2 0 3 0;
#X connect 3 0 4 0;
#X connect 4 0 10 0;
#X connect 5 0 7 0;
#X connect 6 0 5 0;
#X connect 7 0 8 0;
#X connect 8 0 9 0;
#X connect 8 1 9 1;
#X connect 9 0 1 0;
#X connect 11 0 6 1;
#X connect 11 1 7 1;
#X connect 11 2 5 1;
#X connect 11 3 8 2;
#X connect 11 3 9 2;
#X connect 11 4 8 3;
#X connect 11 5 9 3;
#X connect 12 0 13 0;
#X connect 13 0 16 0;
#X connect 13 1 14 0;
#X connect 14 0 15 0;
#X connect 15 0 16 1;
#X connect 16 0 11 0;
#X connect 17 0 12 0;
#X restore 576 572 pd \$0-butterworth;
#X obj 847 608 block~;
#X floatatom 945 582 5 0 0 0 - - -;
#X obj 576 269 *~ 1;
#X obj 639 269 *~ 0;
#X obj 576 316 +~;
#X obj 576 342 *~ 1;
#X obj 639 342 *~ 0;
#X obj 576 394 +~;
#X obj 576 420 *~ 1;
#X obj 639 420 *~ 0;
#X obj 576 472 +~;
#X obj 576 499 *~ 1;
#X obj 639 499 *~ 0;
#X obj 576 551 +~;
#X obj 710 232 r \$0-noise.on;
#X obj 710 253 != 1;
#X obj 710 326 != 1;
#X obj 710 404 != 1;
#X obj 710 483 != 1;
#N canvas 547 280 450 300 \$0-bit 0;
#X obj 37 37 inlet~;
#X obj 213 37 r \$0-bits;
#X obj 213 58 i;
#X obj 36 184 expr~ int($v1 * ($v2)) / ($v2);
#X obj 213 79 swap 2;
#X obj 213 100 pow;
#X obj 213 163 max~ 1;
#X obj 36 205 outlet~;
#X obj 213 142 line~;
#X obj 213 121 pack f 20;
#X obj 264 100 r \$0-inertia;
#X obj 317 57 switch~;
#X obj 317 37 inlet;
#X connect 0 0 3 0;
#X connect 1 0 2 0;
#X connect 2 0 4 0;
#X connect 3 0 7 0;
#X connect 4 0 5 0;
#X connect 4 1 5 1;
#X connect 5 0 9 0;
#X connect 6 0 3 1;
#X connect 8 0 6 0;
#X connect 9 0 8 0;
#X connect 10 0 9 1;
#X connect 12 0 11 0;
#X restore 576 446 pd \$0-bit;
#X obj 710 305 r \$0-reduce.on;
#N canvas 857 305 450 300 \$0-reduce 0;
#X obj 37 37 inlet~;
#X obj 87 120 phasor~;
#X obj 36 147 samphold~;
#X obj 87 100 line~;
#X obj 36 168 outlet~;
#X obj 87 79 pack f 20;
#X obj 138 58 r \$0-inertia;
#X obj 317 57 switch~;
#X obj 317 37 inlet;
#X obj 87 37 r \$0-reduce;
#X connect 0 0 2 0;
#X connect 1 0 2 1;
#X connect 2 0 4 0;
#X connect 3 0 1 0;
#X connect 5 0 3 0;
#X connect 6 0 5 1;
#X connect 8 0 7 0;
#X connect 9 0 5 0;
#X restore 576 368 pd \$0-reduce;
#X obj 123 215 hsl 135 15 0 1 0 0 \$0-overdrive \$0-overdrive.in overdrive
0 8 0 8 -262144 -1 -1 0 0;
#X obj 260 215 nbx 5 15 0 1 0 0 empty empty empty 48 8 0 8 -257985
-1 -1 0 256;
#X obj 710 462 r \$0-overdrive.on;
#N canvas 1144 205 450 300 \$0-overdrive 0;
#X obj 37 37 inlet~;
#X obj 37 188 expr~ ($v1 > 1) * (1 - ($v1 - 1)) + ($v1 < -1) * -($v1
+ 2) + ($v1 > -1 && $v1 < 1) * $v1;
#X obj 37 220 expr~ ($v1 > 1) * (1 - ($v1 - 1)) + ($v1 < -1) * -($v1
+ 2) + ($v1 > -1 && $v1 < 1) * $v1;
#X obj 37 272 outlet~;
#X obj 37 252 expr~ tanh($v1 * 3.14159265359);
#X text 90 270 maximum of two folds then limit;
#X obj 37 168 *~;
#X obj 91 151 max~ 1;
#X obj 91 130 line~;
#X obj 142 35 r \$0-inertia;
#X obj 317 57 switch~;
#X obj 317 37 inlet;
#X obj 91 15 r \$0-overdrive;
#X obj 91 109 pack f 20;
#X obj 91 87 + 1;
#X obj 91 36 pow 2;
#X obj 91 66 * 9;
#X connect 0 0 6 0;
#X connect 1 0 2 0;
#X connect 2 0 4 0;
#X connect 4 0 3 0;
#X connect 6 0 1 0;
#X connect 7 0 6 1;
#X connect 8 0 7 0;
#X connect 9 0 13 1;
#X connect 11 0 10 0;
#X connect 12 0 15 0;
#X connect 13 0 8 0;
#X connect 14 0 13 0;
#X connect 15 0 16 0;
#X connect 16 0 14 0;
#X restore 576 525 pd \$0-overdrive;
#X obj 123 155 hsl 135 15 0 1 0 0 \$0-noise \$0-noise.in noise 0 8
0 8 -262144 -1 -1 0 0;
#X obj 260 155 nbx 5 15 0 1 0 0 empty empty empty 48 8 0 8 -257985
-1 -1 0 256;
#X obj 105 155 tgl 15 0 \$0-noise.on \$0-noise.on.in empty 17 7 0 10
-257985 -1 -1 1 1;
#X obj 105 175 tgl 15 0 \$0-reduce.on \$0-reduce.on.in empty 17 7 0
10 -257985 -1 -1 1 1;
#X obj 105 215 tgl 15 0 \$0-overdrive.on \$0-overdrive.on.in empty
17 7 0 10 -257985 -1 -1 1 1;
#X obj 105 195 tgl 15 0 \$0-bits.on \$0-bits.on.in empty 17 7 0 10
-257985 -1 -1 1 1;
#X obj 710 383 r \$0-bits.on;
#X obj 1173 427 list split 1;
#X obj 1173 448 makefilename \$0-%s.in;
#X obj 1173 469 t b s;
#X obj 1173 490 list;
#X obj 1173 511 s;
#X obj 847 411 route noise bits reduce overdrive;
#X obj 108 235 hsl 150 15 0 1 0 0 \$0-mix \$0-mix.in mix 0 8 0 8 -262144
-1 -1 8900 0;
#X obj 260 235 nbx 5 15 0 1 0 0 empty empty empty 48 8 0 8 -257985
-1 -1 1 256;
#X obj 105 280 nbx 5 15 -1e+037 1e+037 0 0 \$0-inertia \$0-inertia.in
inertia 0 -8 0 8 -257985 -1 -1 20 256;
#X obj 105 130 nbx 5 15 0 2 0 0 \$0-gain \$0-gain.in gain 0 -8 0 8
-257985 -1 -1 1 256;
#X obj 155 130 nbx 5 15 0 2 0 0 \$0-level \$0-level.in level 0 -8 0
8 -257985 -1 -1 1 256;
#X obj 643 121 r \$0-inertia;
#X obj 643 142 swap 1000;
#X obj 643 163 /;
#X obj 577 200 *~;
#X obj 592 153 sig~ 1;
#X obj 592 103 r \$0-gain;
#X floatatom 259 67 5 0 0 0 - - -;
#X obj 847 350 min 22050;
#X obj 375 575 *~;
#X obj 526 589 *~;
#X obj 375 606 +~;
#X obj 375 637 *~;
#X obj 375 658 outlet~;
#X obj 389 395 r \$0-mix;
#X obj 389 416 sig~ 1;
#X obj 440 414 r \$0-inertia;
#X obj 440 435 swap 1000;
#X obj 440 456 /;
#X obj 698 566 sig~ 1;
#X obj 749 564 r \$0-inertia;
#X obj 698 622 lop~;
#X obj 749 585 swap 1000;
#X obj 749 606 /;
#X obj 698 545 r \$0-level;
#X msg 325 179 set \$1;
#X msg 325 139 set \$1;
#X msg 325 199 set \$1;
#X msg 325 159 set \$1;
#X msg 325 219 set \$1;
#X obj 592 179 lop~ 50;
#X obj 389 472 lop~ 50;
#X msg 847 119 \; \$1-noise.on.in 1 \; \$1-bits.on.in 1 \; \$1-reduce.on.in
1 \; \$1-overdrive.on.in 1 \; \$1-gain.in 1 \; \$1-level.in 1 \; \$1-noise.in
0 \; \$1-bits.in 24 \; \$1-overdrive.in 0 \; \$1-mix.in 1 \; \$1-inertia.in
20 \; \$1-init bang \;;
#X obj 128 360 r \$0-init;
#X obj 128 381 expr atan(1) * 4;
#X obj 128 402 v pi\$0;
#X obj 389 508 expr~ cos($v1 * pi\$0 * 0.5) \; sin($v1 * pi\$0 * 0.5)
\;;
#X obj 847 498 bin/paramin \$0-noise;
#X obj 895 478 bin/paramin \$0-bits;
#X obj 944 458 bin/paramin \$0-reduce;
#X obj 993 438 bin/paramin \$0-overdrive;
#X connect 0 0 1 0;
#X connect 1 0 11 0;
#X connect 3 0 93 0;
#X connect 4 0 3 0;
#X connect 5 0 90 0;
#X connect 6 0 5 0;
#X connect 7 0 19 0;
#X connect 7 0 72 0;
#X connect 8 0 9 0;
#X connect 9 0 10 0;
#X connect 10 0 97 0;
#X connect 11 0 73 0;
#X connect 12 0 69 0;
#X connect 12 0 74 0;
#X connect 12 1 13 0;
#X connect 14 0 60 0;
#X connect 15 0 16 0;
#X connect 16 0 17 0;
#X connect 16 0 23 0;
#X connect 17 0 22 0;
#X connect 18 0 15 0;
#X connect 19 0 3 0;
#X connect 19 0 4 0;
#X connect 20 0 26 0;
#X connect 21 0 75 0;
#X connect 24 0 20 0;
#X connect 25 0 26 1;
#X connect 26 0 27 0;
#X connect 26 0 28 0;
#X connect 27 0 43 0;
#X connect 28 0 29 1;
#X connect 29 0 30 0;
#X connect 29 0 31 0;
#X connect 30 0 41 0;
#X connect 31 0 32 1;
#X connect 32 0 33 0;
#X connect 32 0 34 0;
#X connect 33 0 47 0;
#X connect 34 0 35 1;
#X connect 35 0 21 0;
#X connect 36 0 37 0;
#X connect 36 0 20 1;
#X connect 36 0 24 1;
#X connect 37 0 25 1;
#X connect 38 0 28 1;
#X connect 39 0 31 1;
#X connect 40 0 34 1;
#X connect 41 0 32 0;
#X connect 42 0 38 0;
#X connect 42 0 27 1;
#X connect 42 0 43 1;
#X connect 43 0 29 0;
#X connect 44 0 92 0;
#X connect 45 0 44 0;
#X connect 46 0 40 0;
#X connect 46 0 33 1;
#X connect 46 0 47 1;
#X connect 47 0 35 0;
#X connect 48 0 91 0;
#X connect 54 0 39 0;
#X connect 54 0 30 1;
#X connect 54 0 41 1;
#X connect 55 0 56 0;
#X connect 55 1 58 1;
#X connect 56 0 57 0;
#X connect 57 0 58 0;
#X connect 57 1 59 1;
#X connect 58 0 59 0;
#X connect 60 0 102 0;
#X connect 60 1 103 0;
#X connect 60 2 104 0;
#X connect 60 3 105 0;
#X connect 60 4 55 0;
#X connect 61 0 94 0;
#X connect 62 0 61 0;
#X connect 66 0 67 0;
#X connect 67 0 68 0;
#X connect 67 1 68 1;
#X connect 68 0 95 1;
#X connect 69 0 25 0;
#X connect 69 0 24 0;
#X connect 70 0 95 0;
#X connect 71 0 70 0;
#X connect 73 0 2 0;
#X connect 74 0 76 0;
#X connect 75 0 76 1;
#X connect 76 0 77 0;
#X connect 77 0 78 0;
#X connect 79 0 80 0;
#X connect 80 0 96 0;
#X connect 81 0 82 0;
#X connect 82 0 83 0;
#X connect 82 1 83 1;
#X connect 83 0 96 1;
#X connect 84 0 86 0;
#X connect 85 0 87 0;
#X connect 86 0 77 1;
#X connect 87 0 88 0;
#X connect 87 1 88 1;
#X connect 88 0 86 1;
#X connect 89 0 84 0;
#X connect 90 0 6 0;
#X connect 91 0 49 0;
#X connect 92 0 45 0;
#X connect 93 0 4 0;
#X connect 94 0 62 0;
#X connect 95 0 69 1;
#X connect 96 0 101 0;
#X connect 98 0 99 0;
#X connect 99 0 100 0;
#X connect 101 0 74 1;
#X connect 101 1 75 1;
#X coords 0 -1 1 1 210 210 1 100 100;
