#N canvas 145 169 1008 709 10;
#N canvas 886 473 450 300 \$0-output 0;
#X obj 122 115 cc.output~;
#X text 129 99 Volume Control;
#X obj 121 55 inlet~;
#X obj 324 55 inlet~;
#X connect 2 0 0 0;
#X connect 3 0 0 1;
#X restore 108 563 pd \$0-output;
#X obj 108 102 r start;
#X obj 108 127 metro 150;
#X obj 159 102 r tempo;
#X obj 568 98 nbx 4 15 -1e+037 1e+037 0 0 empty tempo.in empty 0 -8
0 10 -257985 -1 -1 150 256;
#X obj 568 118 s tempo;
#X obj 512 118 s start;
#X obj 512 98 tgl 15 0 empty empty empty 20 7 0 10 -257985 -1 -1 1
1;
#X obj 108 184 cc.synths~/ezdrummer;
#N canvas 0 50 450 410 random.drums 0;
#X obj 37 37 inlet;
#X obj 37 63 f 0;
#X obj 65 63 + 1;
#X obj 37 253 sel 0 1 2 3 4 5 6 7, f 20;
#X obj 91 189 random 4;
#X obj 91 210 + 1;
#X obj 91 231 + 4;
#X obj 64 126 sel 0;
#X obj 64 105 % 32;
#X obj 91 147 % 8;
#X obj 91 168 sel 0;
#X obj 37 84 t f f;
#X obj 37 163 % 4;
#X msg 64 147 8;
#X msg 37 287 60 1;
#X msg 99 287 60 1;
#X msg 162 287 60 1;
#X msg 224 287 60 1;
#X msg 287 287 60 1;
#X msg 350 287 60 1;
#X obj 37 308 outlet;
#X obj 99 308 outlet;
#X obj 162 308 outlet;
#X obj 224 308 outlet;
#X obj 287 308 outlet;
#X obj 350 308 outlet;
#X connect 0 0 1 0;
#X connect 1 0 2 0;
#X connect 1 0 11 0;
#X connect 2 0 1 1;
#X connect 3 0 14 0;
#X connect 3 0 17 0;
#X connect 3 0 18 0;
#X connect 3 0 19 0;
#X connect 3 1 16 0;
#X connect 3 2 18 0;
#X connect 3 3 14 0;
#X connect 3 3 16 0;
#X connect 3 3 19 0;
#X connect 3 4 15 0;
#X connect 3 4 17 0;
#X connect 3 5 16 0;
#X connect 3 5 18 0;
#X connect 3 6 14 0;
#X connect 3 6 19 0;
#X connect 3 7 16 0;
#X connect 3 7 19 0;
#X connect 4 0 5 0;
#X connect 5 0 6 0;
#X connect 6 0 12 1;
#X connect 7 0 13 0;
#X connect 7 1 9 0;
#X connect 8 0 7 0;
#X connect 9 0 10 0;
#X connect 10 0 4 0;
#X connect 11 0 12 0;
#X connect 11 1 8 0;
#X connect 12 0 3 0;
#X connect 13 0 12 1;
#X connect 14 0 20 0;
#X connect 15 0 21 0;
#X connect 16 0 22 0;
#X connect 17 0 23 0;
#X connect 18 0 24 0;
#X connect 19 0 25 0;
#X restore 108 148 pd random.drums;
#X obj 108 445 cc.mixer~ test 6;
#X obj 108 399 throw~ test-0;
#X obj 170 420 throw~ test-1;
#X obj 233 399 throw~ test-2;
#X obj 295 420 throw~ test-3;
#X obj 358 399 throw~ test-4;
#X obj 420 420 throw~ test-5;
#X obj 328 445 loadbang;
#X msg 328 466 \; tempo.in 150;
#X text 510 147 [cc.synths~/ezdrummer] - Simple Drum Synth, f 66;
#X text 510 240, f 66;
#X text 510 170 This abstraction is contains six specialized monophonic
sound engines created specifically for synthesizing percussive sounds.
Each sound is controlled by its own inlet. To trigger sounds \, the
user can either press the corresponding 'GO' button or send a message
containing a MIDI note and a velocity value between 0 and 1 Because
the abstraction is basically six different synth engines \, each synth
engine's parameter changes are handled by it's own corresponding inlet.
, f 66;
#X text 510 270 There are four kinds of percussive sounds available
within the abstraction: A Kick \, a snare \, two kinds of cymbals \,
and two kinds of blips. Each of these engines contain four parameters:
level \, pitch \, decay \, and sweep. 'Level' controls the volume of
a given engine's output. 'Pitch' tunes the pitch as a ratio of the
incoming note. 'Decay' controls how long the engine's sound will take
to reach silence. 'Sweep' controls the pitch modulation within a given
engine. The way pitch is modulate varies from engine to engine., f
66;
#X connect 1 0 2 0;
#X connect 2 0 9 0;
#X connect 3 0 2 1;
#X connect 4 0 5 0;
#X connect 7 0 6 0;
#X connect 8 0 11 0;
#X connect 8 1 12 0;
#X connect 8 2 13 0;
#X connect 8 3 14 0;
#X connect 8 4 15 0;
#X connect 8 5 16 0;
#X connect 9 0 8 0;
#X connect 9 1 8 1;
#X connect 9 2 8 2;
#X connect 9 3 8 3;
#X connect 9 4 8 4;
#X connect 9 5 8 5;
#X connect 10 0 0 0;
#X connect 10 1 0 1;
#X connect 17 0 18 0;
#X coords 0 709 1 708 85 60 0;
