#N canvas 210 94 1513 861 10;
#N canvas 469 106 561 683 \$0-kick 0;
#X obj 336 416 vline~;
#X obj 210 313 osc~;
#X obj 210 265 vline~;
#X obj 138 473 expr~ tanh($v1);
#X obj 269 336 vline~;
#X obj 269 367 *~;
#X obj 139 384 *~;
#X obj 339 200 r \$0-kick.sweep;
#X msg 269 312 \$1 0 \, 0 \$2 0;
#X obj 269 288 pack f f;
#X obj 314 264 r \$0-kick.decay;
#X obj 210 96 unpack f f;
#X msg 336 336 0 \, 0.2 0 \, 0 1 1;
#X obj 210 216 f 0;
#X obj 210 289 *~;
#X obj 210 190 t b f;
#X msg 210 241 1 0 \, 0 \$1 0;
#X msg 237 297 0;
#X obj 210 160 * 1;
#X obj 225 138 r \$0-kick.pitch;
#X obj 108 107 r~ \$0-dither;
#X obj 236 506 vline~;
#X obj 236 530 *~;
#X obj 236 486 pack f f;
#X obj 332 470 r \$0-inertia;
#X obj 236 462 r \$0-kick.level;
#X obj 138 547 *~;
#X obj 107 306 vcf~ 1;
#X obj 138 571 outlet~;
#X obj 210 70 inlet;
#X obj 210 117 mtof;
#X connect 0 0 3 0;
#X connect 1 0 6 0;
#X connect 2 0 14 0;
#X connect 3 0 26 0;
#X connect 4 0 5 0;
#X connect 4 0 5 1;
#X connect 5 0 6 1;
#X connect 6 0 3 0;
#X connect 7 0 13 1;
#X connect 8 0 4 0;
#X connect 9 0 8 0;
#X connect 10 0 9 1;
#X connect 11 0 30 0;
#X connect 11 1 9 0;
#X connect 11 1 12 0;
#X connect 12 0 0 0;
#X connect 13 0 16 0;
#X connect 14 0 1 0;
#X connect 14 0 27 1;
#X connect 15 0 13 0;
#X connect 15 0 17 0;
#X connect 15 1 14 1;
#X connect 16 0 2 0;
#X connect 17 0 1 1;
#X connect 18 0 15 0;
#X connect 19 0 18 1;
#X connect 20 0 27 0;
#X connect 21 0 22 0;
#X connect 21 0 22 1;
#X connect 22 0 26 1;
#X connect 23 0 21 0;
#X connect 24 0 23 1;
#X connect 25 0 23 0;
#X connect 26 0 28 0;
#X connect 27 1 6 0;
#X connect 29 0 11 0;
#X connect 30 0 18 0;
#X restore 434 233 pd \$0-kick;
#X obj 615 168 noise~;
#X obj 615 242 s~ \$0-noise;
#X obj 695 185 *~ 24000;
#X obj 695 209 phasor~;
#X obj 695 233 *~ 4;
#X obj 695 257 -~ 2;
#X obj 695 281 abs~;
#X obj 695 305 -~ 1;
#X obj 695 329 s~ \$0-dither;
#N canvas 670 294 644 615 \$0-snare 0;
#X msg 171 320 0;
#X obj 270 348 r~ \$0-noise;
#X obj 144 298 vline~;
#X obj 296 254 vline~;
#X obj 144 209 t f f;
#X obj 144 246 pack f f;
#X msg 296 230 \$1 4 \, 0 \$2 4;
#X obj 144 118 unpack f f;
#X obj 296 278 *~;
#X obj 145 389 *~;
#X obj 270 396 *~;
#X obj 368 355 vline~;
#X obj 368 379 *~;
#X obj 368 259 * 0.5;
#X msg 368 331 \$1 4 \, 0 \$2 4;
#X obj 368 300 pack f 300;
#X obj 144 98 t l b;
#X obj 145 413 +~;
#X obj 145 463 expr~ tanh($v1);
#X obj 145 339 osc~;
#X obj 296 302 *~;
#X obj 296 198 pack f 100;
#X msg 144 274 \$1 2 \, \$2 5 4;
#X obj 144 65 inlet;
#X obj 189 225 * 0.5;
#X obj 145 437 *~ 2;
#X obj 145 527 outlet~;
#X obj 243 466 vline~;
#X obj 243 490 *~;
#X obj 243 446 pack f f;
#X obj 349 430 r \$0-inertia;
#X obj 145 507 *~;
#X obj 243 422 r \$0-snare.level;
#X obj 425 182 * 0.333333;
#X obj 425 161 r \$0-snare.decay;
#X obj 144 189 * 1;
#X obj 159 164 r \$0-snare.pitch;
#X obj 144 139 mtof;
#X connect 0 0 19 1;
#X connect 1 0 10 0;
#X connect 2 0 19 0;
#X connect 3 0 8 0;
#X connect 3 0 8 1;
#X connect 4 0 5 0;
#X connect 4 1 24 0;
#X connect 5 0 22 0;
#X connect 6 0 3 0;
#X connect 7 0 37 0;
#X connect 7 1 13 0;
#X connect 7 1 21 0;
#X connect 8 0 20 0;
#X connect 8 0 20 1;
#X connect 9 0 17 0;
#X connect 10 0 17 1;
#X connect 11 0 12 0;
#X connect 11 0 12 1;
#X connect 12 0 10 1;
#X connect 13 0 15 0;
#X connect 14 0 11 0;
#X connect 15 0 14 0;
#X connect 16 0 7 0;
#X connect 16 1 0 0;
#X connect 17 0 25 0;
#X connect 18 0 31 0;
#X connect 19 0 9 0;
#X connect 20 0 9 1;
#X connect 21 0 6 0;
#X connect 22 0 2 0;
#X connect 23 0 16 0;
#X connect 24 0 5 1;
#X connect 25 0 18 0;
#X connect 27 0 28 0;
#X connect 27 0 28 1;
#X connect 28 0 31 1;
#X connect 29 0 27 0;
#X connect 30 0 29 1;
#X connect 31 0 26 0;
#X connect 32 0 29 0;
#X connect 33 0 21 1;
#X connect 34 0 33 0;
#X connect 34 0 15 1;
#X connect 35 0 4 0;
#X connect 36 0 35 1;
#X connect 37 0 35 0;
#X restore 468 322 pd \$0-snare;
#N canvas 400 45 582 575 \$0-hat1 0;
#X obj 88 54 inlet;
#X obj 66 517 outlet~;
#X obj 97 190 *~;
#X obj 194 173 vline~;
#X obj 232 283 swap 1000;
#X obj 232 304 /;
#X obj 232 325 *~;
#X msg 387 91 0;
#X obj 88 100 unpack f f;
#X msg 194 152 \$1 0 \, 0 0 10;
#X obj 88 75 t l b;
#X obj 67 153 r~ \$0-noise;
#X obj 145 437 vline~;
#X obj 66 475 *~;
#X obj 145 458 *~;
#X obj 96 304 expr~ tanh($v1);
#X obj 66 403 bp~ 7000 20;
#X obj 66 423 hip~ 5000;
#X obj 88 370 * 32;
#X obj 348 266 phasor~;
#X obj 348 287 cos~;
#X msg 115 211 clear;
#X obj 145 395 pack f 90;
#X msg 145 416 \$1 2 \, 0 \$2 2;
#X obj 348 245 *~ 0.03125;
#X obj 66 448 hip~ 5000;
#X obj 405 161 swap 2;
#X obj 405 182 pow;
#X obj 405 224 /;
#X obj 405 203 swap 1;
#X obj 348 308 +~ 1;
#X obj 67 281 *~ 0.25;
#X obj 232 262 * 1;
#X obj 66 496 *~;
#X obj 266 455 vline~;
#X obj 266 479 *~;
#X obj 266 435 pack f f;
#X obj 365 419 r \$0-inertia;
#X obj 97 241 delwrite~ \$0-khat1 100;
#X obj 247 241 r \$0-hat1.pitch;
#X obj 96 341 vd~ \$0-khat1;
#X obj 196 367 r \$0-hat1.decay;
#X obj 266 411 r \$0-hat1.level;
#X obj 405 140 r \$0-hat1.sweep;
#X obj 88 121 mtof;
#X connect 0 0 10 0;
#X connect 2 0 38 0;
#X connect 3 0 2 1;
#X connect 4 0 5 0;
#X connect 4 1 5 1;
#X connect 5 0 6 0;
#X connect 6 0 40 0;
#X connect 7 0 19 1;
#X connect 8 0 44 0;
#X connect 8 1 9 0;
#X connect 8 1 22 0;
#X connect 9 0 3 0;
#X connect 10 0 8 0;
#X connect 10 1 7 0;
#X connect 10 1 21 0;
#X connect 11 0 2 0;
#X connect 11 0 31 0;
#X connect 12 0 14 0;
#X connect 12 0 14 1;
#X connect 13 0 33 0;
#X connect 14 0 13 1;
#X connect 15 0 38 0;
#X connect 16 0 17 0;
#X connect 17 0 25 0;
#X connect 18 0 16 1;
#X connect 18 0 17 1;
#X connect 19 0 20 0;
#X connect 20 0 30 0;
#X connect 21 0 38 0;
#X connect 22 0 23 0;
#X connect 23 0 12 0;
#X connect 24 0 19 0;
#X connect 25 0 13 0;
#X connect 26 0 27 0;
#X connect 26 1 27 1;
#X connect 27 0 29 0;
#X connect 28 0 24 1;
#X connect 29 0 28 0;
#X connect 29 1 28 1;
#X connect 30 0 6 1;
#X connect 31 0 16 0;
#X connect 32 0 4 0;
#X connect 33 0 1 0;
#X connect 34 0 35 0;
#X connect 34 0 35 1;
#X connect 35 0 33 1;
#X connect 36 0 34 0;
#X connect 37 0 36 1;
#X connect 39 0 32 1;
#X connect 40 0 15 0;
#X connect 40 0 17 0;
#X connect 41 0 22 1;
#X connect 42 0 36 0;
#X connect 43 0 26 0;
#X connect 44 0 24 0;
#X connect 44 0 32 0;
#X connect 44 0 18 0;
#X restore 536 500 pd \$0-hat1;
#N canvas 1007 99 496 678 \$0-blip0 0;
#X obj 79 115 inlet;
#X obj 79 438 *~;
#X obj 206 397 vline~;
#X obj 79 160 unpack f f;
#X obj 79 140 t l b;
#X obj 79 525 outlet~;
#X obj 129 296 osc~;
#X obj 206 279 vline~;
#X msg 206 373 0 \, \$1 5 \, 0 \$2 5;
#X obj 206 230 pack f 10;
#X msg 206 255 0 \, 1 5 \, 0 \$2 10;
#X obj 206 348 pack f 200;
#X obj 206 421 *~;
#X obj 206 303 *~;
#X obj 79 238 * 1;
#X obj 129 254 * 1.5708;
#X obj 79 503 *~;
#X obj 238 462 vline~;
#X obj 238 486 *~;
#X obj 238 442 pack f f;
#X obj 344 426 r \$0-inertia;
#X msg 150 275 0;
#X obj 94 212 r \$0-blip0.pitch;
#X obj 257 131 r \$0-blip0.sweep;
#X obj 263 327 r \$0-blip0.decay;
#X obj 238 418 r \$0-blip0.level;
#X obj 79 461 expr~ tanh($v1);
#X obj 129 340 *~;
#X obj 129 320 +~ 1;
#X obj 79 482 hip~;
#X obj 79 357 *~;
#X obj 79 378 osc~;
#X obj 79 181 mtof;
#X connect 0 0 4 0;
#X connect 1 0 26 0;
#X connect 2 0 12 0;
#X connect 2 0 12 1;
#X connect 3 0 32 0;
#X connect 3 1 9 0;
#X connect 3 1 11 0;
#X connect 4 0 3 0;
#X connect 4 1 21 0;
#X connect 6 0 28 0;
#X connect 7 0 13 0;
#X connect 7 0 13 1;
#X connect 8 0 2 0;
#X connect 9 0 10 0;
#X connect 10 0 7 0;
#X connect 11 0 8 0;
#X connect 12 0 1 1;
#X connect 13 0 27 1;
#X connect 14 0 15 0;
#X connect 14 0 29 1;
#X connect 14 0 30 0;
#X connect 15 0 6 0;
#X connect 16 0 5 0;
#X connect 17 0 18 0;
#X connect 17 0 18 1;
#X connect 18 0 16 1;
#X connect 19 0 17 0;
#X connect 20 0 19 1;
#X connect 21 0 6 1;
#X connect 22 0 14 1;
#X connect 23 0 9 1;
#X connect 24 0 11 1;
#X connect 25 0 19 0;
#X connect 26 0 29 0;
#X connect 27 0 30 1;
#X connect 28 0 27 0;
#X connect 29 0 16 0;
#X connect 30 0 31 0;
#X connect 31 0 1 0;
#X connect 32 0 14 0;
#X restore 570 589 pd \$0-blip0;
#N canvas -803 253 496 678 \$0-blip1 0;
#X obj 79 115 inlet;
#X obj 78 434 *~;
#X obj 206 393 vline~;
#X obj 79 160 unpack f f;
#X obj 79 140 t l b;
#X obj 78 521 outlet~;
#X obj 79 357 *~;
#X obj 206 279 vline~;
#X msg 206 369 0 \, \$1 5 \, 0 \$2 5;
#X obj 206 230 pack f 10;
#X msg 206 255 0 \, 1 5 \, 0 \$2 10;
#X obj 206 344 pack f 200;
#X obj 206 417 *~;
#X obj 206 303 *~;
#X obj 79 238 * 1;
#X obj 78 499 *~;
#X obj 238 458 vline~;
#X obj 238 482 *~;
#X obj 238 438 pack f f;
#X obj 344 422 r \$0-inertia;
#X obj 78 457 expr~ tanh($v1);
#X obj 94 212 r \$0-blip1.pitch;
#X obj 257 151 r \$0-blip1.sweep;
#X obj 263 323 r \$0-blip1.decay;
#X obj 238 414 r \$0-blip1.level;
#X obj 129 296 osc~;
#X obj 129 254 * 1.5708;
#X msg 150 275 0;
#X obj 129 340 *~;
#X obj 129 320 +~ 1;
#X floatatom 310 202 5 0 0 0 - - -;
#X obj 79 378 osc~;
#X obj 78 478 hip~;
#X obj 79 181 mtof;
#X connect 0 0 4 0;
#X connect 1 0 20 0;
#X connect 2 0 12 0;
#X connect 2 0 12 1;
#X connect 3 0 33 0;
#X connect 3 1 9 0;
#X connect 3 1 11 0;
#X connect 4 0 3 0;
#X connect 6 0 31 0;
#X connect 7 0 13 0;
#X connect 7 0 13 1;
#X connect 8 0 2 0;
#X connect 9 0 10 0;
#X connect 10 0 7 0;
#X connect 11 0 8 0;
#X connect 12 0 1 1;
#X connect 13 0 28 1;
#X connect 14 0 6 0;
#X connect 14 0 26 0;
#X connect 14 0 32 1;
#X connect 15 0 5 0;
#X connect 16 0 17 0;
#X connect 16 0 17 1;
#X connect 17 0 15 1;
#X connect 18 0 16 0;
#X connect 19 0 18 1;
#X connect 20 0 32 0;
#X connect 21 0 14 1;
#X connect 22 0 9 1;
#X connect 22 0 30 0;
#X connect 23 0 11 1;
#X connect 24 0 18 0;
#X connect 25 0 29 0;
#X connect 26 0 25 0;
#X connect 27 0 25 1;
#X connect 28 0 6 1;
#X connect 29 0 28 0;
#X connect 31 0 1 0;
#X connect 32 0 15 0;
#X connect 33 0 14 0;
#X restore 604 678 pd \$0-blip1;
#X obj 434 254 outlet~;
#X obj 468 343 outlet~;
#X obj 570 610 outlet~;
#X obj 604 699 outlet~;
#X obj 502 432 outlet~;
#X obj 536 521 outlet~;
#N canvas 400 45 582 575 \$0-hat0 0;
#X obj 88 54 inlet;
#X obj 66 517 outlet~;
#X obj 97 190 *~;
#X obj 194 173 vline~;
#X obj 232 283 swap 1000;
#X obj 232 304 /;
#X obj 232 325 *~;
#X msg 387 91 0;
#X obj 88 100 unpack f f;
#X msg 194 152 \$1 0 \, 0 0 10;
#X obj 88 75 t l b;
#X obj 67 153 r~ \$0-noise;
#X obj 145 437 vline~;
#X obj 66 475 *~;
#X obj 145 458 *~;
#X obj 96 304 expr~ tanh($v1);
#X obj 66 403 bp~ 7000 20;
#X obj 66 423 hip~ 5000;
#X obj 88 370 * 32;
#X obj 348 266 phasor~;
#X obj 348 287 cos~;
#X msg 115 211 clear;
#X obj 145 395 pack f 90;
#X msg 145 416 \$1 2 \, 0 \$2 2;
#X obj 348 245 *~ 0.03125;
#X obj 66 448 hip~ 5000;
#X obj 405 161 swap 2;
#X obj 405 182 pow;
#X obj 405 224 /;
#X obj 405 203 swap 1;
#X obj 348 308 +~ 1;
#X obj 67 281 *~ 0.25;
#X obj 232 262 * 1;
#X obj 66 496 *~;
#X obj 266 455 vline~;
#X obj 266 479 *~;
#X obj 266 435 pack f f;
#X obj 365 419 r \$0-inertia;
#X obj 247 241 r \$0-hat0.pitch;
#X obj 97 241 delwrite~ \$0-khat0 100;
#X obj 96 341 vd~ \$0-khat0;
#X obj 266 411 r \$0-hat0.level;
#X obj 405 140 r \$0-hat0.sweep;
#X obj 196 367 r \$0-hat0.decay;
#X obj 88 126 mtof;
#X connect 0 0 10 0;
#X connect 2 0 39 0;
#X connect 3 0 2 1;
#X connect 4 0 5 0;
#X connect 4 1 5 1;
#X connect 5 0 6 0;
#X connect 6 0 40 0;
#X connect 7 0 19 1;
#X connect 8 0 44 0;
#X connect 8 1 9 0;
#X connect 8 1 22 0;
#X connect 9 0 3 0;
#X connect 10 0 8 0;
#X connect 10 1 7 0;
#X connect 10 1 21 0;
#X connect 11 0 2 0;
#X connect 11 0 31 0;
#X connect 12 0 14 0;
#X connect 12 0 14 1;
#X connect 13 0 33 0;
#X connect 14 0 13 1;
#X connect 15 0 39 0;
#X connect 16 0 17 0;
#X connect 17 0 25 0;
#X connect 18 0 16 1;
#X connect 18 0 17 1;
#X connect 19 0 20 0;
#X connect 20 0 30 0;
#X connect 21 0 39 0;
#X connect 22 0 23 0;
#X connect 23 0 12 0;
#X connect 24 0 19 0;
#X connect 25 0 13 0;
#X connect 26 0 27 0;
#X connect 26 1 27 1;
#X connect 27 0 29 0;
#X connect 28 0 24 1;
#X connect 29 0 28 0;
#X connect 29 1 28 1;
#X connect 30 0 6 1;
#X connect 31 0 16 0;
#X connect 32 0 4 0;
#X connect 33 0 1 0;
#X connect 34 0 35 0;
#X connect 34 0 35 1;
#X connect 35 0 33 1;
#X connect 36 0 34 0;
#X connect 37 0 36 1;
#X connect 38 0 32 1;
#X connect 40 0 15 0;
#X connect 40 0 17 0;
#X connect 41 0 36 0;
#X connect 42 0 26 0;
#X connect 43 0 22 1;
#X connect 44 0 24 0;
#X connect 44 0 32 0;
#X connect 44 0 18 0;
#X restore 502 411 pd \$0-hat0;
#X obj 434 190 inlet;
#X obj 468 280 inlet;
#X obj 570 547 inlet;
#X obj 604 636 inlet;
#X obj 502 369 inlet;
#X obj 536 458 inlet;
#X obj 473 169 r \$0-kick.test;
#X obj 105 121 cnv 15 100 85 empty empty empty 2 8 0 8 -1 -1 0;
#X obj 106 122 cnv 15 98 83 empty empty kick(out0) 2 8 0 8 -262130
-1 0;
#X obj 188 123 bng 15 250 50 0 \$0-kick.test \$0-kick.test.in empty
17 7 0 10 -257985 -1 -1;
#X obj 189 124 cnv 13 13 13 empty \$0-kick.led GO 2 7 0 8 -262017 -1
0;
#X obj 109 155 nbx 5 15 0 1 0 0 \$0-kick.level \$0-kick.level.in level
0 -8 0 8 -257985 -1 -1 1 256;
#X obj 109 185 nbx 5 15 0 1e+037 0 0 \$0-kick.decay \$0-kick.decay.in
decay 0 -8 0 8 -257985 -1 -1 300 256;
#X obj 156 185 nbx 5 15 0 1e+037 0 0 \$0-kick.sweep \$0-kick.sweep.in
sweep 0 -8 0 8 -257985 -1 -1 100 256;
#X obj 156 155 nbx 5 15 0 1e+037 0 0 \$0-kick.pitch \$0-kick.pitch.in
pitch 0 -8 0 8 -257985 -1 -1 0.5 256;
#X obj 315 121 cnv 15 100 85 empty empty empty 2 8 0 8 -1 -1 0;
#X obj 316 122 cnv 15 98 83 empty empty blip0(out4) 2 8 0 8 -262130
-1 0;
#X obj 319 155 nbx 5 15 0 1 0 0 \$0-blip0.level \$0-blip0.level.in
level 0 -8 0 8 -257985 -1 -1 1 256;
#X obj 319 185 nbx 5 15 0 1e+037 0 0 \$0-blip0.decay \$0-blip0.decay.in
decay 0 -8 0 8 -257985 -1 -1 50 256;
#X obj 367 185 nbx 5 15 0 1e+037 0 0 \$0-blip0.sweep \$0-blip0.sweep.in
sweep 0 -8 0 8 -257985 -1 -1 20 256;
#X obj 367 155 nbx 5 15 0 1e+037 0 0 \$0-blip0.pitch \$0-blip0.pitch.in
pitch 0 -8 0 8 -257985 -1 -1 4 256;
#X obj 398 123 bng 15 250 50 0 \$0-blip0.test \$0-blip0.test.in empty
17 7 0 10 -257985 -1 -1;
#X obj 399 124 cnv 13 13 13 empty \$0-blip0.led GO 2 7 0 8 -262017
-1 0;
#X obj 210 121 cnv 15 100 85 empty empty empty 2 8 0 8 -1 -1 0;
#X obj 211 122 cnv 15 98 83 empty empty hat0(out2) 2 8 0 8 -262130
-1 0;
#X obj 293 123 bng 15 250 50 0 \$0-hat0.test \$0-hat0.test.in empty
17 7 0 10 -257985 -1 -1;
#X obj 294 124 cnv 13 13 13 empty \$0-hat0.led GO 2 7 0 8 -262017 -1
0;
#X obj 214 155 nbx 5 15 0 1 0 0 \$0-hat0.level \$0-hat0.level.in level
0 -8 0 8 -257985 -1 -1 1 256;
#X obj 214 185 nbx 5 15 0 1e+037 0 0 \$0-hat0.decay \$0-hat0.decay.in
decay 0 -8 0 8 -257985 -1 -1 50 256;
#X obj 261 185 nbx 5 15 0 1e+037 0 0 \$0-hat0.sweep \$0-hat0.sweep.in
sweep 0 -8 0 8 -257985 -1 -1 20 256;
#X obj 261 155 nbx 5 15 0 1e+037 0 0 \$0-hat0.pitch \$0-hat0.pitch.in
pitch 0 -8 0 8 -257985 -1 -1 2 256;
#X obj 105 211 cnv 15 100 85 empty empty empty 2 8 0 8 -1 -1 0;
#X obj 106 212 cnv 15 98 83 empty empty snare(out1) 2 8 0 8 -262130
-1 0;
#X obj 315 211 cnv 15 100 85 empty empty empty 2 8 0 8 -1 -1 0;
#X obj 316 212 cnv 15 98 83 empty empty blip1(out5) 2 8 0 8 -262130
-1 0;
#X obj 210 211 cnv 15 100 85 empty empty empty 2 8 0 8 -1 -1 0;
#X obj 211 212 cnv 15 98 83 empty empty hat1(out3) 2 8 0 8 -262130
-1 0;
#X obj 214 245 nbx 5 15 0 1 0 0 \$0-hat1.level \$0-hat1.level.in level
0 -8 0 8 -257985 -1 -1 1 256;
#X obj 214 275 nbx 5 15 0 1e+037 0 0 \$0-hat1.decay \$0-hat1.decay.in
decay 0 -8 0 8 -257985 -1 -1 70 256;
#X obj 261 275 nbx 5 15 0 1e+037 0 0 \$0-hat1.sweep \$0-hat1.sweep.in
sweep 0 -8 0 8 -257985 -1 -1 4 256;
#X obj 261 245 nbx 5 15 0 1e+037 0 0 \$0-hat1.pitch \$0-hat1.pitch.in
pitch 0 -8 0 8 -257985 -1 -1 2 256;
#X obj 319 245 nbx 5 15 0 1 0 0 \$0-blip1.level \$0-blip1.level.in
level 0 -8 0 8 -257985 -1 -1 1 256;
#X obj 319 275 nbx 5 15 0 1e+037 0 0 \$0-blip1.decay \$0-blip1.decay.in
decay 0 -8 0 8 -257985 -1 -1 50 256;
#X obj 366 275 nbx 5 15 0 1e+037 0 0 \$0-blip1.sweep \$0-blip1.sweep.in
sweep 0 -8 0 8 -257985 -1 -1 10 256;
#X obj 366 245 nbx 5 15 0 1e+037 0 0 \$0-blip1.pitch \$0-blip1.pitch.in
pitch 0 -8 0 8 -257985 -1 -1 2 256;
#X obj 109 245 nbx 5 15 0 1 0 0 \$0-snare.level \$0-snare.level.in
level 0 -8 0 8 -257985 -1 -1 1 256;
#X obj 109 275 nbx 5 15 0 1e+037 0 0 \$0-snare.decay \$0-snare.decay.in
decay 0 -8 0 8 -257985 -1 -1 120 256;
#X obj 156 275 nbx 5 15 0 1e+037 0 0 \$0-snare.sweep \$0-snare.sweep.in
sweep 0 -8 0 8 -257985 -1 -1 80 256;
#X obj 156 245 nbx 5 15 0 1e+037 0 0 \$0-snare.pitch \$0-snare.pitch.in
pitch 0 -8 0 8 -257985 -1 -1 1 256;
#X obj 188 213 bng 15 250 50 0 \$0-snare.test \$0-snare.test.in empty
17 7 0 10 -257985 -1 -1;
#X obj 189 214 cnv 13 13 13 empty \$0-snare.led GO 2 7 0 8 -262017
-1 0;
#X obj 398 213 bng 15 250 50 0 \$0-blip1.test \$0-blip1.test.in empty
17 7 0 10 -257985 -1 -1;
#X obj 399 214 cnv 13 13 13 empty \$0-blip1.led GO 2 7 0 8 -262017
-1 0;
#X obj 293 213 bng 15 250 50 0 \$0-hat1.test \$0-hat1.test.in empty
17 7 0 10 -257985 -1 -1;
#X obj 294 214 cnv 13 13 13 empty \$0-hat1.led GO 2 7 0 8 -262017 -1
0;
#X obj 512 259 r \$0-snare.test;
#X obj 614 526 r \$0-blip0.test;
#X obj 648 615 r \$0-blip1.test;
#X obj 546 348 r \$0-hat0.test;
#X obj 580 437 r \$0-hat1.test;
#X obj 791 169 loadbang;
#X obj 791 190 bng 15 250 50 0 empty empty empty 17 7 0 10 -262144
-1 -1;
#X obj 791 210 f \$0;
#X obj 434 212 ezdrummer/setparam \$0-kick;
#X obj 468 301 ezdrummer/setparam \$0-snare;
#X obj 502 390 ezdrummer/setparam \$0-hat0;
#X obj 536 479 ezdrummer/setparam \$0-hat1;
#X obj 570 568 ezdrummer/setparam \$0-blip0;
#X obj 604 657 ezdrummer/setparam \$0-blip1;
#X msg 473 190 60 1;
#X msg 512 280 60 1;
#X msg 546 369 60 1;
#X msg 580 458 60 1;
#X msg 614 547 60 1;
#X msg 648 636 60 1;
#X msg 791 231 \; \$1-kick.level.in 1 \; \$1-kick.pitch.in 0.5 \; \$1-kick.decay.in
300 \; \$1-kick.sweep.in 100 \; \$1-snare.level.in 1 \; \$1-snare.pitch.in
1 \; \$1-snare.decay.in 120 \; \$1-snare.sweep.in 80 \; \$1-blip0.level.in
1 \; \$1-blip0.pitch.in 4 \; \$1-blip0.decay.in 50 \; \$1-blip0.sweep.in
20 \; \$1-blip1.level.in 1 \; \$1-blip1.pitch.in 2 \; \$1-blip1.decay.in
50 \; \$1-blip1.sweep.in 10 \; \$1-hat0.level.in 1 \; \$1-hat0.pitch.in
2 \; \$1-hat0.decay.in 50 \; \$1-hat0.sweep.in 20 \; \$1-hat1.level.in
1 \; \$1-hat1.pitch.in 2 \; \$1-hat1.decay.in 70 \; \$1-hat1.sweep.in
4 \;;
#X connect 0 0 14 0;
#X connect 1 0 2 0;
#X connect 1 0 3 0;
#X connect 3 0 4 0;
#X connect 4 0 5 0;
#X connect 5 0 6 0;
#X connect 6 0 7 0;
#X connect 7 0 8 0;
#X connect 8 0 9 0;
#X connect 10 0 15 0;
#X connect 11 0 19 0;
#X connect 12 0 16 0;
#X connect 13 0 17 0;
#X connect 20 0 18 0;
#X connect 21 0 84 0;
#X connect 22 0 85 0;
#X connect 23 0 88 0;
#X connect 24 0 89 0;
#X connect 25 0 86 0;
#X connect 26 0 87 0;
#X connect 27 0 90 0;
#X connect 76 0 91 0;
#X connect 77 0 94 0;
#X connect 78 0 95 0;
#X connect 79 0 92 0;
#X connect 80 0 93 0;
#X connect 81 0 82 0;
#X connect 82 0 83 0;
#X connect 83 0 96 0;
#X connect 84 0 0 0;
#X connect 85 0 10 0;
#X connect 86 0 20 0;
#X connect 87 0 11 0;
#X connect 88 0 12 0;
#X connect 89 0 13 0;
#X connect 90 0 84 0;
#X connect 91 0 85 0;
#X connect 92 0 86 0;
#X connect 93 0 87 0;
#X connect 94 0 88 0;
#X connect 95 0 89 0;
#X coords 0 -1 1 1 320 210 1 100 100;
