#N canvas 482 103 1024 738 10;
#X obj 100 375 noise~;
#X obj 100 511 line~;
#X obj 100 489 pack f f;
#X obj 100 532 pow~ 0.0625;
#X obj 100 468 clip 0 1;
#X obj 100 553 s~ \$0-decay;
#X obj 100 427 r \$0-decay;
#X obj 145 448 r \$0-inertia;
#X obj 223 552 s~ \$0-sine;
#X obj 100 401 s~ \$0-noise.out;
#X obj 223 510 line~;
#X obj 223 488 pack f f;
#X obj 223 467 clip 0 1;
#X obj 268 447 r \$0-inertia;
#X obj 223 531 *~;
#X obj 223 426 r \$0-sine;
#X obj 346 511 line~;
#X obj 346 489 pack f f;
#X obj 346 468 clip 0 1;
#X obj 391 448 r \$0-inertia;
#X obj 346 532 *~;
#X obj 346 427 r \$0-noise;
#X obj 346 553 s~ \$0-noise;
#X obj 370 299 clone plucker/voice 4 \$0;
#X obj 469 511 line~;
#X obj 469 489 pack f f;
#X obj 514 448 r \$0-inertia;
#X obj 469 532 *~;
#X obj 469 553 s~ \$0-dampen;
#X obj 469 427 r \$0-dampen;
#X obj 469 468 clip 0 1;
#X obj 210 120 nbx 5 15 0 1 0 0 \$0-decay.n \$0-decay.n.in empty 0
-8 0 8 -257985 -1 -1 0.75 256;
#X obj 108 120 hsl 100 15 0 1 0 0 \$0-decay \$0-decay.in decay 0 8
0 8 -262144 -1 -1 7425 0;
#X msg 317 135 set \$1;
#X obj 210 140 nbx 5 15 0 1 0 0 \$0-sine.n \$0-sine.n.in empty 0 -8
0 8 -257985 -1 -1 1 256;
#X obj 108 140 hsl 100 15 0 1 0 0 \$0-sine \$0-sine.in sine 0 8 0 8
-262144 -1 -1 9900 0;
#X msg 317 155 set \$1;
#X obj 210 160 nbx 5 15 0 1 0 0 \$0-noise.n \$0-noise.n.in empty 0
-8 0 8 -257985 -1 -1 1 256;
#X obj 108 160 hsl 100 15 0 1 0 0 \$0-noise \$0-noise.in noise 0 8
0 8 -262144 -1 -1 9900 0;
#X msg 317 175 set \$1;
#X obj 260 150 nbx 5 15 1e-037 1e+037 0 0 \$0-tune \$0-tune.in tune
0 -8 0 8 -257985 -1 -1 1 256;
#X obj 260 180 nbx 5 15 0 1e+037 0 0 \$0-inertia \$0-inertia.in inertia
0 -8 0 8 -257985 -1 -1 20 256;
#X obj 290 120 bng 15 250 50 0 \$0-test \$0-test.in empty 17 7 0 10
-257985 -1 -1;
#X obj 291 121 cnv 13 13 13 empty \$0-led GO 2 7 0 8 -262017 -1 0;
#X obj 260 120 nbx 2 15 0 3 0 0 \$0-current.voice \$0-current.voice.in
voice 0 -8 0 8 -257985 -1 -1 1 256;
#X obj 449 100 r \$0-test;
#X obj 370 100 inlet;
#X obj 370 161 plucker/setparam \$0;
#X obj 370 182 t l b;
#X obj 397 203 f 0;
#X obj 397 224 t f f;
#X obj 412 182 expr (($f1 + 1) <= (\$1 - 1)) * ($f1 + 1);
#X msg 424 249 set \$1;
#X msg 370 276 this \$1 \$2;
#X obj 661 187 r \$0-current.voice;
#X obj 539 265 s \$0-current.voice.in;
#X obj 260 16 r \$0-init;
#X obj 100 210 loadbang;
#X obj 100 231 bng 15 250 50 0 empty empty empty 17 7 0 10 -262144
-1 -1;
#X obj 100 252 f \$0;
#X obj 260 37 f \$1;
#X obj 260 58 - 1;
#X msg 260 79 range 0 \$1;
#X obj 370 320 outlet~;
#X obj 108 180 hsl 100 15 0 1 0 0 \$0-dampen \$0-dampen.in dampen 0
8 0 8 -262144 -1 -1 2475 0;
#X obj 210 180 nbx 5 15 0 1 0 0 \$0-dampen.n \$0-dampen.n.in empty
0 -8 0 8 -257985 -1 -1 0.25 256;
#X msg 317 195 set \$1;
#X msg 100 273 \; \$1-decay.in 0.75 \; \$1-sine.in 1 \; \$1-noise.in
1 \; \$1-tune.in 1 \; \$1-dampen.in 0.25 \; \$1-inertia.in 20 \; \$1-init
bang \;;
#X msg 449 126 60 1;
#X connect 0 0 9 0;
#X connect 1 0 3 0;
#X connect 2 0 1 0;
#X connect 3 0 5 0;
#X connect 4 0 2 0;
#X connect 6 0 4 0;
#X connect 7 0 2 1;
#X connect 10 0 14 0;
#X connect 10 0 14 1;
#X connect 11 0 10 0;
#X connect 12 0 11 0;
#X connect 13 0 11 1;
#X connect 14 0 8 0;
#X connect 15 0 12 0;
#X connect 16 0 20 0;
#X connect 16 0 20 1;
#X connect 17 0 16 0;
#X connect 18 0 17 0;
#X connect 19 0 17 1;
#X connect 20 0 22 0;
#X connect 21 0 18 0;
#X connect 23 0 63 0;
#X connect 24 0 27 0;
#X connect 24 0 27 1;
#X connect 25 0 24 0;
#X connect 26 0 25 1;
#X connect 27 0 28 0;
#X connect 29 0 30 0;
#X connect 30 0 25 0;
#X connect 31 0 32 0;
#X connect 32 0 33 0;
#X connect 33 0 31 0;
#X connect 34 0 35 0;
#X connect 35 0 36 0;
#X connect 36 0 34 0;
#X connect 37 0 38 0;
#X connect 38 0 39 0;
#X connect 39 0 37 0;
#X connect 45 0 68 0;
#X connect 46 0 47 0;
#X connect 47 0 48 0;
#X connect 48 0 53 0;
#X connect 48 1 49 0;
#X connect 49 0 50 0;
#X connect 50 0 51 0;
#X connect 50 1 52 0;
#X connect 51 0 49 1;
#X connect 52 0 55 0;
#X connect 52 0 23 0;
#X connect 53 0 23 0;
#X connect 54 0 49 1;
#X connect 56 0 60 0;
#X connect 57 0 58 0;
#X connect 58 0 59 0;
#X connect 59 0 67 0;
#X connect 60 0 61 0;
#X connect 61 0 62 0;
#X connect 62 0 44 0;
#X connect 64 0 66 0;
#X connect 65 0 64 0;
#X connect 66 0 65 0;
#X connect 68 0 47 0;
#X coords 0 -1 1 1 210 100 1 100 100;
