#N struct 1158-key float status float root float id float x float y
;
#N canvas 145 169 1008 709 10;
#N canvas 886 473 450 300 \$0-output 0;
#X obj 122 115 cc.output~;
#X text 129 99 Volume Control;
#X obj 121 55 inlet~;
#X obj 324 55 inlet~;
#X connect 2 0 0 0;
#X connect 3 0 0 1;
#X restore 108 573 pd \$0-output;
#X obj 108 102 r start;
#X obj 108 127 metro 150;
#X obj 159 102 r tempo;
#X obj 568 98 nbx 4 15 -1e+037 1e+037 0 0 empty tempo.in empty 0 -8
0 10 -257985 -1 -1 160 256;
#X obj 568 118 s tempo;
#X obj 512 118 s start;
#X obj 512 98 tgl 15 0 empty empty empty 20 7 0 10 -257985 -1 -1 1
1;
#X obj 239 118 loadbang;
#X msg 239 139 \; tempo.in 150;
#N canvas 0 50 450 300 scale 0;
#X msg 107 79 intervals 3 2 2 3 2;
#X obj 107 113 cc.12tet scale;
#X msg 237 79 scale 0 2 4 5 7 9 11;
#X connect 0 0 1 0;
#X connect 2 0 1 0;
#X restore 293 108 pd scale;
#N canvas 0 50 450 338 chords 0;
#X obj 37 37 inlet;
#X obj 37 58 cc.12tet/chord scale chord;
#X obj 37 276 outlet;
#X obj 37 163 unpack f f f f;
#X obj 64 184 pipe 50;
#X obj 91 204 pipe 100;
#X obj 118 224 pipe 150;
#X connect 0 0 1 0;
#X connect 1 0 3 0;
#X connect 3 0 2 0;
#X connect 3 1 4 0;
#X connect 3 2 5 0;
#X connect 3 3 6 0;
#X connect 4 0 2 0;
#X connect 5 0 2 0;
#X connect 6 0 2 0;
#X restore 218 254 pd chords;
#N canvas 568 213 450 326 sequence 0;
#X obj 37 37 inlet;
#X obj 79 37 r sequences;
#X obj 37 237 outlet;
#X obj 37 108 cc.12tet/sequence scale;
#X obj 159 37 r init;
#X obj 240 216 sel 0;
#X msg 240 237 random one;
#X msg 159 61 floor 60 \, length 16 \, random all;
#X connect 0 0 3 0;
#X connect 1 0 3 0;
#X connect 3 0 2 0;
#X connect 3 1 5 0;
#X connect 4 0 7 0;
#X connect 5 0 6 0;
#X connect 6 0 3 0;
#X connect 7 0 3 0;
#X restore 108 254 pd sequence;
#X obj 108 275 nbx 5 15 -1e+037 1e+037 0 0 empty empty empty 0 -8 0
10 -257985 -1 -1 62 256;
#X msg 108 295 \$1 1;
#X obj 108 168 f 0;
#X obj 134 168 + 1;
#X obj 108 148 bng 15 250 50 0 empty empty empty 17 7 0 10 -262144
-1 -1;
#X msg 218 233 octave 4 \, 0 2 4 6;
#X msg 333 233 octave 4 \, 3 5 7 9;
#X obj 218 426 cc.synths~/plucker 4;
#X obj 108 316 cc.synths~/plucker 4;
#X obj 218 275 nbx 5 15 -1e+037 1e+037 0 0 empty empty empty 0 -8 0
10 -257985 -1 -1 64 256;
#X msg 218 295 \$1 1;
#N canvas 1136 419 450 300 reverb 0;
#X obj 48 44 cc.dattorro~;
#X obj 48 18 inlet~;
#X obj 251 18 inlet~;
#X obj 48 259 outlet~;
#X obj 251 259 outlet~;
#X connect 0 0 3 0;
#X connect 0 1 4 0;
#X connect 1 0 0 0;
#X connect 2 0 0 1;
#X restore 108 547 pd reverb;
#X obj 218 184 % 128;
#X obj 218 205 sel 0 32 64 96;
#X text 510 147 [cc.synths~/plucker] - Polyphonic Karplus-Strong synth
, f 66;
#X text 510 170 Plucker is a simple polyphonic karplus-strong synthesizer.
When a note is received \, a burst of noise is triggered and fed into
a feedback loop. This feedback loop is tuned using a delay line such
that it the signal feeds back at the frequency of the given note. This
kind of synthesis algorithm is usually used for plucked strings \,
cymbals \, and other metallic sounds with quick attack transients.
, f 66;
#X text 510 259 The note’s release time is determined by the ‘decay’
parameter. At higher values \, the feedback will self-oscillate into
a never ending ringing. The oscillator itself contains two parts: a
sine oscillator and a noise generator. The sine oscillator feeds a
single oscillator cycle into the delay line in order to create a stronger
fundamental. The amount of noise and sine sent into the delay line
can be controlled by the ‘noise’ and ‘sine’ parameters. ‘Dampen’
controls the amount of feedback signal to be low-pass filtered. This
has the effect of dulling the sound at lower values., f 66;
#X connect 1 0 2 0;
#X connect 2 0 17 0;
#X connect 3 0 2 1;
#X connect 4 0 5 0;
#X connect 7 0 6 0;
#X connect 8 0 9 0;
#X connect 11 0 22 0;
#X connect 12 0 13 0;
#X connect 13 0 14 0;
#X connect 14 0 21 0;
#X connect 15 0 16 0;
#X connect 15 0 25 0;
#X connect 16 0 15 1;
#X connect 17 0 15 0;
#X connect 17 0 12 0;
#X connect 18 0 11 0;
#X connect 19 0 11 0;
#X connect 20 0 24 1;
#X connect 20 0 24 0;
#X connect 21 0 24 1;
#X connect 21 0 24 0;
#X connect 22 0 23 0;
#X connect 23 0 20 0;
#X connect 24 0 0 0;
#X connect 24 1 0 1;
#X connect 25 0 26 0;
#X connect 26 0 18 0;
#X connect 26 1 18 0;
#X connect 26 2 19 0;
#X connect 26 3 19 0;
#X coords 0 709 1 708 85 60 0;
