#N canvas 109 195 902 754 10;
#N canvas 358 84 1285 695 \$0-osc 0;
#X obj 37 37 inlet~ fwd;
#X obj 37 169 s~ \$0-osc.freq;
#X obj 37 215 r~ \$0-osc.freq;
#X obj 37 279 *~;
#X obj 129 36 noise~;
#X obj 70 280 r~ \$0-osc.dither;
#X obj 622 561 bob~;
#X obj 632 524 *~;
#X obj 632 413 r~ \$0-osc.freq;
#X obj 647 437 bin/setparam \$0-osc.filter \$0-inertia 0.5 0.1, f
18;
#X obj 679 522 bin/setparam \$0-osc.resonance \$0-inertia 1 0.1, f
21;
#X obj 37 356 bin/dphasor~;
#X obj 132 480 bin/tsSaw~;
#X obj 38 480 bin/tsPulse~;
#X obj 39 538 throw~ \$0-osc.tofilter;
#X obj 161 577 bng 15 250 50 0 empty empty empty 17 7 0 10 -262144
-1 -1;
#X floatatom 225 645 5 0 0 0 - - -;
#X obj 162 625 expr atan(1) * 2;
#X obj 162 646 v halfpi\$0;
#X obj 228 377 bin/setparam \$0-osc.crossfade \$0-inertia 0.5 0.1,
f 21;
#N canvas 428 227 936 599 \$0-osc.dither 0;
#X obj 156 161 inlet~;
#X obj 156 289 phasor~;
#X obj 156 308 *~ 4;
#X obj 156 327 -~ 2;
#X obj 156 346 abs~;
#X obj 156 365 -~ 1;
#X obj 177 208 samplerate~;
#X obj 177 229 / 2;
#X obj 177 187 r \$0-init;
#X text 279 157 based on one of acriel's random modulation algorithms
;
#X obj 156 270 *~;
#X obj 156 384 s~ \$0-osc.dither;
#X connect 0 0 10 0;
#X connect 1 0 2 0;
#X connect 2 0 3 0;
#X connect 3 0 4 0;
#X connect 4 0 5 0;
#X connect 5 0 11 0;
#X connect 6 0 7 0;
#X connect 7 0 10 1;
#X connect 8 0 6 0;
#X connect 10 0 1 0;
#X restore 129 169 pd \$0-osc.dither;
#X obj 106 301 r \$0-osc.phase;
#X obj 39 501 expr~ cos($v3 * halfpi\$0) * $v1 + sin($v3 * halfpi\$0)
* $v2 \;, f 32;
#X obj 207 116 *~;
#X obj 207 137 throw~ \$0-osc.tofilter;
#X obj 622 387 catch~ \$0-osc.tofilter;
#X obj 221 36 bin/setparam \$0-osc.noise \$0-inertia 1 0.1, f 21;
#X obj 647 480 *~ 2;
#X obj 647 501 *~;
#X obj 188 279 *~;
#X obj 203 236 bin/setparam \$0-osc.sawPitch \$0-inertia 1 0.1, f
21;
#X obj 52 236 bin/setparam \$0-osc.pulsePitch \$0-inertia 1 0.1, f
21;
#X obj 132 356 bin/dphasor~;
#X obj 621 144 phasor~;
#X obj 620 79 bin/setparam \$0-lfo.m \$0-inertia 1 0.1, f 16;
#X obj 396 356 osc~;
#X obj 395 279 *~;
#X obj 187 215 r~ \$0-osc.freq;
#X obj 395 215 r~ \$0-osc.freq;
#X obj 405 135 r~ \$0-osc.dither;
#X obj 417 335 r \$0-osc.phase;
#X obj 410 236 bin/setparam \$0-osc.subPitch \$0-inertia 1 0.1, f
21;
#X obj 396 453 throw~ \$0-osc.toFilter;
#X obj 396 427 *~;
#X obj 410 377 bin/setparam \$0-osc.sub \$0-inertia 0.5 0.1, f 18
;
#X obj 622 177 *~ 2;
#X obj 622 198 -~ 1;
#X obj 655 177 expr~ $v1 > 0.5;
#X obj 622 219 abs~;
#N canvas 437 390 450 300 \$0-osc.pwm 0;
#X obj 47 66 bin/setparam \$0-osc.pwm \$0-inertia 1 0.1, f 21;
#X obj 227 66 r \$0-osc.pwmMode;
#X obj 47 109;
#X connect 0 0 2 0;
#X restore 409 517 pd \$0-osc.pwm;
#X connect 0 0 1 0;
#X connect 2 0 3 0;
#X connect 3 0 11 0;
#X connect 3 0 13 1;
#X connect 3 0 32 0;
#X connect 4 0 20 0;
#X connect 4 0 23 0;
#X connect 5 0 11 1;
#X connect 5 0 32 1;
#X connect 7 0 6 1;
#X connect 8 0 7 0;
#X connect 9 0 27 0;
#X connect 10 0 6 2;
#X connect 11 0 13 0;
#X connect 11 0 12 0;
#X connect 12 0 22 1;
#X connect 13 0 22 0;
#X connect 15 0 17 0;
#X connect 17 0 16 0;
#X connect 17 0 18 0;
#X connect 19 0 22 2;
#X connect 21 0 11 2;
#X connect 21 0 32 2;
#X connect 22 0 14 0;
#X connect 23 0 24 0;
#X connect 25 0 6 0;
#X connect 26 0 23 1;
#X connect 27 0 28 0;
#X connect 27 0 28 1;
#X connect 28 0 7 1;
#X connect 29 0 12 1;
#X connect 30 0 29 1;
#X connect 31 0 3 1;
#X connect 32 0 12 0;
#X connect 33 0 45 0;
#X connect 33 0 47 0;
#X connect 34 0 33 0;
#X connect 35 0 43 0;
#X connect 36 0 35 0;
#X connect 37 0 29 0;
#X connect 38 0 36 0;
#X connect 40 0 35 1;
#X connect 41 0 36 1;
#X connect 43 0 42 0;
#X connect 44 0 43 1;
#X connect 45 0 46 0;
#X connect 46 0 48 0;
#X restore 344 69 pd \$0-osc;
#X obj 590 531 cc.output~;
#X obj 591 314 cc.dphasor~;
#X floatatom 593 242 5 0 0 0 - - -;
#X obj 754 350 cc.scope~;
#N canvas 428 227 936 599 vv 0;
#X obj 156 161 inlet~;
#X obj 156 250 *~ 0;
#X obj 156 269 phasor~;
#X obj 156 288 *~ 4;
#X obj 156 307 -~ 2;
#X obj 156 326 abs~;
#X obj 156 345 -~ 1;
#X obj 156 364 outlet~;
#X obj 177 208 samplerate~;
#X obj 177 229 / 2;
#X obj 177 187 r \$0-init;
#X text 279 157 based on one of acriel's random modulation algorithms
;
#X connect 0 0 1 0;
#X connect 1 0 2 0;
#X connect 2 0 3 0;
#X connect 3 0 4 0;
#X connect 4 0 5 0;
#X connect 5 0 6 0;
#X connect 6 0 7 0;
#X connect 8 0 9 0;
#X connect 9 0 1 1;
#X connect 10 0 8 0;
#X restore 645 250 pd vv;
#X obj 644 185 noise~;
#X obj 593 129 samplerate~;
#X obj 593 150 / 512;
#X obj 610 66 bng 15 250 50 0 empty empty empty 17 7 0 10 -262144 -1
-1;
#X floatatom 755 194 5 0 0 0 - - -;
#X obj 831 125 s~ \$0-osc.mod0;
#X obj 591 335 cc.tsPulse~;
#X obj 833 201 s~ \$0-osc.mod1;
#X obj 843 271 s~ \$0-osc.resonance;
#X obj 107 150 nbx 4 15 1 1e+037 0 0 empty empty ratio0 0 -8 0 8 -262144
-1 -1 1 256;
#X obj 107 180 nbx 4 15 1 1e+037 0 0 empty empty ratio1 0 -8 0 8 -262144
-1 -1 1 256;
#X obj 151 150 nbx 4 15 1 1e+037 0 0 empty empty phase0 0 -8 0 8 -262144
-1 -1 1 256;
#X obj 151 180 nbx 4 15 1 1e+037 0 0 empty empty phase.1 0 -8 0 8 -262144
-1 -1 1 256;
#X obj 107 240 hradio 15 1 0 3 empty empty wave 0 -7 0 8 -262144 -1
-1 0;
#X obj 107 211 nbx 4 15 -1e+037 1e+037 0 0 empty empty master(hz) 0
-8 0 8 -262144 -1 -1 0 256;
#X obj 306 150 nbx 5 15 0 1 0 0 empty empty floor 0 -8 0 8 -262144
-1 -1 0 256;
#X obj 306 180 nbx 5 15 1 1e+037 0 0 empty empty range 0 -8 0 8 -262144
-1 -1 1 256;
#X obj 306 210 hradio 15 1 0 3 empty empty mode 0 -7 0 8 -262144 -1
-1 0;
#X obj 302 228 cnv 8 10 8 empty empty man/lfo/env 0 4 0 8 -262144 -1
0;
#X obj 206 150 nbx 5 15 1 1e+037 0 0 empty empty pulse 0 -8 0 8 -262144
-1 -1 1 256;
#X obj 206 180 nbx 5 15 1 1e+037 0 0 empty empty saw 0 -8 0 8 -262144
-1 -1 1 256;
#X text 105 115 Modulator;
#X text 204 115 Tuning;
#X obj 206 210 nbx 5 15 1 1e+037 0 0 empty empty sub 0 -8 0 8 -262144
-1 -1 1 256;
#X obj 373 150 hsl 39 15 0 1 0 0 empty empty pulse -2 -8 0 8 -262144
-1 -1 0 0;
#X obj 206 240 nbx 5 15 0 1 0 0 empty empty mod----> 0 -8 0 8 -262144
-1 -1 0 256;
#X obj 258 152 vsl 30 100 0 1 0 0 empty empty mod 0 -10 0 8 -262144
-1 -1 0 0;
#X msg 206 89 set \$1;
#X text 370 115 Mixer;
#X obj 108 257 cnv 8 10 8 empty empty tr/pu/ran 0 4 0 8 -262144 -1
0;
#X obj 470 150 nbx 6 15 1 1e+037 0 0 empty empty frequency 0 -8 0 8
-262144 -1 -1 1 256;
#X obj 470 180 nbx 6 15 1 1e+037 0 0 empty empty resonance 0 -8 0 8
-262144 -1 -1 1 256;
#X text 304 115 PWM;
#X obj 414 150 nbx 4 15 0 1 0 0 empty empty empty 0 -8 0 8 -262144
-1 -1 0 256;
#X obj 373 180 hsl 39 15 0 1 0 0 empty empty saw -2 -8 0 8 -262144
-1 -1 0 0;
#X obj 414 180 nbx 4 15 0 1 0 0 empty empty empty 0 -8 0 8 -262144
-1 -1 0 256;
#X obj 373 210 hsl 39 15 0 1 0 0 empty empty sub -2 -8 0 8 -262144
-1 -1 0 0;
#X obj 414 210 nbx 4 15 0 1 0 0 empty empty empty 0 -8 0 8 -262144
-1 -1 0 256;
#X obj 373 240 hsl 39 15 0 1 0 0 empty empty noise -2 -8 0 8 -262144
-1 -1 0 0;
#X obj 414 240 nbx 4 15 0 1 0 0 empty empty empty 0 -8 0 8 -262144
-1 -1 0 256;
#X msg 414 92 set \$1;
#X msg 414 72 set \$1;
#X msg 414 52 set \$1;
#X msg 414 32 set \$1;
#X text 468 115 Filter;
#X obj 470 210 nbx 6 15 1 1e+037 0 0 empty empty envelope 0 -8 0 8
-262144 -1 -1 1 256;
#X obj 470 240 nbx 6 15 1 1e+037 0 0 empty empty mod 0 -8 0 8 -262144
-1 -1 1 256;
#X obj 107 286 nbx 6 15 1 1e+037 0 0 empty empty attack 0 -8 0 8 -262144
-1 -1 1 256;
#X obj 169 286 nbx 6 15 1 1e+037 0 0 empty empty decay 0 -8 0 8 -262144
-1 -1 1 256;
#X obj 231 286 nbx 6 15 1 1e+037 0 0 empty empty sustain 0 -8 0 8 -262144
-1 -1 1 256;
#X obj 293 286 nbx 6 15 1 1e+037 0 0 empty empty release 0 -8 0 8 -262144
-1 -1 1 256;
#X connect 2 0 12 0;
#X connect 3 0 2 0;
#X connect 3 0 12 1;
#X connect 5 0 2 1;
#X connect 6 0 5 0;
#X connect 7 0 8 0;
#X connect 8 0 3 0;
#X connect 9 0 7 0;
#X connect 10 0 12 2;
#X connect 12 0 1 0;
#X connect 12 0 1 1;
#X connect 12 0 4 0;
#X connect 30 0 46 0;
#X connect 31 0 32 0;
#X connect 32 0 33 0;
#X connect 33 0 31 0;
#X connect 39 0 30 0;
#X connect 40 0 47 0;
#X connect 41 0 40 0;
#X connect 42 0 48 0;
#X connect 43 0 42 0;
#X connect 44 0 49 0;
#X connect 45 0 44 0;
#X connect 46 0 39 0;
#X connect 47 0 41 0;
#X connect 48 0 43 0;
#X connect 49 0 45 0;
#X coords 0 -1 1 1 430 210 1 100 100;
