#N canvas 204 207 497 460 10;
#X obj 69 68 inlet~;
#X obj 123 68 inlet~;
#X obj 69 353 outlet~;
#X obj 109 261 abs~;
#X obj 69 320 cos~;
#X obj 69 278 -~;
#X obj 109 219 *~;
#X obj 109 240 -~;
#X obj 146 223 /~ 2;
#X obj 197 68 loadbang;
#X obj 197 89 f \$1;
#X obj 197 110 sel 0;
#X msg 197 143 64;
#X obj 123 180 clip~ 0 64;
#X obj 123 159 *~ 64;
#X connect 0 0 5 0;
#X connect 0 0 6 0;
#X connect 1 0 14 0;
#X connect 3 0 5 1;
#X connect 4 0 2 0;
#X connect 5 0 4 0;
#X connect 6 0 7 0;
#X connect 7 0 3 0;
#X connect 8 0 7 1;
#X connect 9 0 10 0;
#X connect 10 0 11 0;
#X connect 11 0 12 0;
#X connect 11 1 13 2;
#X connect 11 1 14 1;
#X connect 12 0 13 2;
#X connect 12 0 14 1;
#X connect 13 0 6 1;
#X connect 13 0 8 0;
#X connect 14 0 13 0;
