#N canvas 70 336 795 606 10;
#X obj 405 93 expr~ atan(1) * 4;
#X obj 226 135 clip~ 0 1;
#X obj 226 114 sig~ \$1;
#X obj 48 210 outlet~;
#X obj 47 77 inlet~ fwd;
#X obj 48 177 expr~ (1 - 2 * acos((1 - $v2) * sin(2 * $v3 * $v1)) /
$v3) * (1 + $v2 * $v3);
#X obj 226 156 *~ 0.2;
#X obj 226 93 route roundness;
#X connect 0 0 5 2;
#X connect 1 0 6 0;
#X connect 2 0 1 0;
#X connect 4 0 5 0;
#X connect 4 1 7 0;
#X connect 5 0 3 0;
#X connect 6 0 5 1;
#X connect 7 0 2 0;
