#N canvas 675 187 1136 729 10;
#X obj 51 474 *~;
#X obj 51 516 *~ 2048;
#X obj 97 239 r \$0-sampleRate;
#X obj 112 344 max~ 1;
#X obj 97 365 /~;
#X obj 97 260 sig~;
#X obj 112 323 abs~;
#N canvas 737 141 747 675 \$0-splice.gen 0;
#X obj 124 197 samplerate~;
#X obj 124 176 t b b;
#X obj 124 278 /;
#X obj 151 383 phasor~;
#X obj 124 299 t f f;
#X obj 124 320 /;
#X obj 124 258 t f f;
#X obj 124 341 * -1;
#X obj 200 421 cos~;
#X obj 152 421 cos~;
#X obj 200 400 *~ 3;
#X msg 124 362 bang;
#X obj 131 237 s \$0-sampleRate;
#X obj 152 468 tabwrite~ \$0-splice;
#X obj 151 217 array size \$0-splice;
#X obj 124 140 inlet;
#X obj 152 442 *~ 1;
#X obj 200 442 *~ -0.33333;
#X obj 124 489 switch~ 2048;
#X msg 283 192 \; pd dsp 1;
#X obj 200 317 array define \$0-splice 2048;
#X connect 0 0 6 0;
#X connect 0 0 12 0;
#X connect 1 0 0 0;
#X connect 1 1 14 0;
#X connect 1 1 19 0;
#X connect 2 0 4 0;
#X connect 3 0 9 0;
#X connect 3 0 10 0;
#X connect 4 0 5 0;
#X connect 4 1 3 0;
#X connect 5 0 7 0;
#X connect 6 0 2 0;
#X connect 6 1 5 1;
#X connect 7 0 3 1;
#X connect 7 0 11 0;
#X connect 8 0 17 0;
#X connect 9 0 16 0;
#X connect 10 0 8 0;
#X connect 11 0 13 0;
#X connect 11 0 18 0;
#X connect 14 0 2 1;
#X connect 15 0 1 0;
#X connect 16 0 13 0;
#X connect 17 0 13 0;
#X restore 263 198 pd \$0-splice.gen;
#X obj 51 537 tabread4~ \$0-splice;
#X obj 263 178 bng 15 250 50 0 empty empty empty 17 7 0 10 -262144
-1 -1;
#X obj 51 110 inlet~ fwd;
#X obj 51 131 s~ \$0-phase;
#X obj 51 157 r~ \$0-phase;
#X obj 145 110 inlet~;
#X obj 263 157 loadbang;
#X obj 145 131 s~ \$0-splice.band;
#X obj 112 302 r~ \$0-splice.band;
#X obj 51 432 abs~;
#X obj 51 390 *~ 2;
#X obj 51 411 -~ 1;
#X obj 51 558 outlet~;
#X obj 97 281 *~ 0.125;
#X obj 51 495 clip~ -0.5 0.5;
#X obj 263 110 inlet~;
#X obj 263 131 s~ \$0-pwm;
#X obj 158 415 r~ \$0-pwm;
#X obj 51 453 -~;
#X msg 263 89 0.5;
#X obj 158 436 clip~ 0.05 0.95;
#X connect 0 0 22 0;
#X connect 1 0 8 0;
#X connect 2 0 5 0;
#X connect 3 0 4 1;
#X connect 4 0 0 1;
#X connect 5 0 21 0;
#X connect 6 0 3 0;
#X connect 8 0 20 0;
#X connect 9 0 7 0;
#X connect 9 0 27 0;
#X connect 10 0 11 0;
#X connect 12 0 18 0;
#X connect 13 0 15 0;
#X connect 14 0 9 0;
#X connect 16 0 6 0;
#X connect 17 0 26 0;
#X connect 18 0 19 0;
#X connect 19 0 17 0;
#X connect 21 0 4 0;
#X connect 22 0 1 0;
#X connect 23 0 24 0;
#X connect 25 0 28 0;
#X connect 26 0 0 0;
#X connect 27 0 23 0;
#X connect 28 0 26 1;
