#N canvas 755 147 1059 693 10;
#X obj 53 380 *~;
#X obj 53 432 *~ 2048;
#X obj 53 495 -~;
#X obj 103 237 r \$0-sampleRate;
#X obj 118 342 max~ 1;
#X obj 103 363 /~;
#X obj 103 258 sig~;
#X obj 118 321 abs~;
#X obj 53 453 +~ 1026;
#N canvas -941 183 747 675 \$0-splice.gen 0;
#X obj 124 227 samplerate~;
#X obj 124 206 t b b;
#X obj 124 308 /;
#X obj 124 329 * 0.5;
#X obj 151 434 phasor~;
#X obj 124 350 t f f;
#X obj 124 371 /;
#X obj 124 288 t f f;
#X obj 124 392 * -1;
#X obj 200 472 cos~;
#X obj 152 472 cos~;
#X obj 200 451 *~ 3;
#X obj 200 493 *~ 0.33333;
#X obj 152 493 *~ -1;
#X msg 124 413 bang;
#X obj 131 267 s \$0-sampleRate;
#X obj 152 519 tabwrite~ \$0-splice;
#X obj 151 247 array size \$0-splice;
#X msg 283 222 \; pd dsp 1;
#X obj 124 140 loadbang;
#X obj 182 140 r \$0-init;
#X connect 0 0 7 0;
#X connect 0 0 15 0;
#X connect 1 0 0 0;
#X connect 1 1 17 0;
#X connect 1 1 18 0;
#X connect 2 0 3 0;
#X connect 3 0 5 0;
#X connect 4 0 10 0;
#X connect 4 0 11 0;
#X connect 5 0 6 0;
#X connect 5 1 4 0;
#X connect 6 0 8 0;
#X connect 7 0 2 0;
#X connect 7 1 6 1;
#X connect 8 0 4 1;
#X connect 8 0 14 0;
#X connect 9 0 12 0;
#X connect 10 0 13 0;
#X connect 11 0 9 0;
#X connect 12 0 16 0;
#X connect 13 0 16 0;
#X connect 14 0 16 0;
#X connect 17 0 2 1;
#X connect 19 0 1 0;
#X connect 20 0 1 0;
#X restore 269 218 pd \$0-splice.gen;
#X obj 269 244 array define \$0-splice 2048;
#X obj 53 474 tabread4~ \$0-splice;
#X obj 269 138 bng 15 250 50 0 empty empty empty 17 7 0 10 -262144
-1 -1;
#X obj 53 531 outlet~;
#X obj 53 40 inlet~ fwd;
#X obj 53 61 s~ \$0-phase;
#X obj 53 117 r~ \$0-phase;
#X obj 147 40 inlet~;
#X obj 103 279 *~ 0.125;
#X obj 269 117 loadbang;
#X obj 69 176 expr~ ($v1 * 1.33334) - 0.66667 \;;
#X obj 147 61 s~ \$0-splice.band;
#X obj 118 300 r~ \$0-splice.band;
#X obj 269 158 s \$0-init;
#X obj 53 412 clip~ -0.5 0.5;
#X obj 53 321 -~ 0.5;
#X obj 53 144 wrap~;
#X connect 0 0 24 0;
#X connect 1 0 8 0;
#X connect 2 0 13 0;
#X connect 3 0 6 0;
#X connect 4 0 5 1;
#X connect 5 0 0 1;
#X connect 6 0 18 0;
#X connect 7 0 4 0;
#X connect 8 0 11 0;
#X connect 11 0 2 0;
#X connect 12 0 23 0;
#X connect 14 0 15 0;
#X connect 16 0 26 0;
#X connect 17 0 21 0;
#X connect 18 0 5 0;
#X connect 19 0 12 0;
#X connect 20 0 2 1;
#X connect 22 0 7 0;
#X connect 24 0 1 0;
#X connect 25 0 0 0;
#X connect 26 0 20 0;
#X connect 26 0 25 0;
