#N canvas -8 -8 1920 1007 10;
#X obj 900 364 bin/reflection \$0-in0 1.42763 0.75, f 35;
#X obj 900 394 bin/reflection \$0-in1 3.23873 0.75, f 35;
#X obj 900 424 bin/reflection \$0-in2 5.2345 0.625, f 35;
#X obj 900 455 bin/reflection \$0-in3 7.82312 0.625;
#X obj 240 466 s~ \$0-decay;
#N canvas 190 49 683 741 \$0-tank 1;
#X obj 37 37 inlet~;
#X obj 317 37 inlet~;
#X obj 317 88 bin/allpass_mod \$0-d1.ap 2.58 0.7, f 26;
#X obj 37 140 delread~ \$0-l.d 141.69;
#X obj 37 88 bin/allpass_mod \$0-l.modap 30.51 0.7, f 26;
#X obj 37 182 bin/allpass \$0-l.ap 89.24 0.5;
#X obj 317 141 delread~ \$0-r.d 149.62;
#N canvas 0 50 450 300 \$0-lop 0;
#X obj 37 37 inlet~;
#X obj 36 142 rpole~;
#X obj 36 121 *~;
#X obj 51 79 -~ 1;
#X obj 51 100 *~ -1;
#X obj 36 163 outlet~;
#X obj 51 58 r~ \$0-damp;
#X connect 0 0 2 0;
#X connect 1 0 5 0;
#X connect 2 0 1 0;
#X connect 3 0 4 0;
#X connect 4 0 2 1;
#X connect 6 0 3 0;
#X connect 6 0 1 1;
#X restore 37 161 pd \$0-lop;
#N canvas 0 50 450 300 \$0-lop 0;
#X obj 37 37 inlet~;
#X obj 36 142 rpole~;
#X obj 36 121 *~;
#X obj 51 79 -~ 1;
#X obj 51 100 *~ -1;
#X obj 36 163 outlet~;
#X obj 51 58 r~ \$0-damp;
#X connect 0 0 2 0;
#X connect 1 0 5 0;
#X connect 2 0 1 0;
#X connect 3 0 4 0;
#X connect 4 0 2 1;
#X connect 6 0 3 0;
#X connect 6 0 1 1;
#X restore 317 161 pd \$0-lop;
#X obj 317 183 bin/allpass \$0-r.ap 60.48 0.5;
#X obj 219 181 r~ \$0-decay;
#X obj 37 376 +~;
#X obj 37 325 delread~ \$0-l.d 8.9;
#X obj 52 349 delread~ \$0-l.d 99.8;
#X obj 37 119 delwrite~ \$0-l.d 141.69;
#X obj 317 120 delwrite~ \$0-r.d 149.62;
#X obj 37 417 -~;
#X obj 52 396 delread~ \$0-l.ap 64.2;
#X obj 37 458 +~;
#X obj 52 437 delread~ \$0-l.fb 67;
#X obj 317 293 delwrite~ \$0-r.fb 125;
#X obj 317 376 +~;
#X obj 317 417 -~;
#X obj 317 458 +~;
#X obj 317 325 delread~ \$0-r.d 11.8;
#X obj 332 349 delread~ \$0-r.d 121.7;
#X obj 332 396 delread~ \$0-r.ap 41.2;
#X obj 332 437 delread~ \$0-r.fb 89.7;
#X obj 37 546 -~;
#X obj 52 525 delread~ \$0-r.d 66.8;
#X obj 37 587 -~;
#X obj 52 566 delread~ \$0-r.fb 35.8;
#X obj 317 550 -~;
#X obj 317 591 -~;
#X obj 332 529 delread~ \$0-l.d 70.8;
#X obj 37 505 -~;
#X obj 52 479 delread~ \$0-r.ap 6.3;
#X obj 317 505 -~;
#X obj 332 479 delread~ \$0-l.ap 11.2;
#X obj 37 648 outlet~;
#X obj 317 652 outlet~;
#X obj 37 68 +~;
#X obj 317 68 +~;
#X obj 332 570 delread~ \$0-l.fb 35.8;
#X obj 37 293 delwrite~ \$0-l.fb 106.28;
#X obj 37 628 hip~ 20;
#X obj 317 632 hip~ 20;
#X obj 499 182 r~ \$0-decay;
#N canvas 0 50 450 300 \$0-r.fb 0;
#X obj 37 54 delread~ \$0-r.fb 125;
#X obj 38 169 expr~ cos($v3 * halfpi\$0) * $v1 \; sin($v3 * halfpi\$0)
* $v2;
#X obj 227 131 r~ \$0-shimmer;
#X obj 132 112 bin/pitchshift \$0-l.ps 2500.02;
#X obj 38 231 outlet~;
#X obj 38 201 +~;
#X connect 0 0 3 0;
#X connect 0 0 1 0;
#X connect 1 0 5 0;
#X connect 1 1 5 1;
#X connect 2 0 1 2;
#X connect 3 0 1 1;
#X connect 5 0 4 0;
#X restore 82 51 pd \$0-r.fb;
#N canvas 0 50 450 300 \$0-l.fb 0;
#X obj 38 169 expr~ cos($v3 * halfpi\$0) * $v1 \; sin($v3 * halfpi\$0)
* $v2;
#X obj 227 131 r~ \$0-shimmer;
#X obj 38 221 outlet~;
#X obj 132 112 bin/pitchshift \$0-r.ps 2499.7;
#X obj 37 54 delread~ \$0-l.fb 106.28;
#X obj 38 201 +~;
#X connect 0 0 5 0;
#X connect 0 1 5 1;
#X connect 1 0 0 2;
#X connect 3 0 0 1;
#X connect 4 0 0 0;
#X connect 4 0 3 0;
#X connect 5 0 2 0;
#X restore 362 51 pd \$0-l.fb;
#N canvas 502 316 309 249 \$0-excursion 0;
#X obj 80 59 noise~;
#X obj 80 122 outlet~;
#X obj 80 101 osc~;
#X obj 80 80 *~ 20;
#X connect 0 0 3 0;
#X connect 2 0 1 0;
#X connect 3 0 2 0;
#X restore 190 51 pd \$0-excursion;
#N canvas 502 316 309 249 \$0-excursion 0;
#X obj 80 59 noise~;
#X obj 80 122 outlet~;
#X obj 80 101 osc~;
#X obj 80 80 *~ 20;
#X connect 0 0 3 0;
#X connect 2 0 1 0;
#X connect 3 0 2 0;
#X restore 470 51 pd \$0-excursion;
#X obj 37 245 hip~ 20;
#X obj 317 245 hip~ 20;
#X obj 37 224 expr~ tanh($v1) * 2 * $v2;
#X obj 317 224 expr~ tanh($v1) * 2 * $v2;
#X connect 0 0 41 0;
#X connect 1 0 42 0;
#X connect 2 0 15 0;
#X connect 3 0 7 0;
#X connect 4 0 14 0;
#X connect 5 0 54 0;
#X connect 6 0 8 0;
#X connect 7 0 5 0;
#X connect 8 0 9 0;
#X connect 9 0 55 0;
#X connect 10 0 54 1;
#X connect 11 0 16 0;
#X connect 12 0 11 0;
#X connect 13 0 11 1;
#X connect 16 0 18 0;
#X connect 17 0 16 1;
#X connect 18 0 35 0;
#X connect 19 0 18 1;
#X connect 21 0 22 0;
#X connect 22 0 23 0;
#X connect 23 0 37 0;
#X connect 24 0 21 0;
#X connect 25 0 21 1;
#X connect 26 0 22 1;
#X connect 27 0 23 1;
#X connect 28 0 30 0;
#X connect 29 0 28 1;
#X connect 30 0 45 0;
#X connect 31 0 30 1;
#X connect 32 0 33 0;
#X connect 33 0 46 0;
#X connect 34 0 32 1;
#X connect 35 0 28 0;
#X connect 36 0 35 1;
#X connect 37 0 32 0;
#X connect 38 0 37 1;
#X connect 41 0 4 0;
#X connect 42 0 2 0;
#X connect 43 0 33 1;
#X connect 45 0 39 0;
#X connect 46 0 40 0;
#X connect 47 0 55 1;
#X connect 48 0 41 1;
#X connect 49 0 42 1;
#X connect 50 0 4 1;
#X connect 51 0 2 1;
#X connect 52 0 44 0;
#X connect 53 0 20 0;
#X connect 54 0 52 0;
#X connect 55 0 53 0;
#X restore 900 517 pd \$0-tank;
#X f 35;
#X obj 100 576 clip~ 0 1;
#X obj 900 486 *~ 0.125;
#X obj 1107 486 *~ 0.125;
#N canvas 0 50 450 300 \$0-lop 0;
#X obj 37 37 inlet~;
#X obj 36 142 rpole~;
#X obj 36 121 *~;
#X obj 51 79 -~ 1;
#X obj 51 100 *~ -1;
#X obj 36 163 outlet~;
#X obj 51 58 r~ \$0-bandwidth;
#X connect 0 0 2 0;
#X connect 1 0 5 0;
#X connect 2 0 1 0;
#X connect 3 0 4 0;
#X connect 4 0 2 1;
#X connect 6 0 3 0;
#X connect 6 0 1 1;
#X restore 899 323 pd \$0-lop;
#N canvas 0 50 450 300 \$0-lop 0;
#X obj 37 37 inlet~;
#X obj 36 142 rpole~;
#X obj 36 121 *~;
#X obj 51 79 -~ 1;
#X obj 51 100 *~ -1;
#X obj 36 163 outlet~;
#X obj 51 58 r~ \$0-bandwidth;
#X connect 0 0 2 0;
#X connect 1 0 5 0;
#X connect 2 0 1 0;
#X connect 3 0 4 0;
#X connect 4 0 2 1;
#X connect 6 0 3 0;
#X connect 6 0 1 1;
#X restore 1106 323 pd \$0-lop;
#X obj 100 446 s~ \$0-bandwidth;
#X obj 100 404 clip~ 0 1;
#N canvas 0 50 450 300 \$0-predelay 0;
#X obj 37 37 inlet~;
#X obj 37 98 delwrite~ \$0-l.p 5000;
#X obj 37 260 outlet~;
#X obj 207 37 inlet~;
#X obj 207 260 outlet~;
#X obj 37 143 r~ \$0-predelay;
#X obj 207 98 delwrite~ \$0-r.p 5000;
#X obj 37 199 vd~ \$0-r.p;
#X obj 207 198 vd~ \$0-l.p;
#X connect 0 0 1 0;
#X connect 3 0 6 0;
#X connect 5 0 7 0;
#X connect 5 0 8 0;
#X connect 7 0 2 0;
#X connect 8 0 4 0;
#X restore 899 297 pd \$0-predelay;
#X f 35;
#X obj 240 748 s~ \$0-predelay;
#X obj 240 616 s~ \$0-shimmer;
#X obj 240 575 clip~ 0 1;
#X obj 240 444 clip~ 0 1;
#X obj 260 155 nbx 5 15 0 1 0 0 \$0-bandwidth.num \$0-bandwidth.num.in
empty 0 -8 0 8 -257985 -1 -1 0.355705 256;
#X obj 108 155 hsl 150 15 0 1 0 0 \$0-bandwidth \$0-bandwidth.in bandwidth
0 8 0 8 -262144 -1 -1 5300 0;
#X obj 260 195 nbx 5 15 0 1 0 0 \$0-shimmer.num \$0-shimmer.num.in
empty 0 -8 0 8 -257985 -1 -1 0.892617 256;
#X obj 260 235 nbx 5 15 0 1 0 0 \$0-decay \$0-decay.num.in empty 0
-8 0 8 -257985 -1 -1 1 256;
#X obj 260 255 nbx 5 15 0 1 0 0 \$0-mix.num \$0-mix.num.in empty 0
-8 0 8 -257985 -1 -1 0.308725 256;
#X obj 434 104 bng 15 250 50 0 empty empty empty 17 7 0 10 -262144
-1 -1;
#X obj 434 145 v halfpi\$0;
#X obj 434 124 expr atan(1) * 2;
#X obj 899 210 s~ \$0-l.dry;
#X obj 1107 159 inlet~;
#X obj 1107 210 s~ \$0-r.dry;
#X obj 899 236 r~ \$0-l.dry;
#X obj 1107 236 r~ \$0-r.dry;
#X obj 790 585 r~ \$0-l.dry;
#X obj 993 585 r~ \$0-r.dry;
#X obj 804 549 expr~ cos($v1 * halfpi\$0) \; sin($v1 * halfpi\$0) \;
;
#X obj 790 616 *~;
#X obj 993 616 *~;
#X obj 900 620 *~;
#X obj 1107 620 *~;
#X obj 804 518 r~ \$0-mix;
#X obj 100 747 clip~ 0 1;
#X obj 100 768 s~ \$0-mix;
#X obj 790 647 +~;
#X obj 993 647 +~;
#X obj 205 130 nbx 5 15 0 5000 0 0 \$0-predelay \$0-predelay.in predelay
0 -8 0 8 -257985 -1 -1 89 256;
#X obj 108 195 hsl 150 15 0 1 0 0 \$0-shimmer \$0-shimmer.in shimmer
0 8 0 8 -262144 -1 -1 13300 0;
#X obj 108 235 hsl 150 15 0 1 0 0 \$0-decay \$0-decay.in decay 2 8
0 8 -262144 -1 -1 14900 0;
#X obj 108 255 hsl 150 15 0 1 0 0 \$0-mix \$0-mix.in mix 2 8 0 8 -262144
-1 -1 4600 0;
#X obj 105 130 nbx 5 15 0 2 0 0 \$0-gain \$0-gain.in gain 0 -8 0 8
-257985 -1 -1 0.5 256;
#X obj 380 424 s~ \$0-gain;
#X obj 380 403 clip~ 0 2;
#X obj 1107 267 *~;
#X obj 899 267 *~;
#X obj 1208 250 r~ \$0-gain;
#X obj 376 54 loadbang;
#X obj 260 215 nbx 5 15 0 1 0 0 \$0-damp.num \$0-damp.num.in empty
0 -8 0 8 -257985 -1 -1 0.0939597 256;
#X obj 108 215 hsl 150 15 0 1 0 0 \$0-damp \$0-damp.in damp 0 8 0 8
-262144 -1 -1 1400 0;
#X obj 100 618 s~ \$0-damp;
#X obj 155 130 nbx 5 15 0 2 0 0 \$0-level \$0-level.in level 0 -8 0
8 -257985 -1 -1 1 256;
#X obj 376 104 bng 15 250 50 0 empty empty empty 17 7 0 10 -262144
-1 -1;
#X obj 376 145 f \$0;
#X obj 105 285 nbx 5 15 0 1e+037 0 0 \$0-inertia \$0-inertia.in inertia
0 -8 0 8 -257985 -1 -1 20 256;
#X obj 100 320 r \$0-bandwidth;
#X obj 240 662 r \$0-predelay;
#X obj 240 320 r \$0-decay;
#X obj 100 492 r \$0-damp;
#X obj 240 492 r \$0-shimmer;
#X obj 100 664 r \$0-mix;
#X obj 380 320 r \$0-gain;
#X obj 100 362 pack f f;
#X obj 145 341 r \$0-inertia;
#X obj 240 706 pack f f;
#X obj 285 684 r \$0-inertia;
#X obj 240 362 pack f f;
#X obj 285 341 r \$0-inertia;
#X obj 100 534 pack f f;
#X obj 145 513 r \$0-inertia;
#X obj 240 533 pack f f;
#X obj 285 512 r \$0-inertia;
#X obj 100 705 pack f f;
#X obj 145 684 r \$0-inertia;
#X obj 380 361 pack f f;
#X obj 425 340 r \$0-inertia;
#X obj 100 383 line~;
#X obj 240 727 line~;
#X obj 240 383 line~;
#X obj 100 555 line~;
#X obj 240 554 line~;
#X obj 100 726 line~;
#X obj 380 382 line~;
#X obj 380 575 clip~ 0 2;
#X obj 380 554 line~;
#X obj 380 596 s~ \$0-level;
#X obj 380 533 pack f f;
#X obj 425 512 r \$0-inertia;
#X obj 380 492 r \$0-level;
#X obj 100 425 expr~ 1 - $v1;
#X obj 100 597 expr~ 1 - $v1;
#X obj 790 678 *~;
#X obj 993 678 *~;
#X obj 1044 661 r~ \$0-level;
#X obj 790 699 outlet~;
#X obj 993 699 outlet~;
#X msg 315 239 set \$1;
#X msg 315 219 set \$1;
#X msg 315 199 set \$1;
#X msg 315 179 set \$1;
#X msg 315 159 set \$1;
#X obj 380 747 clip~ 0 1;
#X obj 380 705 pack f f;
#X obj 425 684 r \$0-inertia;
#X obj 380 726 line~;
#X obj 380 662 r \$0-diffuse;
#X obj 260 175 nbx 5 15 0 1 0 0 \$0-shimmer.num \$0-shimmer.num.in
empty 0 -8 0 8 -257985 -1 -1 0 256;
#X obj 108 175 hsl 150 15 0 1 0 0 \$0-diffuse \$0-diffuse.in diffuse
0 8 0 8 -262144 -1 -1 0 0;
#X obj 380 800 s~ \$0-diffuse.0;
#X obj 568 800 s~ \$0-diffuse.1;
#X obj 380 768 expr~ cos($v1 * (halfpi\$0 / 2)) \; sin($v1 * (halfpi\$0
/ 2));
#X obj 1136 407 r~ \$0-diffuse.1;
#X obj 1136 347 r~ \$0-diffuse.0;
#X msg 315 139 set \$1;
#X obj 899 159 inlet~ fwd;
#X obj 956 187 s \$0-controls;
#X obj 528 320 r \$0-controls;
#X obj 528 341 list split 1;
#X obj 528 362 makefilename \$0-%s.in;
#X obj 528 383 t b s;
#X obj 528 404 list;
#X obj 528 425 unpack f f;
#X obj 528 446 s;
#X obj 585 446 s \$0-inertia.in;
#X obj 240 404 *~;
#X msg 376 165 \; \$1-gain.in 0.5 \; \$1-level.in 1 \; \$1-predelay.in
89 \; \$1-bandwidth.in 1 \; \$1-diffuse.in 1 \; \$1-shimmer.in 0.2
\; \$1-damp.in 0.7 \; \$1-decay.in 0.5 \; \$1-mix.in 0.5 \; \$1-inertia.in
20 \;;
#X obj 240 596 *~;
#X obj 240 425 *~;
#X connect 0 0 1 0;
#X connect 0 1 1 1;
#X connect 1 0 2 0;
#X connect 1 1 2 1;
#X connect 2 0 3 0;
#X connect 2 1 3 1;
#X connect 3 0 7 0;
#X connect 3 1 8 0;
#X connect 5 0 36 0;
#X connect 5 1 37 0;
#X connect 6 0 96 0;
#X connect 7 0 5 0;
#X connect 8 0 5 1;
#X connect 9 0 0 0;
#X connect 10 0 0 1;
#X connect 12 0 95 0;
#X connect 13 0 9 0;
#X connect 13 1 10 0;
#X connect 16 0 132 0;
#X connect 16 0 132 1;
#X connect 17 0 4 0;
#X connect 18 0 19 0;
#X connect 19 0 119 0;
#X connect 20 0 44 0;
#X connect 21 0 45 0;
#X connect 22 0 46 0;
#X connect 23 0 25 0;
#X connect 25 0 24 0;
#X connect 27 0 28 0;
#X connect 29 0 51 0;
#X connect 30 0 50 0;
#X connect 31 0 34 0;
#X connect 32 0 35 0;
#X connect 33 0 34 1;
#X connect 33 0 35 1;
#X connect 33 1 36 1;
#X connect 33 1 37 1;
#X connect 34 0 41 0;
#X connect 35 0 42 0;
#X connect 36 0 41 1;
#X connect 37 0 42 1;
#X connect 38 0 33 0;
#X connect 39 0 40 0;
#X connect 41 0 97 0;
#X connect 42 0 98 0;
#X connect 44 0 105 0;
#X connect 45 0 103 0;
#X connect 46 0 102 0;
#X connect 49 0 48 0;
#X connect 50 0 13 1;
#X connect 51 0 13 0;
#X connect 52 0 50 1;
#X connect 52 0 51 1;
#X connect 53 0 58 0;
#X connect 53 0 23 0;
#X connect 54 0 55 0;
#X connect 55 0 104 0;
#X connect 58 0 59 0;
#X connect 59 0 131 0;
#X connect 61 0 68 0;
#X connect 62 0 70 0;
#X connect 63 0 72 0;
#X connect 64 0 74 0;
#X connect 65 0 76 0;
#X connect 66 0 78 0;
#X connect 67 0 80 0;
#X connect 68 0 82 0;
#X connect 69 0 68 1;
#X connect 70 0 83 0;
#X connect 71 0 70 1;
#X connect 72 0 84 0;
#X connect 73 0 72 1;
#X connect 74 0 85 0;
#X connect 75 0 74 1;
#X connect 76 0 86 0;
#X connect 77 0 76 1;
#X connect 78 0 87 0;
#X connect 79 0 78 1;
#X connect 80 0 88 0;
#X connect 81 0 80 1;
#X connect 82 0 12 0;
#X connect 83 0 14 0;
#X connect 84 0 130 0;
#X connect 84 0 130 1;
#X connect 85 0 6 0;
#X connect 86 0 16 0;
#X connect 87 0 39 0;
#X connect 88 0 49 0;
#X connect 89 0 91 0;
#X connect 90 0 89 0;
#X connect 92 0 90 0;
#X connect 93 0 92 1;
#X connect 94 0 92 0;
#X connect 95 0 11 0;
#X connect 96 0 56 0;
#X connect 97 0 100 0;
#X connect 98 0 101 0;
#X connect 99 0 98 1;
#X connect 99 0 97 1;
#X connect 102 0 22 0;
#X connect 103 0 21 0;
#X connect 104 0 54 0;
#X connect 105 0 20 0;
#X connect 106 0 112 0;
#X connect 107 0 116 0;
#X connect 108 0 110 0;
#X connect 109 0 108 1;
#X connect 110 0 107 0;
#X connect 111 0 108 0;
#X connect 112 0 113 0;
#X connect 113 0 106 0;
#X connect 116 0 114 0;
#X connect 116 1 115 0;
#X connect 117 0 2 2;
#X connect 117 0 3 2;
#X connect 118 0 0 2;
#X connect 118 0 1 2;
#X connect 119 0 18 0;
#X connect 120 0 26 0;
#X connect 120 1 121 0;
#X connect 122 0 123 0;
#X connect 123 0 124 0;
#X connect 123 1 126 1;
#X connect 124 0 125 0;
#X connect 125 0 126 0;
#X connect 125 1 128 1;
#X connect 126 0 127 0;
#X connect 127 0 128 0;
#X connect 127 1 129 0;
#X connect 130 0 133 0;
#X connect 130 0 133 1;
#X connect 132 0 15 0;
#X connect 133 0 17 0;
#X coords 0 -1 1 1 210 210 1 100 100;
