#N canvas 38 49 1790 914 10;
#X obj 105 130 nbx 5 15 -1e+037 1e+037 0 0 \$0-decay \$0-decay.in decay
0 -8 0 8 -257985 -1 -1 140 256;
#X obj 105 160 nbx 5 15 0.01 1e+037 0 0 \$0-tune \$0-tune.in tune 0
-8 0 8 -257985 -1 -1 10 256;
#X obj 165 165 bng 30 250 50 0 \$0 \$0ads empty 17 7 0 10 -257985 -1
-1;
#X obj 415 443 vline~;
#X obj 358 576 *~;
#X obj 358 551 cos~;
#X obj 357 527 *~;
#X obj 357 504 *~;
#X obj 373 360 t f f;
#X obj 358 480 *~;
#X msg 415 421 1 0 0 \, 0 \$1 0;
#X obj 357 603 outlet~;
#X obj 373 126 inlet;
#X obj 373 323 f 140;
#X obj 373 284 t b f;
#X obj 227 307 r \$0-decay;
#X obj 445 239 r \$0-tune;
#X obj 698 175 loadbang;
#X obj 698 216 f \$0;
#X obj 698 196 bng 15 250 50 0 empty empty empty 17 7 0 10 -262144
-1 -1;
#X obj 373 239 unpack f f;
#X obj 415 504 *~;
#X obj 166 166 cnv 15 28 28 empty \$0-led Hit 8 14 0 8 -262017 -1 0
;
#X obj 400 168 del;
#X obj 415 125 r \$0-decay;
#X obj 400 219 s \$0-led;
#X msg 400 189 color #fffa00 0 22;
#X msg 519 189 color 13 0 0;
#X msg 373 93 440 1;
#X obj 373 386 /;
#X obj 430 300 / 6;
#X obj 373 147 t l b;
#X msg 698 236 \; \$1-tune.in 10 \; \$1-decay.in 140;
#X connect 2 0 28 0;
#X connect 3 0 9 0;
#X connect 3 0 6 1;
#X connect 3 0 21 0;
#X connect 4 0 11 0;
#X connect 5 0 4 0;
#X connect 6 0 5 0;
#X connect 7 0 6 0;
#X connect 8 0 29 0;
#X connect 8 1 10 0;
#X connect 9 0 7 1;
#X connect 9 0 7 0;
#X connect 10 0 3 0;
#X connect 12 0 31 0;
#X connect 13 0 8 0;
#X connect 14 0 13 0;
#X connect 14 1 30 0;
#X connect 15 0 13 1;
#X connect 16 0 30 1;
#X connect 17 0 19 0;
#X connect 18 0 32 0;
#X connect 19 0 18 0;
#X connect 20 0 14 0;
#X connect 20 1 21 1;
#X connect 21 0 4 1;
#X connect 23 0 26 0;
#X connect 24 0 23 1;
#X connect 26 0 25 0;
#X connect 27 0 25 0;
#X connect 28 0 31 0;
#X connect 29 0 9 1;
#X connect 30 0 29 1;
#X connect 31 0 20 0;
#X connect 31 1 23 0;
#X connect 31 1 27 0;
#X coords 0 -1 1 1 100 100 1 100 100;
