#N canvas 1012 311 426 304 10;
#X obj 88 34 inlet;
#X obj 88 75 list split 1;
#X obj 88 157 t b s;
#X obj 88 178 f;
#X obj 88 199 s;
#X obj 140 176 outlet;
#X obj 88 96 route symbol float;
#X obj 140 156 list append;
#X msg 167 218 color #fffa00 0 22;
#X msg 286 218 color 13 0 0;
#X obj 88 136 makefilename \$1-%s.in;
#X obj 167 197 del 50;
#X obj 167 238 s \$1-led;
#X obj 140 115 t l b;
#X connect 0 0 1 0;
#X connect 1 0 6 0;
#X connect 1 1 3 1;
#X connect 1 1 7 1;
#X connect 2 0 3 0;
#X connect 2 1 4 1;
#X connect 3 0 4 0;
#X connect 6 0 10 0;
#X connect 6 1 13 0;
#X connect 7 0 5 0;
#X connect 8 0 12 0;
#X connect 9 0 12 0;
#X connect 10 0 2 0;
#X connect 11 0 8 0;
#X connect 13 0 7 0;
#X connect 13 1 11 0;
#X connect 13 1 9 0;
