#N canvas 46 28 450 745 10;
#X obj 65 384 *~;
#X obj 260 367 vline~;
#X obj 65 510 delwrite~ \$0-p 200;
#X obj 218 393 vd~ \$0-p;
#X obj 81 482 expr~ $v2 * $v1;
#X obj 219 424 expr~ tanh($v1);
#X obj 134 317 osc~;
#X msg 191 301 0;
#X obj 260 262 max 1e-006;
#X obj 260 283 swap 1000;
#X obj 260 304 /;
#X obj 191 134 t b f;
#X obj 65 258 *~;
#X obj 248 241 vline~;
#X obj 219 569 outlet~;
#X obj 191 87 unpack f f;
#X obj 191 66 inlet;
#X msg 191 494 clear;
#X msg 248 108 \$1 0 \, 0 0 5;
#X msg 260 346 \$2 0 \, 0 0 \$1;
#X obj 260 325 pack f f;
#X obj 134 368 *~;
#X obj 81 456 r~ \$2-decay;
#X obj 149 347 r~ \$2-sine;
#X obj 65 166 *~;
#X obj 65 112 r~ \$2-noise.out;
#X obj 93 149 r~ \$2-noise;
#X obj 316 465 rpole~;
#X obj 317 441 *~;
#X obj 349 375 clip~ 0 1;
#X obj 349 401 -~ 1;
#X obj 349 424 *~ -1;
#X obj 349 349 r~ \$2-dampen;
#X obj 218 182 max 1e-006;
#X obj 218 203 swap 1000;
#X obj 218 224 /;
#X obj 218 163 * 1;
#X obj 233 134 r \$2-tune;
#X obj 191 108 mtof;
#X connect 0 0 2 0;
#X connect 1 0 0 1;
#X connect 3 0 5 0;
#X connect 4 0 2 0;
#X connect 5 0 14 0;
#X connect 5 0 28 0;
#X connect 6 0 21 0;
#X connect 7 0 6 1;
#X connect 8 0 9 0;
#X connect 9 0 10 0;
#X connect 9 1 10 1;
#X connect 10 0 20 0;
#X connect 11 0 7 0;
#X connect 11 0 17 0;
#X connect 11 1 6 0;
#X connect 11 1 8 0;
#X connect 11 1 36 0;
#X connect 12 0 2 0;
#X connect 13 0 12 1;
#X connect 15 0 38 0;
#X connect 15 1 18 0;
#X connect 15 1 20 1;
#X connect 16 0 15 0;
#X connect 17 0 2 0;
#X connect 18 0 13 0;
#X connect 19 0 1 0;
#X connect 20 0 19 0;
#X connect 21 0 0 0;
#X connect 22 0 4 0;
#X connect 23 0 21 1;
#X connect 24 0 12 0;
#X connect 25 0 24 0;
#X connect 26 0 24 1;
#X connect 27 0 4 1;
#X connect 28 0 27 0;
#X connect 29 0 27 1;
#X connect 29 0 30 0;
#X connect 30 0 31 0;
#X connect 31 0 28 1;
#X connect 32 0 29 0;
#X connect 33 0 34 0;
#X connect 34 0 35 0;
#X connect 34 1 35 1;
#X connect 35 0 3 0;
#X connect 36 0 33 0;
#X connect 37 0 36 1;
#X connect 38 0 11 0;
