#N canvas 1012 311 450 395 10;
#X obj 88 196 makefilename \$1.%s.in;
#X obj 88 34 inlet;
#X obj 88 135 list split 1;
#X obj 88 217 t b s;
#X obj 88 238 f;
#X obj 88 259 s;
#X obj 140 216 outlet;
#X obj 88 156 route symbol float;
#X obj 140 176 list append;
#X obj 88 53 t l b;
#X obj 115 115 s \$1.led;
#X obj 115 74 del;
#X msg 115 95 color #fffa00 0 22;
#X msg 234 95 color 13 0 0;
#X obj 130 34 r \$1.decay;
#X connect 0 0 3 0;
#X connect 1 0 9 0;
#X connect 2 0 7 0;
#X connect 2 1 4 1;
#X connect 2 1 8 1;
#X connect 3 0 4 0;
#X connect 3 1 5 1;
#X connect 4 0 5 0;
#X connect 7 0 0 0;
#X connect 7 1 8 0;
#X connect 8 0 6 0;
#X connect 9 0 2 0;
#X connect 9 1 11 0;
#X connect 9 1 13 0;
#X connect 11 0 12 0;
#X connect 12 0 10 0;
#X connect 13 0 10 0;
#X connect 14 0 11 1;
