#N struct 1015-cell float x float width float status;
#N canvas 300 89 1082 782 10;
#X obj 611 406 expr~ floor($v1);
#X obj 735 314 wrap~;
#X obj 673 351 cos~;
#X obj 673 372 threshold~ 0 0 0 0, f 10;
#X obj 673 331 +~ 0.25;
#X obj 105 294 inlet~ fwd;
#X obj 612 624 outlet;
#X obj 162 315 list split 1;
#X obj 162 357 t b s;
#X obj 162 378 f;
#X obj 162 399 s;
#X obj 734 625 outlet~;
#X obj 734 517 clip~ 0 1;
#X obj 105 315 s~ \$0-in;
#X obj 612 179 r~ \$0-in;
#X obj 612 230 +~;
#X obj 612 482 expr~ $v1 % $v2;
#X obj 767 67 loadbang;
#X obj 767 88 bng 15 250 50 0 empty empty empty 17 7 0 10 -262144 -1
-1;
#X obj 612 251 wrap~;
#X obj 767 108 s \$0-init;
#X obj 767 134 r \$0-init;
#X obj 612 517 snapshot~;
#X obj 612 538 change;
#X obj 105 160 nbx 4 15 -1 1 0 0 \$0-offset \$0-offset.in offset 40
7 0 8 -257985 -1 -1 0 256;
#X obj 105 120 nbx 4 15 1 1e+037 0 0 \$0-multiply \$0-multiply.in multiply
40 7 0 8 -257985 -1 -1 8 256;
#X obj 105 140 nbx 4 15 1 8 0 0 \$0-modulo \$0-modulo.in modulo 40
7 0 8 -257985 -1 -1 8 256;
#X msg 105 238 range 1 \$1 \, bang;
#X obj 105 214 expr ($f1 > 1) * $f1 + 1 * ($f1 <= 1);
#X obj 162 336 makefilename \$0-%s.in;
#N canvas 419 434 450 300 \$0-cell 0;
#X obj 60 64 struct \$0-cell float x float width float status;
#X obj 60 90 filledpolygon status 0 1 0 0 width 0 width 1 0 1;
#X restore 105 497 pd \$0-cell;
#N canvas 570 285 599 527 \$0-draw 1;
#X msg 335 77 clear;
#X obj 304 159 f \$0;
#X obj 304 201 pointer;
#X obj 97 217 append \$0-cell status x width;
#X obj 97 24 r \$0-modulo;
#X obj 181 152 +;
#X obj 97 108 until;
#X obj 97 61 t f f b;
#X msg 136 108 0;
#X obj 154 152 f 0;
#X msg 304 179 traverse pd-\$1-graph \, bang;
#X obj 335 98 s pd-\$0-graph;
#X obj 97 129 t b b;
#X msg 97 152 990;
#X obj 211 136 expr 90 / $f1;
#X connect 0 0 11 0;
#X connect 1 0 10 0;
#X connect 2 0 3 3;
#X connect 4 0 7 0;
#X connect 5 0 9 1;
#X connect 6 0 12 0;
#X connect 7 0 6 0;
#X connect 7 1 14 0;
#X connect 7 2 0 0;
#X connect 7 2 1 0;
#X connect 7 2 8 0;
#X connect 8 0 9 1;
#X connect 9 0 5 0;
#X connect 9 0 3 1;
#X connect 10 0 2 0;
#X connect 12 0 13 0;
#X connect 12 1 9 0;
#X connect 13 0 3 0;
#X connect 14 0 5 1;
#X connect 14 0 3 2;
#X restore 105 471 pd \$0-draw;
#X obj 627 203 r \$0-offset;
#X obj 633 270 r \$0-multiply;
#X obj 612 297 *~ 1;
#X obj 699 425 r \$0-modulo;
#X obj 699 446 sig~ 1;
#N canvas -843 78 450 300 \$0-graph 0;
#X scalar 1015-cell 0 11 990 \;;
#X scalar 1015-cell 11.25 11 950 \;;
#X scalar 1015-cell 22.5 11 990 \;;
#X scalar 1015-cell 33.75 11 990 \;;
#X scalar 1015-cell 45 11 990 \;;
#X scalar 1015-cell 56.25 11 990 \;;
#X scalar 1015-cell 67.5 11 990 \;;
#X scalar 1015-cell 78.75 11 990 \;;
#X coords 0 0 90 1 90 15 2 100 100;
#X restore 105 180 pd \$0-graph;
#X obj 625 595 s \$0-current;
#X obj 396 379 r \$0-current;
#X obj 872 399 r \$0-uitog;
#X obj 827 425 spigot 1;
#X obj 396 617 set \$0-cell status;
#X msg 396 468 next;
#X obj 396 489 pointer;
#X msg 469 473 traverse pd-\$1-graph;
#X obj 469 438 f \$0;
#X obj 311 380 r \$0-modulo;
#X obj 396 447 until;
#X obj 396 510 t b p;
#X obj 396 531 f 0;
#X obj 422 531 + 1;
#X obj 396 552 ==;
#X obj 396 573 sel 0 1;
#X msg 437 438 0;
#X obj 396 400 t b f;
#X obj 437 416 bang;
#X msg 396 594 990;
#X msg 424 594 950;
#X floatatom 705 555 5 0 0 0 - - -;
#X obj 767 155 f 4;
#X obj 767 176 s \$0-modulo.in;
#X obj 857 176 s \$0-multiply.in;
#X obj 396 426 i 0;
#X connect 0 0 16 0;
#X connect 1 0 4 0;
#X connect 1 0 12 0;
#X connect 2 0 3 0;
#X connect 3 0 22 0;
#X connect 3 1 22 0;
#X connect 4 0 2 0;
#X connect 5 0 13 0;
#X connect 5 1 7 0;
#X connect 7 0 29 0;
#X connect 7 1 9 1;
#X connect 8 0 9 0;
#X connect 8 1 10 1;
#X connect 9 0 10 0;
#X connect 12 0 11 0;
#X connect 14 0 15 0;
#X connect 15 0 19 0;
#X connect 16 0 22 0;
#X connect 17 0 18 0;
#X connect 18 0 20 0;
#X connect 19 0 34 0;
#X connect 21 0 60 0;
#X connect 22 0 23 0;
#X connect 23 0 6 0;
#X connect 23 0 38 0;
#X connect 23 0 59 0;
#X connect 25 0 28 0;
#X connect 27 0 26 0;
#X connect 28 0 27 0;
#X connect 29 0 8 0;
#X connect 32 0 15 1;
#X connect 33 0 34 1;
#X connect 34 0 0 0;
#X connect 34 0 1 0;
#X connect 35 0 36 0;
#X connect 36 0 16 1;
#X connect 39 0 55 0;
#X connect 40 0 41 1;
#X connect 43 0 44 0;
#X connect 44 0 49 0;
#X connect 45 0 44 0;
#X connect 46 0 45 0;
#X connect 47 0 63 1;
#X connect 48 0 43 0;
#X connect 49 0 50 0;
#X connect 49 1 42 1;
#X connect 50 0 51 0;
#X connect 50 0 52 0;
#X connect 51 0 50 1;
#X connect 52 0 53 0;
#X connect 53 0 57 0;
#X connect 53 1 58 0;
#X connect 54 0 50 1;
#X connect 55 0 63 0;
#X connect 55 1 52 1;
#X connect 55 1 56 0;
#X connect 56 0 46 0;
#X connect 56 0 54 0;
#X connect 57 0 42 0;
#X connect 58 0 42 0;
#X connect 60 0 61 0;
#X connect 60 0 62 0;
#X connect 63 0 48 0;
#X coords 0 -1 1 1 100 100 1 100 100;
