#N canvas 49 275 987 586 10;
#X obj 377 511 lop~ 5;
#X obj 377 490 sig~ 0;
#X obj 511 406 f 1000;
#X obj 556 447 expr 1000 / $f1;
#X obj 556 427 max 1;
#X obj 377 195 route 0;
#X msg 511 386 bang;
#X obj 437 211 t f f;
#X obj 437 386 * 0.4;
#X obj 541 468 f 2;
#X msg 377 356 bang;
#X obj 425 448 expr 1000 / $f1;
#X obj 425 428 max 1;
#X obj 377 469 f 0;
#X obj 410 469 f 0;
#X msg 477 386 bang;
#X obj 437 344 del;
#X obj 437 323 swap;
#X obj 437 365 f 1;
#X msg 385 328 stop;
#X obj 517 236 r \$0-attack;
#X obj 544 386 expr 1000 / $f1;
#X obj 544 344 max 1;
#X obj 464 344 r \$0-sustain;
#X obj 464 365 clip 0 1;
#X obj 556 406 r \$0-decay;
#X obj 425 407 r \$0-release;
#X obj 377 54 inlet;
#X obj 377 532 outlet~;
#X obj 517 215 r \$0-hold;
#X obj 458 294 +;
#X obj 517 257 t b f;
#X obj 458 273 f 0;
#X obj 377 75 route float;
#X obj 440 101 list split 1;
#X obj 440 145 t b s;
#X obj 440 166 f 1;
#X obj 440 187 s;
#X obj 105 130 nbx 4 15 1 1e+037 0 0 \$0-attack \$0-attack.in attack
0 -8 0 8 -257985 -1 -1 10 256;
#X obj 153 130 nbx 4 15 1 1e+037 0 0 \$0-hold \$0-hold.in hold 0 -8
0 8 -257985 -1 -1 18 256;
#X obj 153 160 nbx 4 15 1 1e+037 0 0 \$0-release \$0-release.in release
0 -8 0 8 -257985 -1 -1 114 256;
#X obj 105 160 nbx 4 15 1 1e+037 0 0 \$0-decay \$0-decay.in decay 0
-8 0 8 -257985 -1 -1 32 256;
#X obj 706 94 loadbang;
#X obj 706 115 bng 15 250 50 0 empty empty empty 17 7 0 10 -262144
-1 -1;
#X obj 706 136 f \$0;
#X msg 706 157 \; \$1-attack.in 10 \; \$1-hold.in 5 \; \$1-decay.in
20 \; \$1-release.in 100 \; \$1-sustain.in 0.2;
#X obj 108 180 hsl 85 15 0 1 0 0 \$0-sustain \$0-sustain.in sustain:0.297619
2 8 0 8 -257985 -1 -1 2500 0;
#X obj 105 210 makefilename sustain:%f;
#X msg 105 231 label \$1;
#X obj 440 124 makefilename \$0-%s.in;
#X connect 0 0 28 0;
#X connect 1 0 0 0;
#X connect 2 0 0 1;
#X connect 3 0 9 1;
#X connect 4 0 3 0;
#X connect 5 0 10 0;
#X connect 5 0 19 0;
#X connect 5 1 7 0;
#X connect 6 0 2 0;
#X connect 7 0 17 0;
#X connect 7 1 6 0;
#X connect 7 1 1 0;
#X connect 8 0 1 0;
#X connect 9 0 0 1;
#X connect 10 0 13 0;
#X connect 10 0 14 0;
#X connect 11 0 14 1;
#X connect 12 0 11 0;
#X connect 13 0 1 0;
#X connect 14 0 0 1;
#X connect 15 0 9 0;
#X connect 16 0 18 0;
#X connect 16 0 15 0;
#X connect 17 0 16 0;
#X connect 17 1 18 1;
#X connect 18 0 8 0;
#X connect 19 0 16 0;
#X connect 20 0 31 0;
#X connect 21 0 2 1;
#X connect 22 0 21 0;
#X connect 23 0 24 0;
#X connect 24 0 8 1;
#X connect 25 0 4 0;
#X connect 26 0 12 0;
#X connect 27 0 33 0;
#X connect 29 0 32 0;
#X connect 30 0 17 1;
#X connect 31 0 32 0;
#X connect 31 1 22 0;
#X connect 31 1 30 1;
#X connect 32 0 30 0;
#X connect 33 0 5 0;
#X connect 33 1 34 0;
#X connect 34 0 49 0;
#X connect 34 1 36 1;
#X connect 35 0 36 0;
#X connect 35 1 37 1;
#X connect 36 0 37 0;
#X connect 42 0 43 0;
#X connect 43 0 44 0;
#X connect 44 0 45 0;
#X connect 46 0 47 0;
#X connect 47 0 48 0;
#X connect 48 0 46 0;
#X connect 49 0 35 0;
#X coords 0 -1 1 1 100 100 1 100 100;
