#N canvas 165 158 1160 682 10;
#X obj 343 337 vline~;
#X obj 330 492 *~;
#X obj 286 374 cos~;
#X obj 286 354 *~;
#X obj 329 589 outlet~;
#X obj 343 395 *~;
#X obj 330 469 cos~;
#X obj 229 509 s~ \$0-fb;
#X obj 236 406 r~ \$0-fb;
#X obj 235 452 *~;
#X obj 344 420 *~;
#X msg 343 315 1 0 0 \, 0 \$1 3;
#X obj 270 197 del 5;
#X obj 286 435 +~ 5;
#X obj 343 280 f 90;
#X obj 301 136 / 4;
#X obj 291 230 / 1.5;
#X obj 270 258 f 0;
#X obj 301 115 t f b, f 12;
#X obj 270 170 bang;
#X obj 301 280 *;
#X obj 316 251 r \$0-tune;
#X obj 384 251 r \$0-decay;
#X obj 301 94 inlet;
#X obj 105 130 nbx 5 15 -1e+037 1e+037 0 0 \$0-decay \$0-decay.in decay
0 -8 0 8 -257985 -1 -1 528 256;
#X obj 105 160 nbx 5 15 -1e+037 1e+037 0 0 \$0-tune \$0-tune.in tune
0 -8 0 8 -257985 -1 -1 2241 256;
#X obj 165 165 bng 30 250 50 0 \$0 \$0ads empty 17 7 0 10 -257985 -1
-1;
#X msg 165 210 440;
#X obj 100 270 loadbang;
#X obj 100 291 bng 15 250 50 0 empty empty empty 17 7 0 10 -262144
-1 -1;
#X obj 100 311 f \$0;
#X msg 100 332 \; \$1-decay.in 90 \; \$1-tune.in 15;
#X text 537 94 Based of obiwannabe's efficient drum example https://forum.pdpatchrepo.info/topic/1025/fairly-efficient-analog-drums
;
#X obj 405 160 r \$0-decay;
#X obj 405 181 * 0.05;
#X connect 0 0 3 0;
#X connect 0 0 5 0;
#X connect 0 0 5 1;
#X connect 1 0 7 0;
#X connect 1 0 4 0;
#X connect 2 0 13 0;
#X connect 3 0 2 0;
#X connect 5 0 10 0;
#X connect 5 0 10 1;
#X connect 6 0 1 0;
#X connect 8 0 9 0;
#X connect 9 0 6 0;
#X connect 10 0 1 1;
#X connect 11 0 0 0;
#X connect 12 0 17 0;
#X connect 13 0 9 1;
#X connect 14 0 11 0;
#X connect 15 0 16 0;
#X connect 15 0 19 0;
#X connect 15 0 20 0;
#X connect 16 0 17 1;
#X connect 17 0 20 0;
#X connect 18 0 15 0;
#X connect 18 1 14 0;
#X connect 19 0 12 0;
#X connect 20 0 3 1;
#X connect 21 0 20 1;
#X connect 22 0 14 1;
#X connect 23 0 18 0;
#X connect 26 0 27 0;
#X connect 27 0 18 0;
#X connect 28 0 29 0;
#X connect 29 0 30 0;
#X connect 30 0 31 0;
#X connect 33 0 34 0;
#X connect 34 0 12 1;
#X coords 0 -1 1 1 100 100 1 100 100;
