#N canvas 181 171 1220 723 10;
#X obj 733 160 metro;
#X obj 763 251 line;
#X msg 763 227 0 \, 1 \$1;
#X obj 763 203 f;
#X obj 822 211 swap;
#X obj 822 235 /;
#X obj 822 163 t b f;
#X obj 822 187 f 1;
#X obj 763 275 *;
#X obj 316 141 text define \$0-events;
#X obj 733 397 f 0;
#X obj 765 397 + 1;
#X obj 733 421 t f f;
#X obj 733 601 sel 1;
#X msg 733 625 0;
#X obj 733 577 >= 15;
#X obj 904 561 - 1;
#X obj 763 363 s \$0-subbeat;
#X obj 765 450 sel 0;
#X obj 864 437 s \$0-beat;
#X obj 765 485 f 0;
#X obj 797 485 + 1;
#X obj 765 549 s \$0-bar;
#X obj 100 551 r \$0-subbeat;
#X obj 100 575 outlet;
#X obj 198 551 r \$0-beat;
#X obj 198 575 outlet;
#X obj 275 551 r \$0-bar;
#X obj 275 575 outlet;
#X obj 969 138 timer;
#X obj 969 114 sel 1;
#X obj 996 267 bang;
#X obj 969 162 s \$0-time;
#X obj 345 551 r \$0-time;
#X obj 345 575 outlet;
#X obj 417 577 outlet;
#X obj 205 160 nbx 5 15 -1e+037 1e+037 0 0 \$0-bpm \$0-bpm.in bpm 0
-8 0 8 -257985 -1 -1 120 256;
#X obj 399 229 swap 60000;
#X obj 399 253 /;
#X obj 399 205 r \$0-bpm;
#X obj 205 130 nbx 5 15 -1e+037 1e+037 0 0 \$0-ms \$0-ms.in ms 0 -8
0 8 -257985 -1 -1 500 256;
#X obj 105 160 nbx 5 15 1 1e+037 0 0 \$0-subdivide \$0-subdivide.in
subdivide 0 -8 0 8 -257985 -1 -1 4 256;
#X obj 255 130 tgl 15 0 \$0-play \$0-play.in play 17 7 0 8 -257985
-1 -1 1 1;
#X obj 155 160 nbx 5 15 1 1e+037 0 0 \$0-length \$0-length.in length
0 -8 0 8 -257985 -1 -1 4 256;
#X obj 105 130 nbx 5 15 0 1e+037 0 0 \$0-beat.out \$0-beat.in beat
0 -8 0 8 -257985 -1 -1 3 256;
#X obj 155 130 nbx 5 15 0 1e+037 0 0 \$0-bar.out \$0-bar.in bar 0 -8
0 8 -257985 -1 -1 1019 256;
#X obj 872 171 r \$0-subdivide;
#X obj 255 160 bng 15 250 50 0 \$0-events \$0-events.in events 17 7
0 8 -257985 -1 -1;
#X obj 733 98 r \$0-play;
#X obj 417 551 r \$0-ms;
#X obj 778 125 r \$0-ms;
#X obj 904 540 r \$0-length;
#X obj 316 99 r \$0-events;
#X msg 316 120 click 1;
#X obj 232 402 text search \$0-events;
#X obj 232 360 r \$0-beat;
#X obj 100 360 r \$0-bar;
#X obj 364 402 text search \$0-events;
#X msg 364 382 symbol preset;
#X obj 100 402 text search \$0-events;
#X obj 277 464 + 1;
#X msg 277 485 line \$1 \, bang;
#X obj 232 444 route -1;
#X obj 618 381 r \$0-beat.out;
#X obj 923 469 r \$0-bar.out;
#X obj 822 549 s \$0-bar.in;
#X msg 822 521 set \$1;
#X msg 618 413 set \$1;
#X obj 618 441 s \$0-beat.in;
#X obj 145 485 + 1;
#X msg 145 506 line \$1 \, bang;
#X obj 100 465 route -1;
#X obj 409 443 + 1;
#X msg 409 464 line \$1 \, bang;
#X obj 364 423 route -1;
#X obj 257 205 loadbang;
#X obj 257 226 bng 15 250 50 0 empty empty empty 17 7 0 10 -262144
-1 -1;
#X obj 257 247 f \$0;
#X obj 399 277 s \$0-ms.in;
#X obj 155 180 bng 15 250 50 0 \$0-open \$0-open.in open 17 7 0 8 -257985
-1 -1;
#X obj 364 361 r \$0-reset;
#X obj 396 104 openpanel;
#X msg 396 125 read \$1;
#X obj 105 180 bng 15 250 50 0 \$0-save \$0-save.in save 17 7 0 8 -257985
-1 -1;
#X obj 205 180 bng 15 250 50 0 \$0-reset \$0-reset.in reset 17 7 0
8 -257985 -1 -1;
#X obj 396 83 r \$0-open;
#X obj 463 109 r \$0-load;
#X obj 526 104 savepanel;
#X obj 526 83 r \$0-save;
#X msg 526 125 write \$1;
#X obj 593 109 r \$0-write;
#X obj 969 66 r \$0-reset;
#X obj 100 381 makefilename bar.%d;
#X obj 232 381 makefilename beat.%d;
#X obj 409 485 text sequence \$0-events -w / -g;
#X obj 277 506 text sequence \$0-events -w / -g;
#X obj 145 527 text sequence \$0-events -w / -g;
#X obj 877 360 r \$0-reset;
#X msg 877 381 0;
#X obj 100 205 inlet;
#X obj 100 226 list split 1;
#X obj 100 289 list;
#X obj 100 310 s;
#X obj 100 268 t b s;
#X obj 100 247 makefilename \$0-%s.in;
#X msg 257 268 \; \$1-beat.in 0 \; \$1-bar.in 0 \; \$1-subdivide.in
4 \; \$1-bpm.in 120 \; \$1-length.in 4 \;;
#X obj 763 299 expr floor($f1);
#X obj 763 320 change;
#X connect 0 0 3 0;
#X connect 0 0 10 0;
#X connect 1 0 8 0;
#X connect 1 0 31 0;
#X connect 2 0 1 0;
#X connect 3 0 2 0;
#X connect 4 0 5 0;
#X connect 4 1 5 1;
#X connect 5 0 1 2;
#X connect 6 0 7 0;
#X connect 6 1 4 1;
#X connect 7 0 4 0;
#X connect 8 0 106 0;
#X connect 10 0 11 0;
#X connect 10 0 12 0;
#X connect 10 0 67 0;
#X connect 11 0 10 1;
#X connect 12 0 15 0;
#X connect 12 1 18 0;
#X connect 12 1 19 0;
#X connect 13 0 14 0;
#X connect 14 0 10 1;
#X connect 15 0 13 0;
#X connect 16 0 15 1;
#X connect 18 0 20 0;
#X connect 20 0 21 0;
#X connect 20 0 22 0;
#X connect 20 0 66 0;
#X connect 21 0 20 1;
#X connect 23 0 24 0;
#X connect 25 0 26 0;
#X connect 27 0 28 0;
#X connect 29 0 32 0;
#X connect 30 0 29 0;
#X connect 31 0 29 1;
#X connect 33 0 34 0;
#X connect 37 0 38 0;
#X connect 37 1 38 1;
#X connect 38 0 78 0;
#X connect 39 0 37 0;
#X connect 46 0 7 0;
#X connect 46 0 8 1;
#X connect 48 0 0 0;
#X connect 48 0 30 0;
#X connect 49 0 35 0;
#X connect 50 0 3 1;
#X connect 50 0 0 1;
#X connect 50 0 6 0;
#X connect 51 0 16 0;
#X connect 52 0 53 0;
#X connect 53 0 9 0;
#X connect 54 0 62 0;
#X connect 55 0 93 0;
#X connect 56 0 92 0;
#X connect 57 0 74 0;
#X connect 58 0 57 0;
#X connect 59 0 71 0;
#X connect 60 0 61 0;
#X connect 61 0 95 0;
#X connect 62 1 60 0;
#X connect 63 0 10 1;
#X connect 64 0 20 1;
#X connect 66 0 65 0;
#X connect 67 0 68 0;
#X connect 69 0 70 0;
#X connect 70 0 96 0;
#X connect 71 1 69 0;
#X connect 72 0 73 0;
#X connect 73 0 94 0;
#X connect 74 1 72 0;
#X connect 75 0 76 0;
#X connect 76 0 77 0;
#X connect 77 0 105 0;
#X connect 80 0 58 0;
#X connect 81 0 82 0;
#X connect 82 0 9 0;
#X connect 85 0 81 0;
#X connect 86 0 82 0;
#X connect 87 0 89 0;
#X connect 88 0 87 0;
#X connect 89 0 9 0;
#X connect 90 0 89 0;
#X connect 91 0 29 0;
#X connect 92 0 59 0;
#X connect 93 0 54 0;
#X connect 97 0 98 0;
#X connect 98 0 10 1;
#X connect 98 0 20 1;
#X connect 99 0 100 0;
#X connect 100 0 104 0;
#X connect 100 1 101 1;
#X connect 101 0 102 0;
#X connect 103 0 101 0;
#X connect 103 1 102 1;
#X connect 104 0 103 0;
#X connect 106 0 107 0;
#X connect 107 0 17 0;
#X coords 0 -1 1 1 210 100 1 100 100;
