#N struct 1064-key float status float root float id float x float y
;
#N canvas 268 195 1008 709 10;
#X msg 208 120 intervals 3 2 2 3 2;
#X obj 100 180 r start;
#X obj 512 120 s start;
#X obj 512 100 tgl 15 0 empty empty empty 20 7 0 10 -257985 -1 -1 0
1;
#X obj 100 390 nbx 4 15 -1e+037 1e+037 0 0 empty empty pitch 48 8 0
10 -257985 -1 -1 0 256;
#N canvas 418 372 450 300 output 0;
#X obj 122 115 cc.output~;
#X text 129 99 Volume Control;
#X obj 121 55 inlet~;
#X connect 2 0 0 0;
#X connect 2 0 0 1;
#X restore 100 582 pd output;
#X obj 208 154 cc.12tet scale;
#X obj 100 264 cc.12tet/sequence scale;
#X obj 100 369 mtof;
#X obj 190 460 cc.12tet/chord scale chord;
#X msg 190 432 octave 6 \, 0 2 4 6;
#X msg 305 432 octave 6 \, 3 5s 7 9;
#X obj 109 237 r sequence;
#N canvas 640 425 450 300 instrument 0;
#X obj 37 37 inlet;
#X obj 37 217 *~;
#X obj 37 241 outlet~;
#N canvas 428 227 936 599 vv 0;
#X obj 156 161 inlet~;
#X obj 156 250 *~ 0;
#X obj 156 269 phasor~;
#X obj 156 288 *~ 4;
#X obj 156 307 -~ 2;
#X obj 156 326 abs~;
#X obj 156 345 -~ 1;
#X obj 156 364 outlet~;
#X obj 177 208 samplerate~;
#X obj 177 229 / 2;
#X obj 177 187 r \$0-init;
#X text 279 157 based on one of acriel's random modulation algorithms
;
#X connect 0 0 1 0;
#X connect 1 0 2 0;
#X connect 2 0 3 0;
#X connect 3 0 4 0;
#X connect 4 0 5 0;
#X connect 5 0 6 0;
#X connect 6 0 7 0;
#X connect 8 0 9 0;
#X connect 9 0 1 1;
#X connect 10 0 8 0;
#X restore 86 83 pd vv;
#X obj 85 58 noise~;
#X obj 119 200 vline~;
#X obj 37 58 t f b;
#X msg 119 118 1 5 \, 0.25 20 5 \, 0 100 25;
#X obj 37 149 cc.waves~/dphasor;
#X obj 37 173 cc.waves~/rTri 0.5;
#X connect 0 0 6 0;
#X connect 1 0 2 0;
#X connect 3 0 8 1;
#X connect 4 0 3 0;
#X connect 5 0 1 1;
#X connect 6 0 8 0;
#X connect 6 1 7 0;
#X connect 7 0 5 0;
#X connect 8 0 9 0;
#X connect 9 0 1 0;
#X restore 100 411 pd instrument;
#N canvas 0 50 450 300 polyinstrument 0;
#X obj 37 37 inlet;
#X obj 37 108 unpack f f f f;
#X obj 37 156 osc~;
#X obj 37 129 mtof;
#X obj 67 129 mtof;
#X obj 97 129 mtof;
#X obj 127 129 mtof;
#X obj 67 156 osc~;
#X obj 97 156 osc~;
#X obj 127 156 osc~;
#X obj 37 58 t l b;
#X obj 161 160 vline~;
#X msg 161 139 0 \, 1 25 \, 0 500 25;
#X obj 37 177 *~ 0.25;
#X obj 37 198 *~;
#X obj 37 219 outlet~;
#X obj 161 181 *~;
#X msg 148 74 0;
#X connect 0 0 10 0;
#X connect 1 0 3 0;
#X connect 1 1 4 0;
#X connect 1 2 5 0;
#X connect 1 3 6 0;
#X connect 2 0 13 0;
#X connect 3 0 2 0;
#X connect 4 0 7 0;
#X connect 5 0 8 0;
#X connect 6 0 9 0;
#X connect 7 0 13 0;
#X connect 8 0 13 0;
#X connect 9 0 13 0;
#X connect 10 0 1 0;
#X connect 10 1 12 0;
#X connect 10 1 17 0;
#X connect 11 0 16 0;
#X connect 11 0 16 1;
#X connect 12 0 11 0;
#X connect 13 0 14 0;
#X connect 14 0 15 0;
#X connect 16 0 14 1;
#X connect 17 0 9 1;
#X connect 17 0 8 1;
#X connect 17 0 7 1;
#X connect 17 0 2 1;
#X restore 190 565 pd polyinstrument;
#X msg 338 120 scale 0 2 4 5 7 9 11;
#X obj 190 411 r chord0;
#X obj 305 411 r chord1;
#X obj 624 100 bng 15 250 50 0 empty empty empty 17 7 0 10 -257985
-1 -1;
#X obj 624 120 s chord0;
#X obj 686 100 bng 15 250 50 0 empty empty empty 17 7 0 10 -257985
-1 -1;
#X obj 686 120 s chord1;
#X obj 568 100 nbx 4 15 -1e+037 1e+037 0 0 empty tempo.in empty 0 -8
0 10 -257985 -1 -1 0 256;
#X obj 568 120 s tempo;
#X obj 151 180 r tempo;
#X obj 100 211 metro 200;
#X text 510 336 The sequence object generates a random sequence of
notes in tune with a given scale. This random sequence can be drawn
in or randomized in various ways. The user is also able a bottom note
and a note range with the 'floor' and 'range' parameter., f 66;
#X text 510 149 [cc.12tet] - 12 Tone Equal Temperament Scale Generator
, f 66;
#X text 510 169 cc.scale generates a single octave a scale (within
the Western 12 tone system) and stores it within a defined array. This
array can then be access via Pd's array objects or by slave objects
such as the 'sequence' and 'chord' object seen on the left., f 66
;
#X text 510 392 The chord object takes a list of one or more scale
degrees and outputs a corresponding chord based on a given scale. This
chord is also stored in an array for the user to access/manipulate
with other objects., f 66;
#X text 510 225 The GUI displays which notes are active by highlighting
its respective piano key in yellow. Which key is currently the root
note is denoted by the orange dot. Using the UI \, new scales can be
simply clicked in. Scales can also be modulated or randomized with
the modulate and root parameters. These parameters are not set automatically
and must be punched in with the buttons to their right. Modulation
rotates the current set of intervals by a value defined by the user.
Randomization creates a randomized set of intervals of a user defined
length., f 66;
#X connect 0 0 6 0;
#X connect 1 0 25 0;
#X connect 3 0 2 0;
#X connect 4 0 13 0;
#X connect 7 0 8 0;
#X connect 8 0 4 0;
#X connect 9 0 14 0;
#X connect 10 0 9 0;
#X connect 11 0 9 0;
#X connect 12 0 7 0;
#X connect 13 0 5 0;
#X connect 14 0 5 0;
#X connect 15 0 6 0;
#X connect 16 0 10 0;
#X connect 17 0 11 0;
#X connect 18 0 19 0;
#X connect 20 0 21 0;
#X connect 22 0 23 0;
#X connect 24 0 25 1;
#X connect 25 0 7 0;
#X coords 0 709 1 708 80 60 0;
