#N struct 1011-key float status float root float id float x float y
;
#N canvas 352 240 972 638 10;
#N canvas 958 162 544 754 \$0-key 0;
#X obj 77 80 route click;
#X obj 77 101 unpack p;
#X obj 96 206 set \$0-key status;
#X obj 96 164 == 0;
#X obj 77 122 t b p p;
#X obj 96 143 get \$0-key status;
#X obj 77 227 s \$0-gui.get;
#X obj 96 185 * 990;
#X obj 77 59 struct \$0-key float status float root float id float
x float y, f 62;
#X obj 77 332 filledpolygon 0 0 1 2 0 18 0 18 28 2 28;
#X obj 77 312 filledpolygon status 0 1 3 3 17 3 17 26 3 26;
#X obj 77 292 filledpolygon root 0 1 8 12 12 12 12 16 8 16;
#X connect 0 0 1 0;
#X connect 1 0 4 0;
#X connect 3 0 7 0;
#X connect 4 0 6 0;
#X connect 4 1 5 0;
#X connect 4 2 2 1;
#X connect 5 0 3 0;
#X connect 7 0 2 0;
#X connect 8 0 0 0;
#X restore 157 360 pd \$0-key;
#X obj 585 465 pointer;
#X obj 585 423 f \$0;
#X msg 623 402 clear;
#X obj 396 386 t b b b;
#X obj 396 365 r \$0-init;
#X obj 623 423 s pd-\$0-graph;
#X msg 585 444 traverse pd-\$1-graph \, bang;
#X obj 396 407 f 12;
#X obj 396 428 until;
#X obj 396 449 f 0;
#X obj 428 449 + 1;
#N canvas 152 180 450 462 \$0-keys.shape 0;
#X obj 37 37 inlet;
#X obj 37 58 sel 0 1 2 3 4 5 6 7 8 9 10 11;
#X obj 37 326 outlet;
#X text 259 58 black keys: Db Eb Gb Ab Bb;
#X text 265 98 white keys: C D E F G A B;
#X text 355 71 1 3 6 8 10;
#X text 331 111 0 2 4 5 7 9 11;
#X msg 51 100 0 0 1 10 0;
#X msg 79 142 0 0 3 30 0;
#X msg 122 205 0 0 6 70 0;
#X msg 151 247 0 0 8 90 0;
#X msg 179 289 0 0 10 110 0;
#X msg 37 79 0 0 0 0 33;
#X msg 65 121 0 0 2 20 33;
#X msg 94 163 0 0 4 40 33;
#X msg 108 184 0 0 5 60 33;
#X msg 136 226 0 0 7 80 33;
#X msg 165 268 0 0 9 100 33;
#X msg 193 310 0 0 11 120 33;
#X connect 0 0 1 0;
#X connect 1 0 12 0;
#X connect 1 1 7 0;
#X connect 1 2 13 0;
#X connect 1 3 8 0;
#X connect 1 4 14 0;
#X connect 1 5 15 0;
#X connect 1 6 9 0;
#X connect 1 7 16 0;
#X connect 1 8 10 0;
#X connect 1 9 17 0;
#X connect 1 10 11 0;
#X connect 1 11 18 0;
#X connect 7 0 2 0;
#X connect 8 0 2 0;
#X connect 9 0 2 0;
#X connect 10 0 2 0;
#X connect 11 0 2 0;
#X connect 12 0 2 0;
#X connect 13 0 2 0;
#X connect 14 0 2 0;
#X connect 15 0 2 0;
#X connect 16 0 2 0;
#X connect 17 0 2 0;
#X connect 18 0 2 0;
#X restore 396 470 pd \$0-keys.shape;
#X msg 435 428 0;
#X obj 100 470 array define -yrange 0 12 \$1;
#X obj 100 491 array define -yrange 0 12 \$0-intervals;
#X obj 247 120 nbx 4 15 0 11 0 0 \$0-root \$0-root.in root 0 -8 0 8
-257985 -1 -1 0 256;
#X obj 247 180 nbx 4 15 1 12 0 0 \$0-random.amt \$0-random.amt.in random
0 -8 0 8 -257985 -1 -1 7 256;
#X obj 287 180 bng 15 250 50 0 \$0-random \$0-random.in empty 17 7
0 10 -257985 -1 -1;
#X obj 247 150 nbx 4 15 -6 6 0 0 \$0-modulate.amt \$0-modulate.amt.in
modulate 0 -8 0 8 -257985 -1 -1 4 256;
#X obj 287 150 bng 15 250 50 0 \$0-modulate \$0-modulate.in empty 17
7 0 10 -257985 -1 -1;
#N canvas 427 128 596 658 \$0-intervals.random 0;
#X obj 318 194 swap 12;
#X obj 318 215 /;
#X obj 151 228 until;
#X obj 151 249 random;
#X msg 429 318 const \$1;
#X obj 429 339 s \$0-intervals;
#X obj 318 236 i;
#X obj 76 141 array size \$0-intervals;
#X obj 170 349 spigot;
#X obj 243 435 + 1;
#X obj 151 291 array get \$0-intervals 0 1;
#X obj 243 386 array set \$0-intervals 0;
#X obj 151 270 t f f;
#X obj 151 408 array sum \$0-intervals;
#X obj 151 450 sel 1;
#X obj 151 429 >= 12;
#X obj 151 312 t b f f;
#X obj 203 398 <;
#X msg 78 183 1;
#X msg 56 203 12;
#X obj 291 487 f 0;
#X obj 318 487 + 1;
#X obj 291 508 > 1000;
#X obj 291 529 sel 1;
#X obj 291 466 bang;
#X msg 306 445 0;
#X obj 151 178 t b b f b;
#X obj 291 572 print ERROR;
#X obj 318 257 expr round($f1 + ($f1 * 0.5)) \; round($f1 - ($f1 *
0.5)) \;, f 19;
#X obj 37 120 t b f f;
#X text 435 257 min and max interval calculation, f 15;
#X text 404 377 randomly choose an interval and add 1 unless it's already
above the maximum, f 24;
#X text 150 469 When sum is >= 12 \, end process, f 16;
#X text 344 509 failsafe in case of infinite loop, f 16;
#X msg 291 551 Random scale ended with failsafe;
#X obj 37 37 r \$0-random;
#X obj 37 78 f;
#X obj 82 62 r \$0-random.amt;
#X obj 56 162 sel 1 12;
#X text 57 265 ignore 1 and 12, f 9;
#X msg 56 224 const \$1;
#X obj 56 245 s \$0-intervals;
#X obj 37 99 clip 1 12;
#X obj 37 572 s \$0-intervals.toScale;
#X connect 0 0 1 0;
#X connect 0 1 1 1;
#X connect 1 0 6 0;
#X connect 2 0 3 0;
#X connect 3 0 12 0;
#X connect 4 0 5 0;
#X connect 6 0 28 0;
#X connect 8 0 9 0;
#X connect 9 0 11 0;
#X connect 10 0 16 0;
#X connect 12 0 10 0;
#X connect 12 1 11 1;
#X connect 13 0 15 0;
#X connect 14 0 2 1;
#X connect 14 1 24 0;
#X connect 15 0 14 0;
#X connect 16 0 13 0;
#X connect 16 1 8 0;
#X connect 16 2 17 0;
#X connect 17 0 8 1;
#X connect 18 0 40 0;
#X connect 19 0 40 0;
#X connect 20 0 21 0;
#X connect 20 0 22 0;
#X connect 21 0 20 1;
#X connect 22 0 23 0;
#X connect 23 0 2 1;
#X connect 23 0 34 0;
#X connect 24 0 20 0;
#X connect 25 0 20 1;
#X connect 26 0 2 0;
#X connect 26 1 2 1;
#X connect 26 2 3 1;
#X connect 26 2 0 0;
#X connect 26 3 25 0;
#X connect 28 0 17 1;
#X connect 28 1 4 0;
#X connect 29 0 43 0;
#X connect 29 1 38 0;
#X connect 29 2 7 0;
#X connect 34 0 27 0;
#X connect 35 0 36 0;
#X connect 36 0 42 0;
#X connect 37 0 36 1;
#X connect 38 0 19 0;
#X connect 38 1 18 0;
#X connect 38 2 26 0;
#X connect 40 0 41 0;
#X connect 42 0 29 0;
#X restore 100 423 pd \$0-intervals.random;
#N canvas 366 190 450 431 \$0-intervals.modulate 0;
#X obj 37 78 f;
#X obj 95 255 array get \$0-intervals;
#X obj 95 276 list split;
#X obj 95 297 list prepend;
#X obj 95 318 array set \$0-intervals;
#X obj 76 235 t b b f;
#X obj 37 129 route 0;
#X obj 76 150 moses 0;
#X obj 37 37 r \$0-modulate;
#X obj 52 57 r \$0-modulate.amt;
#X obj 76 171 t f b;
#X obj 103 195 array size \$0-intervals;
#X obj 76 211 + 7;
#X obj 37 150 bang;
#X obj 168 174 s \$0-modulate.amt.in;
#X obj 168 109 * -1;
#X obj 168 133 pack f f;
#X obj 168 62 - 1;
#X obj 168 83 t f f;
#X msg 168 154 range \$1 \$2;
#X obj 168 41 r \$0-modulate.set;
#X obj 37 99 clip -6 6;
#X obj 76 349 s \$0-intervals.toScale;
#X connect 0 0 21 0;
#X connect 1 0 2 0;
#X connect 2 0 3 0;
#X connect 2 1 3 1;
#X connect 3 0 4 0;
#X connect 5 0 22 0;
#X connect 5 1 1 0;
#X connect 5 2 2 1;
#X connect 6 0 13 0;
#X connect 6 1 7 0;
#X connect 7 0 10 0;
#X connect 7 1 5 0;
#X connect 8 0 0 0;
#X connect 9 0 0 1;
#X connect 10 0 12 0;
#X connect 10 1 11 0;
#X connect 11 0 12 1;
#X connect 12 0 5 0;
#X connect 13 0 22 0;
#X connect 15 0 16 0;
#X connect 15 0 21 1;
#X connect 16 0 19 0;
#X connect 17 0 18 0;
#X connect 18 0 15 0;
#X connect 18 1 16 1;
#X connect 18 1 21 2;
#X connect 19 0 14 0;
#X connect 20 0 17 0;
#X connect 21 0 6 0;
#X restore 100 444 pd \$0-intervals.modulate;
#X obj 100 205 loadbang;
#X obj 100 226 bng 15 250 50 0 empty empty empty 17 7 0 10 -262144
-1 -1;
#X obj 100 247 f \$0;
#N canvas 728 122 858 798 \$0-gui.get 0;
#X obj 56 239 spigot;
#X obj 77 503 list;
#X obj 37 455 t l l;
#X obj 37 434 list prepend;
#X text 167 242 look for where values of one are by counting each key's
status one by one, f 27;
#X text 213 452 put location values in a list to generate the scale
, f 19;
#X obj 501 277 -;
#X obj 543 378 + 0;
#X obj 543 356 f 0;
#X obj 543 335 t b f;
#X obj 501 319 t f f;
#X msg 587 362 0;
#X obj 543 399 swap 12;
#X obj 543 420 -;
#X obj 480 504 list append;
#X obj 501 441 list prepend;
#X obj 501 462 t l l;
#X obj 480 483 list;
#X obj 531 191 spigot;
#X msg 637 150 0;
#X obj 622 175 f 0;
#X msg 563 159 1;
#X text 665 154 Skip subtraction for first value received, f 18;
#X text 570 298 Substract previous value from current value to calculate
intervals, f 36;
#X text 594 399 sum together the intervals and subtract from an octave.
final difference is the final interval, f 28;
#X text 36 377 Generate list of notes in the scale;
#X text 516 75 Generate list of intervals;
#X text 663 194 if only one note \, interval is 12 (octave), f 18
;
#X msg 622 217 12;
#X obj 622 196 sel 0;
#X msg 480 546 0;
#X obj 480 525 route bang;
#X obj 77 524 route bang;
#X msg 56 81 12;
#X obj 56 102 until;
#X obj 56 174 pointer;
#X obj 262 137 f \$0;
#X msg 56 153 next;
#X msg 262 158 traverse pd-\$1-graph;
#X obj 37 58 t b b b;
#X obj 507 588 list length;
#X obj 480 567 t l l;
#X obj 104 590 list length;
#X obj 77 569 t l l;
#X obj 104 611 array size \$1;
#X obj 77 632 array set \$1;
#X obj 507 649 array size \$0-intervals;
#X obj 480 670 array set \$0-intervals;
#X msg 77 545 0;
#X obj 225 116 f 0;
#X obj 260 100 r \$0-root;
#X obj 225 137 until;
#X obj 56 215 get \$0-key id status;
#X obj 516 113 t f f f b b;
#X obj 547 219 <;
#X obj 546 238 * 12;
#X obj 531 261 +;
#X obj 501 298 % 12;
#X obj 56 195 spigot;
#X msg 259 179 0;
#X obj 208 77 t b b b b;
#X msg 208 179 1;
#X obj 296 190 f \$0;
#X msg 296 211 traverse pd-\$1-graph \, next;
#X text 321 79 set first pointer to the root note but don't output
anything, f 23;
#X text 329 179 if end of list \, go back to C, f 16;
#X obj 527 626 s \$0-modulate.set;
#X obj 87 74 s \$0-gui.get.reset;
#X obj 64 316 s \$0-gui.get.return;
#X obj 106 413 r \$0-gui.get.reset;
#X obj 77 455 r \$0-gui.get.return;
#X obj 98 476 r \$0-gui.get.reset;
#X obj 480 52 r \$0-gui.get.return;
#X obj 56 260 s \$0-gui.get.dump;
#X obj 37 392 r \$0-gui.get.dump;
#X obj 516 92 r \$0-gui.get.dump;
#X obj 637 129 r \$0-gui.get.reset;
#X obj 570 467 r \$0-gui.get.reset;
#X obj 587 341 r \$0-gui.get.reset;
#X obj 208 56 r \$0-gui.get.reset;
#X obj 37 38 r \$0-gui.get;
#X obj 37 296 t b b;
#X obj 37 337 s \$0-chord.update;
#X connect 0 0 73 0;
#X connect 1 0 32 0;
#X connect 2 0 1 1;
#X connect 2 1 3 1;
#X connect 3 0 2 0;
#X connect 6 0 57 0;
#X connect 7 0 8 1;
#X connect 7 0 12 0;
#X connect 8 0 7 0;
#X connect 9 0 8 0;
#X connect 9 1 7 1;
#X connect 10 0 15 0;
#X connect 10 1 9 0;
#X connect 11 0 8 1;
#X connect 11 0 7 1;
#X connect 12 0 13 0;
#X connect 12 1 13 1;
#X connect 13 0 14 1;
#X connect 14 0 31 0;
#X connect 15 0 16 0;
#X connect 16 0 17 1;
#X connect 16 1 15 1;
#X connect 17 0 14 0;
#X connect 18 0 56 0;
#X connect 19 0 20 1;
#X connect 20 0 18 1;
#X connect 20 0 29 0;
#X connect 21 0 20 1;
#X connect 28 0 17 1;
#X connect 29 0 28 0;
#X connect 30 0 41 0;
#X connect 31 0 30 0;
#X connect 31 1 41 0;
#X connect 32 0 48 0;
#X connect 32 1 43 0;
#X connect 33 0 34 0;
#X connect 34 0 37 0;
#X connect 35 0 58 0;
#X connect 35 1 62 0;
#X connect 36 0 38 0;
#X connect 37 0 35 0;
#X connect 38 0 35 0;
#X connect 39 0 81 0;
#X connect 39 1 33 0;
#X connect 39 2 67 0;
#X connect 40 0 46 0;
#X connect 40 0 66 0;
#X connect 41 0 47 0;
#X connect 41 1 40 0;
#X connect 42 0 44 0;
#X connect 43 0 45 0;
#X connect 43 1 42 0;
#X connect 48 0 43 0;
#X connect 49 0 51 0;
#X connect 50 0 49 1;
#X connect 51 0 37 0;
#X connect 52 0 0 0;
#X connect 52 1 0 1;
#X connect 53 0 6 1;
#X connect 53 0 54 1;
#X connect 53 1 18 0;
#X connect 53 2 54 0;
#X connect 53 3 21 0;
#X connect 53 4 20 0;
#X connect 54 0 55 0;
#X connect 55 0 56 1;
#X connect 56 0 6 0;
#X connect 57 0 10 0;
#X connect 58 0 52 0;
#X connect 59 0 58 1;
#X connect 60 0 61 0;
#X connect 60 1 49 0;
#X connect 60 2 36 0;
#X connect 60 3 59 0;
#X connect 61 0 58 1;
#X connect 62 0 63 0;
#X connect 63 0 35 0;
#X connect 69 0 3 1;
#X connect 70 0 1 0;
#X connect 71 0 1 1;
#X connect 72 0 17 0;
#X connect 74 0 3 0;
#X connect 75 0 53 0;
#X connect 76 0 19 0;
#X connect 77 0 15 1;
#X connect 77 0 17 1;
#X connect 77 0 14 1;
#X connect 78 0 11 0;
#X connect 79 0 60 0;
#X connect 80 0 39 0;
#X connect 81 0 82 0;
#X connect 81 1 68 0;
#X restore 100 381 pd \$0-gui.get;
#N canvas 1251 244 461 315 \$0-gui.clear 0;
#X msg 72 91 12;
#X obj 72 112 until;
#X obj 72 217 set \$0-key status;
#X obj 72 154 pointer;
#X obj 110 112 f \$0;
#X msg 72 133 next;
#X msg 110 133 traverse pd-\$1-graph;
#X obj 72 175 t b p;
#X msg 72 196 0;
#X obj 72 70 t b b;
#X text 112 70 Set all keys to off;
#X obj 72 49 r \$0-gui.clear;
#X obj 156 14 bng 15 250 50 0 empty empty empty 17 7 0 10 -262144 -1
-1;
#X connect 0 0 1 0;
#X connect 1 0 5 0;
#X connect 3 0 7 0;
#X connect 4 0 6 0;
#X connect 5 0 3 0;
#X connect 6 0 3 0;
#X connect 7 0 8 0;
#X connect 7 1 2 1;
#X connect 8 0 2 0;
#X connect 9 0 0 0;
#X connect 9 1 4 0;
#X connect 11 0 9 0;
#X connect 12 0 9 0;
#X restore 187 381 pd \$0-gui.clear;
#N canvas 916 450 500 415 \$0-in 0;
#X obj 58 32 r \$0-scale.in;
#X obj 109 98 list split 1;
#X obj 109 119 s \$0-root.in;
#X obj 191 249 until;
#X obj 92 312 set \$0-key status;
#X obj 191 291 pointer;
#X obj 231 228 f \$0;
#X msg 191 270 next;
#X msg 231 249 traverse pd-\$1-graph \, next;
#X obj 75 161 list split 1;
#X obj 88 187 list;
#X obj 75 212 t b b f b;
#X obj 191 228 % 12;
#X obj 92 140 s \$0-gui.clear;
#X obj 58 337 s \$0-gui.get;
#X obj 220 32 r \$0-intervals.in;
#X obj 259 76 list length;
#X obj 259 97 array size \$0-intervals;
#X obj 220 53 t b l l;
#X obj 239 118 array set \$0-intervals;
#X obj 58 53 t b l b l;
#X obj 220 139 s \$0-intervals.toScale;
#X msg 92 252 990;
#X connect 0 0 20 0;
#X connect 1 0 2 0;
#X connect 3 0 7 0;
#X connect 5 0 4 1;
#X connect 6 0 8 0;
#X connect 7 0 5 0;
#X connect 8 0 5 0;
#X connect 9 0 11 0;
#X connect 9 1 10 1;
#X connect 10 0 9 0;
#X connect 11 0 10 0;
#X connect 11 1 22 0;
#X connect 11 2 12 0;
#X connect 11 3 6 0;
#X connect 12 0 3 0;
#X connect 15 0 18 0;
#X connect 16 0 17 0;
#X connect 18 0 21 0;
#X connect 18 1 19 0;
#X connect 18 2 16 0;
#X connect 20 0 14 0;
#X connect 20 1 9 0;
#X connect 20 2 13 0;
#X connect 20 3 1 0;
#X connect 22 0 4 0;
#X restore 100 360 pd \$0-in;
#N canvas 1075 121 518 662 \$0-intervals.toScale 0;
#X obj 233 460 until;
#X obj 117 276 array get \$0-intervals;
#X obj 117 297 list split 1;
#X obj 130 318 list;
#X obj 134 380 f 0;
#X obj 161 380 +;
#X obj 233 382 f 0;
#X obj 262 382 + 1;
#X obj 168 194 array size \$0-intervals;
#X obj 168 235 array size \$1;
#X msg 265 255 0;
#X obj 193 438 array set \$1 0;
#X obj 134 523 set \$0-key status;
#X obj 233 502 pointer;
#X obj 273 460 f \$0;
#X msg 233 481 next;
#X msg 273 481 traverse pd-\$1-graph \, next;
#X obj 134 422 t b f;
#X obj 117 339 t b b f b;
#X obj 144 121 r \$0-root;
#X obj 134 401 % 12;
#X obj 117 142 f 0;
#X text 64 421 Turn on relevent keys, f 10;
#X obj 262 235 s \$0-modulate.set;
#X obj 324 179 s \$0-gui.clear;
#X obj 117 100 r \$0-intervals.toScale;
#X msg 134 441 990;
#X obj 117 163 t b f b;
#X connect 0 0 15 0;
#X connect 1 0 2 0;
#X connect 2 0 18 0;
#X connect 2 1 3 1;
#X connect 3 0 2 0;
#X connect 4 0 5 0;
#X connect 4 0 20 0;
#X connect 5 0 4 1;
#X connect 6 0 7 0;
#X connect 6 0 11 1;
#X connect 7 0 6 1;
#X connect 8 0 23 0;
#X connect 8 0 9 0;
#X connect 10 0 6 1;
#X connect 13 0 12 1;
#X connect 14 0 16 0;
#X connect 15 0 13 0;
#X connect 16 0 13 0;
#X connect 17 0 26 0;
#X connect 17 1 11 0;
#X connect 17 1 0 0;
#X connect 18 0 3 0;
#X connect 18 1 4 0;
#X connect 18 2 5 1;
#X connect 18 3 6 0;
#X connect 18 3 14 0;
#X connect 19 0 21 0;
#X connect 20 0 17 0;
#X connect 21 0 27 0;
#X connect 25 0 21 0;
#X connect 26 0 12 0;
#X connect 27 0 1 0;
#X connect 27 1 4 1;
#X connect 27 2 8 0;
#X connect 27 2 10 0;
#X connect 27 2 24 0;
#X restore 100 402 pd \$0-intervals.toScale;
#X obj 105 130 cnv 15 140 65 empty empty empty 20 12 0 14 -257985 -66577
0;
#N canvas 1238 547 504 365 \$0-graph 0;
#X scalar 1011-key 990 950 0 0 33 \;;
#X scalar 1011-key 0 0 1 10 0 \;;
#X scalar 1011-key 990 0 2 20 33 \;;
#X scalar 1011-key 0 0 3 30 0 \;;
#X scalar 1011-key 990 0 4 40 33 \;;
#X scalar 1011-key 0 0 5 60 33 \;;
#X scalar 1011-key 990 0 6 70 0 \;;
#X scalar 1011-key 0 0 7 80 33 \;;
#X scalar 1011-key 990 0 8 90 0 \;;
#X scalar 1011-key 0 0 9 100 33 \;;
#X scalar 1011-key 990 0 10 110 0 \;;
#X scalar 1011-key 990 0 11 120 33 \;;
#X coords 0 -2 140 63 140 65 2 100 100;
#X restore 105 130 pd \$0-graph;
#X obj 396 114 inlet;
#X obj 396 135 route modulate random;
#X obj 396 286 t b f;
#X obj 396 327 s \$0-modulate.in;
#X obj 423 306 s \$0-modulate.amt.in;
#X obj 457 246 t b f;
#X obj 484 266 s \$0-random.amt.in;
#X obj 457 287 s \$0-random.in;
#X obj 519 158 list split 1;
#X obj 519 179 makefilename \$0-%s.in;
#X obj 519 200 t b s;
#X obj 519 221 list;
#X obj 519 242 s;
#X obj 396 491 append \$0-key status root id x y;
#X msg 722 232 12;
#X obj 722 253 until;
#X obj 722 295 pointer;
#X obj 790 208 f \$0;
#X msg 722 274 next;
#X msg 790 229 traverse pd-\$1-graph;
#X obj 722 412 set \$0-key root;
#X obj 722 316 t b p;
#X obj 722 192 t b f b;
#X obj 722 337 f 0;
#X obj 748 337 + 1;
#X obj 722 358 ==;
#X msg 761 230 0;
#X obj 722 379 * 950;
#X obj 722 101 r \$0-root;
#X obj 744 169 v \$1-root;
#X msg 100 268 \; \$1-init bang \; \$1-modulate.amt.in 4 \; \$1-random.amt.in
7 \; \$1-intervals.in 2 2 1 2 2 2 1 \; \$1-root.in 0 \;;
#X obj 105 114 cnv 15 100 15 empty \$0-label \$1 0 10 0 8 -262144 -1
0;
#X connect 1 0 45 5;
#X connect 2 0 7 0;
#X connect 3 0 6 0;
#X connect 4 0 8 0;
#X connect 4 1 2 0;
#X connect 4 2 13 0;
#X connect 4 2 3 0;
#X connect 5 0 4 0;
#X connect 7 0 1 0;
#X connect 8 0 9 0;
#X connect 9 0 10 0;
#X connect 10 0 11 0;
#X connect 10 0 12 0;
#X connect 11 0 10 1;
#X connect 12 0 45 0;
#X connect 13 0 10 1;
#X connect 23 0 24 0;
#X connect 24 0 25 0;
#X connect 25 0 62 0;
#X connect 32 0 33 0;
#X connect 33 0 34 0;
#X connect 33 1 37 0;
#X connect 33 2 40 0;
#X connect 34 0 35 0;
#X connect 34 1 36 0;
#X connect 37 0 39 0;
#X connect 37 1 38 0;
#X connect 40 0 41 0;
#X connect 40 1 43 1;
#X connect 41 0 42 0;
#X connect 42 0 43 0;
#X connect 42 1 44 1;
#X connect 43 0 44 0;
#X connect 46 0 47 0;
#X connect 47 0 50 0;
#X connect 48 0 53 0;
#X connect 49 0 51 0;
#X connect 50 0 48 0;
#X connect 51 0 48 0;
#X connect 53 0 55 0;
#X connect 53 1 52 1;
#X connect 54 0 46 0;
#X connect 54 1 57 1;
#X connect 54 2 49 0;
#X connect 54 2 58 0;
#X connect 55 0 56 0;
#X connect 55 0 57 0;
#X connect 56 0 55 1;
#X connect 57 0 59 0;
#X connect 58 0 55 1;
#X connect 59 0 52 0;
#X connect 60 0 54 0;
#X connect 60 0 61 0;
#X coords 0 -1 1 1 210 100 1 100 100;
