#N canvas 684 119 1058 804 10;
#X obj 534 348 list split 1;
#X obj 547 369 list;
#X obj 506 492 list store;
#X msg 574 448 append \$1;
#X obj 506 262 t b l b, f 10;
#X obj 506 513 outlet;
#X obj 364 104 inlet;
#N canvas 457 72 352 612 \$0-quantize 0;
#X obj 37 37 inlet;
#X obj 37 88 route float symbol;
#X obj 89 109 list fromsymbol;
#X obj 123 151 list split 1;
#X obj 136 172 list;
#X obj 89 130 list split 1;
#X obj 123 192 t b f;
#X obj 195 74 f 0;
#X obj 150 408 pack f 0;
#X obj 150 450 - 1;
#X obj 195 450 + 1;
#X obj 89 151 - 48;
#X obj 150 429 route 98 102 35 115;
#X obj 37 58 t a b;
#X obj 37 549 outlet;
#X obj 37 322 array get \$1;
#X obj 37 191 t f f b;
#X obj 37 232 %;
#X obj 76 216 array size \$1;
#X obj 56 256 /;
#X obj 56 277 i;
#X obj 56 298 * 12;
#X obj 76 371 v \$1-root;
#X obj 37 343 t f f b;
#X obj 56 399 <;
#X obj 56 420 * 12;
#X obj 37 374 +;
#X obj 37 445 +;
#X obj 68 511 * 12;
#X obj 68 480 r \$0-octave;
#X obj 135 549 outlet;
#X obj 37 527 +;
#X obj 37 466 -;
#X obj 135 528 +;
#X connect 0 0 13 0;
#X connect 1 0 16 0;
#X connect 1 1 2 0;
#X connect 2 0 5 0;
#X connect 3 0 6 0;
#X connect 3 1 4 1;
#X connect 4 0 3 0;
#X connect 5 0 11 0;
#X connect 5 1 3 0;
#X connect 6 0 4 0;
#X connect 6 1 8 0;
#X connect 7 0 8 1;
#X connect 7 0 32 1;
#X connect 7 0 33 1;
#X connect 8 0 12 0;
#X connect 9 0 8 1;
#X connect 9 0 32 1;
#X connect 9 0 33 1;
#X connect 10 0 8 1;
#X connect 10 0 32 1;
#X connect 10 0 33 1;
#X connect 11 0 16 0;
#X connect 12 0 9 0;
#X connect 12 1 9 0;
#X connect 12 2 10 0;
#X connect 12 3 10 0;
#X connect 13 0 1 0;
#X connect 13 1 7 0;
#X connect 15 0 23 0;
#X connect 16 0 17 0;
#X connect 16 0 33 0;
#X connect 16 1 19 0;
#X connect 16 2 18 0;
#X connect 17 0 15 0;
#X connect 18 0 17 1;
#X connect 18 0 19 1;
#X connect 19 0 20 0;
#X connect 20 0 21 0;
#X connect 21 0 26 1;
#X connect 22 0 24 1;
#X connect 23 0 26 0;
#X connect 23 1 24 0;
#X connect 23 2 22 0;
#X connect 24 0 25 0;
#X connect 25 0 27 1;
#X connect 26 0 27 0;
#X connect 27 0 32 0;
#X connect 28 0 31 1;
#X connect 29 0 28 0;
#X connect 31 0 14 0;
#X connect 32 0 31 0;
#X connect 33 0 30 0;
#X restore 574 406 pd \$0-quantize;
#X obj 534 390 t b a;
#X obj 267 141 nbx 4 14 0 12 0 0 \$0-octave \$0-octave.in octave 0
-8 0 8 -257985 -1 -1 6 256;
#X obj 105 130 cnv 15 160 65 empty empty empty 20 12 0 14 -257985 -66577
0;
#N canvas 0 50 450 250 (subpatch) 0;
#X array \$2 4 float 3;
#A 0 1.72308 6 7 9;
#X coords 0 14 4 0 160 65 1 0 0;
#X restore 105 130 graph;
#X obj 433 246 t b l;
#X obj 433 578 s \$0-label;
#X msg 433 557 color #FFFFFF #000000 #000000;
#X obj 105 114 cnv 15 100 15 empty \$0-label \$2 0 10 0 8 -262144 -1
0;
#X obj 267 157 bng 38 250 50 0 \$0-go \$0-go.in empty 17 7 0 10 -257985
-1 -1;
#X obj 445 311 array get \$2;
#X obj 445 332 t b l b;
#X obj 445 290 r \$0-go;
#X obj 364 356 s \$0-octave.in;
#X obj 364 125 route octave;
#X obj 268 158 cnv 36 36 36 empty \$0-led GO 7 18 0 18 -262017 -1 0
;
#X msg 229 557 color #fffa00 0 22;
#X msg 348 557 color 13 0 0;
#X obj 229 536 del 50;
#X obj 229 577 s \$0-led;
#X obj 682 536 list length;
#X obj 682 557 array size \$2;
#X obj 655 507 t l l;
#X obj 655 578 array set \$2;
#X obj 655 484 list store;
#X msg 655 448 append \$1;
#X connect 0 0 8 0;
#X connect 0 1 1 1;
#X connect 1 0 0 0;
#X connect 2 0 5 0;
#X connect 3 0 2 0;
#X connect 4 0 2 0;
#X connect 4 0 31 0;
#X connect 4 1 0 0;
#X connect 4 2 2 1;
#X connect 4 2 31 1;
#X connect 6 0 21 0;
#X connect 7 0 3 0;
#X connect 7 1 32 0;
#X connect 8 0 1 0;
#X connect 8 1 7 0;
#X connect 12 0 14 0;
#X connect 12 0 24 0;
#X connect 12 0 25 0;
#X connect 12 1 4 0;
#X connect 14 0 13 0;
#X connect 17 0 18 0;
#X connect 18 0 2 0;
#X connect 18 1 0 0;
#X connect 18 2 2 1;
#X connect 19 0 17 0;
#X connect 19 0 25 0;
#X connect 19 0 24 0;
#X connect 21 0 20 0;
#X connect 21 1 12 0;
#X connect 23 0 26 0;
#X connect 24 0 26 0;
#X connect 25 0 23 0;
#X connect 27 0 28 0;
#X connect 29 0 30 0;
#X connect 29 1 27 0;
#X connect 31 0 29 0;
#X connect 32 0 31 0;
#X coords 0 -1 1 1 210 100 1 100 100;
