#N canvas 482 162 980 646 10;
#X obj 210 140 nbx 3 15 -1e+037 1e+037 0 0 \$0-length \$0-length.in
leng 33 8 0 8 -257985 -1 -1 8 256;
#N canvas 0 50 450 250 (subpatch) 0;
#X array \$0-seq 8 float 3;
#A 0 0.371713 0.721266 0.19083 0.925992 0.606997 0.176312 0.290913
0.476822;
#X coords 0 1 8 0 100 50 1 0 0;
#X restore 105 130 graph;
#X obj 355 100 loadbang;
#X obj 355 121 bng 15 250 50 0 empty empty empty 17 7 0 10 -262144
-1 -1;
#X obj 355 142 f \$0;
#N canvas 0 50 450 300 \$0-bar 0;
#X obj 100 183 pack f \$0;
#X msg 100 204 \; \$2-bar vis_size \$1 13;
#X obj 100 141 /;
#X obj 100 100 r \$0-go;
#X obj 153 125 r \$0-length;
#X obj 100 121 + 1;
#X obj 100 162 * 98;
#X connect 0 0 1 0;
#X connect 2 0 6 0;
#X connect 3 0 5 0;
#X connect 4 0 2 1;
#X connect 5 0 2 0;
#X connect 6 0 0 0;
#X restore 100 204 pd \$0-bar;
#X obj 210 160 nbx 3 15 -1e+037 1e+037 0 0 \$0-floor \$0-floor.in floor
33 8 0 8 -257985 -1 -1 36 256;
#X obj 210 120 nbx 3 15 -1e+037 1e+037 0 0 \$0-step \$0-step.in step
33 8 0 8 -257985 -1 -1 0 256;
#X obj 210 180 nbx 3 15 -1e+037 1e+037 0 0 \$0-range \$0-range.in range
33 8 0 8 -257985 -1 -1 24 256;
#X obj 100 240 inlet;
#X msg 157 328 0;
#X obj 157 306 route 0;
#X obj 196 328 route float;
#X obj 100 285 route bang;
#X obj 100 381 f 0;
#X obj 152 397 r \$0-length;
#X obj 126 381 + 1;
#X obj 115 359 r \$0-step;
#X obj 208 541 s \$0-step.in;
#X msg 208 508 set \$1;
#X obj 100 541 s \$0-go;
#X obj 151 541 s \$0-led;
#X obj 151 508 bang;
#X obj 352 240 r \$0-go;
#X obj 559 390 array size \$1;
#X obj 352 374 t f b;
#X obj 352 457 array get \$1;
#X obj 352 415 expr floor(((floor($f1) % 12) / 12) * $f2) \; floor($f1
/ 12) * 12, f 35;
#X obj 352 499 +;
#X obj 352 478 i;
#X obj 352 541 outlet;
#X obj 352 353 +;
#X obj 367 328 r \$0-floor;
#X obj 352 309 *;
#X obj 367 284 r \$0-range;
#X obj 427 100 r \$0-length;
#X obj 427 121 array size \$0-seq;
#X obj 119 455 sel 1;
#X obj 119 434 >=;
#X msg 115 476 0;
#X obj 100 412 t f f f;
#X obj 152 418 - 1;
#X obj 352 263 array get \$0-seq 0 1;
#X obj 105 180 cnv 14 100 15 empty empty empty 20 12 0 14 -1 -66577
0;
#X obj 106 181 cnv 1 78 13 empty \$0-bar empty 20 12 0 14 -257985 -66577
0;
#X obj 271 140 bng 15 250 50 0 \$0-random.one \$0-random.one.in one
17 7 0 8 -257985 -1 -1;
#X obj 271 160 bng 15 250 50 0 \$0-random.all \$0-random.all.in all
17 7 0 8 -257985 -1 -1;
#X obj 271 180 bng 15 250 50 0 \$0 \$0-bang bang 17 7 0 8 -257985 -1
-1;
#N canvas 0 50 450 402 \$0-random 0;
#X obj 100 50 r \$0-random.one;
#X obj 127 144 random;
#X obj 160 123 r \$0-length;
#X obj 127 165 t b f;
#X obj 127 186 random 1e+006;
#X obj 127 207 / 1e+006;
#X obj 127 228 array set \$0-seq;
#X obj 262 123 r \$0-length;
#X obj 220 50 r \$0-random.all;
#X obj 247 144 f 0;
#X obj 247 165 t f b;
#X obj 247 186 until;
#X obj 247 207 t b b;
#X obj 247 244 random 1e+006;
#X obj 247 265 / 1e+006;
#X obj 308 223 f 0;
#X obj 336 223 + 1;
#X msg 323 181 0;
#X obj 247 286 array set \$0-seq;
#X obj 220 71 t b b;
#X obj 100 71 t b b;
#X obj 100 328 s \$0-label;
#X msg 100 307 color #FFFFFF #000000 #000000;
#X connect 0 0 20 0;
#X connect 1 0 3 0;
#X connect 2 0 1 1;
#X connect 3 0 4 0;
#X connect 3 1 6 1;
#X connect 4 0 5 0;
#X connect 5 0 6 0;
#X connect 7 0 9 1;
#X connect 8 0 19 0;
#X connect 9 0 10 0;
#X connect 10 0 11 0;
#X connect 10 1 17 0;
#X connect 11 0 12 0;
#X connect 12 0 13 0;
#X connect 12 1 15 0;
#X connect 13 0 14 0;
#X connect 14 0 18 0;
#X connect 15 0 16 0;
#X connect 15 0 18 1;
#X connect 16 0 15 1;
#X connect 17 0 15 1;
#X connect 19 0 22 0;
#X connect 19 1 9 0;
#X connect 20 0 22 0;
#X connect 20 1 1 0;
#X connect 22 0 21 0;
#X coords 0 402 1 401 85 60 0;
#X restore 168 204 pd \$0-random;
#X msg 355 163 \; \$1-length.in 8 \; \$1-floor.in 36 \; \$1-range.in
24 \; \$1-random.all.in bang;
#X obj 422 541 outlet;
#X obj 422 503 r \$0-go;
#X obj 259 359 s \$0-controls;
#X obj 557 100 r \$0-controls;
#X obj 557 121 route random;
#X obj 557 184 t b s;
#X obj 557 206 s;
#X obj 557 163 makefilename \$0-random.%s.in;
#X obj 626 184 list split 1;
#X obj 626 226 t b s;
#X obj 626 247 f;
#X obj 626 268 s;
#X obj 626 205 makefilename \$0-%s.in;
#X obj 557 142 symbol;
#X obj 100 508 %;
#X obj 105 114 cnv 15 50 15 empty \$0-label \$0-seq 0 10 0 8 -262144
-1 0;
#X connect 2 0 3 0;
#X connect 3 0 4 0;
#X connect 4 0 49 0;
#X connect 9 0 13 0;
#X connect 10 0 14 0;
#X connect 11 0 10 0;
#X connect 11 1 12 0;
#X connect 12 0 14 0;
#X connect 12 1 52 0;
#X connect 13 0 14 0;
#X connect 13 1 11 0;
#X connect 14 0 40 0;
#X connect 15 0 41 0;
#X connect 15 0 64 1;
#X connect 16 0 14 1;
#X connect 17 0 14 1;
#X connect 19 0 18 0;
#X connect 22 0 21 0;
#X connect 23 0 42 0;
#X connect 24 0 27 1;
#X connect 25 0 27 0;
#X connect 25 1 24 0;
#X connect 26 0 29 0;
#X connect 27 0 26 0;
#X connect 27 1 28 1;
#X connect 28 0 30 0;
#X connect 29 0 28 0;
#X connect 31 0 25 0;
#X connect 32 0 31 1;
#X connect 33 0 31 0;
#X connect 34 0 33 1;
#X connect 35 0 36 0;
#X connect 37 0 39 0;
#X connect 38 0 37 0;
#X connect 39 0 14 1;
#X connect 40 0 64 0;
#X connect 40 1 38 0;
#X connect 40 1 22 0;
#X connect 40 1 19 0;
#X connect 40 2 16 0;
#X connect 41 0 38 1;
#X connect 42 0 33 0;
#X connect 47 0 13 0;
#X connect 51 0 50 0;
#X connect 53 0 54 0;
#X connect 54 0 63 0;
#X connect 54 1 58 0;
#X connect 55 0 56 0;
#X connect 55 1 56 1;
#X connect 57 0 55 0;
#X connect 58 0 62 0;
#X connect 58 1 60 1;
#X connect 59 0 60 0;
#X connect 59 1 61 1;
#X connect 60 0 61 0;
#X connect 62 0 59 0;
#X connect 63 0 57 0;
#X connect 64 0 20 0;
#X coords 0 -1 1 1 210 100 1 100 100;
