#N canvas 997 176 943 727 10;
#X obj 49 163 samplerate~;
#X obj 49 232 sig~;
#X obj 86 248 /~;
#X obj 87 297 -~;
#X obj 103 271 wrap~;
#X obj 49 487 /~;
#X obj 86 470 +~;
#X obj 129 231 abs~;
#X obj 49 513 expr~ copysign($v1 \, $v2);
#X obj 49 579 phasor~;
#X obj 129 367 -~;
#X obj 159 314 +~ 1;
#X obj 144 340 /~;
#X obj 129 390 /~;
#X obj 71 341 /~;
#X obj 97 357 -~;
#X obj 129 453 expr~ $v1 < $v2;
#X obj 49 122 loadbang;
#X obj 49 86 s~ \$0-frequency;
#X obj 190 149 r~ \$0-frequency;
#X obj 49 60 inlet~;
#X obj 149 61 inlet~;
#X obj 149 86 s~ \$0-ditherer;
#X obj 216 411 r~ \$0-ditherer;
#X obj 49 600 outlet~;
#X obj 129 411 *~ 2;
#X obj 129 432 -~ 1;
#X obj 190 214 clip~;
#X obj 203 179 expr -($f1 / 2) \; $f1 / 2;
#X obj 49 143 bng 15 250 50 0 empty empty empty 17 7 0 10 -262144 -1
-1;
#X obj 216 432 clip~ -1 1;
#X obj 242 65 inlet;
#X obj 88 549 r \$0-phase;
#X obj 242 86 s \$0-phase;
#X connect 0 0 1 0;
#X connect 0 0 28 0;
#X connect 1 0 2 0;
#X connect 1 0 5 0;
#X connect 1 0 12 0;
#X connect 1 0 14 0;
#X connect 2 0 4 0;
#X connect 2 0 3 0;
#X connect 3 0 11 0;
#X connect 3 0 14 1;
#X connect 3 0 6 0;
#X connect 4 0 3 1;
#X connect 5 0 8 0;
#X connect 6 0 5 1;
#X connect 7 0 2 1;
#X connect 7 0 10 0;
#X connect 8 0 9 0;
#X connect 9 0 24 0;
#X connect 10 0 13 0;
#X connect 11 0 12 1;
#X connect 12 0 10 1;
#X connect 12 0 15 1;
#X connect 13 0 25 0;
#X connect 14 0 15 0;
#X connect 15 0 13 1;
#X connect 16 0 6 1;
#X connect 17 0 29 0;
#X connect 19 0 27 0;
#X connect 20 0 18 0;
#X connect 21 0 22 0;
#X connect 23 0 30 0;
#X connect 25 0 26 0;
#X connect 26 0 16 0;
#X connect 27 0 8 1;
#X connect 27 0 7 0;
#X connect 28 0 27 1;
#X connect 28 1 27 2;
#X connect 29 0 0 0;
#X connect 30 0 16 1;
#X connect 31 0 33 0;
#X connect 32 0 9 1;
