#N canvas 246 260 1432 691 10;
#X obj 433 437 dac~ 1 2;
#X obj 532 301 *~;
#X obj 432 301 *~;
#X obj 547 246 clip~ 0 1;
#X obj 928 92 loadbang;
#X obj 928 113 bng 15 250 50 0 empty empty empty 17 7 0 10 -262144
-1 -1;
#X obj 532 142 inlet~;
#X obj 547 267 lop~ 5;
#X obj 108 120 hsl 195 45 0 1 0 0 \$0-level.out \$0-level.in empty
-2 8 0 8 -257985 -1 -1 7760 0;
#X obj 105 180 nbx 4 15 0 1 0 0 \$0-level.numOut \$0-level.numIn level
0 -6 0 8 -257985 -1 -1 0.4 256;
#X obj 928 253 r \$0-level.out;
#X msg 928 274 set \$1;
#X obj 928 295 s \$0-level.numIn;
#X msg 1038 274 set \$1;
#X obj 1038 253 r \$0-level.numOut;
#X obj 1038 295 s \$0-level.In;
#X obj 547 162 r \$0-level.out;
#X obj 637 162 r \$0-level.numOut;
#X obj 547 185 sig~ 1;
#X obj 928 133 f \$0;
#X obj 432 92 inlet~ fwd;
#X obj 489 113 s \$0-messages;
#X obj 928 329 r \$0-messages;
#X obj 1041 366 list split 1;
#X obj 1041 450 s;
#X obj 1041 408 t b s;
#X obj 1041 429 list;
#X obj 1041 387 makefilename \$0-%s.in;
#X obj 290 180 tgl 15 0 \$0-dsp \$0-dsp.in dsp 0 -6 0 8 -257985 -1
-1 0 1;
#X msg 290 200 \; pd dsp \$1;
#X obj 273 180 tgl 15 0 \$0-rec \$0-rec.in rec 0 -6 0 8 -257985 -1
-1 0 1;
#X obj 545 325 r \$0-rec;
#X obj 545 346 sel 1 0;
#X obj 607 354 openpanel;
#X msg 607 375 open -bytes 4 \$1;
#X obj 256 180 bng 15 250 50 0 \$0-file \$0-file.in empty 0 -6 0 8
-257985 -1 -1;
#X obj 607 325 r \$0-file;
#X obj 928 350 route file;
#X obj 928 371 route symbol bang;
#X obj 730 359 r \$0-load;
#X obj 928 392 s \$0-file.in;
#X obj 977 414 s \$0-load;
#X obj 607 437 writesf~ 2;
#X obj 547 206 *~;
#X msg 545 367 start;
#X msg 564 387 stop;
#X msg 928 159 \; \$1-level.in 0.4 \;;
#X connect 1 0 0 1;
#X connect 1 0 42 1;
#X connect 2 0 0 0;
#X connect 2 0 42 0;
#X connect 3 0 7 0;
#X connect 4 0 5 0;
#X connect 5 0 19 0;
#X connect 6 0 1 0;
#X connect 7 0 1 1;
#X connect 7 0 2 1;
#X connect 10 0 11 0;
#X connect 11 0 12 0;
#X connect 13 0 15 0;
#X connect 14 0 13 0;
#X connect 16 0 18 0;
#X connect 17 0 18 0;
#X connect 18 0 43 0;
#X connect 18 0 43 1;
#X connect 19 0 46 0;
#X connect 20 0 2 0;
#X connect 20 1 21 0;
#X connect 22 0 37 0;
#X connect 23 0 27 0;
#X connect 23 1 26 1;
#X connect 25 0 26 0;
#X connect 25 1 24 1;
#X connect 26 0 24 0;
#X connect 27 0 25 0;
#X connect 28 0 29 0;
#X connect 31 0 32 0;
#X connect 32 0 44 0;
#X connect 32 1 45 0;
#X connect 33 0 34 0;
#X connect 34 0 42 0;
#X connect 36 0 33 0;
#X connect 37 0 38 0;
#X connect 37 1 23 0;
#X connect 38 0 40 0;
#X connect 38 1 41 0;
#X connect 39 0 34 0;
#X connect 43 0 3 0;
#X connect 44 0 42 0;
#X connect 45 0 42 0;
#X coords 0 -1 1 1 210 100 1 100 100;
