#N struct 1579-key float status float root float id float x float y
;
#N canvas 145 169 1008 709 10;
#N canvas 886 473 450 300 \$0-output 0;
#X obj 122 115 cc.output~;
#X text 129 99 Volume Control;
#X obj 121 55 inlet~;
#X obj 324 55 inlet~;
#X connect 2 0 0 0;
#X connect 3 0 0 1;
#X restore 148 483 pd \$0-output;
#X obj 148 102 r start;
#N canvas 367 112 453 495 \$0-drums 0;
#X obj 37 37 inlet;
#X obj 37 399 outlet~;
#X obj 37 114 cc.synths~/ezdrummer;
#N canvas 0 50 450 410 random.drums 0;
#X obj 37 37 inlet;
#X obj 37 63 f 0;
#X obj 65 63 + 1;
#X obj 37 253 sel 0 1 2 3 4 5 6 7, f 20;
#X obj 91 189 random 4;
#X obj 91 210 + 1;
#X obj 91 231 + 4;
#X obj 64 126 sel 0;
#X obj 64 105 % 32;
#X obj 91 147 % 8;
#X obj 91 168 sel 0;
#X obj 37 84 t f f;
#X obj 37 163 % 4;
#X msg 64 147 8;
#X msg 37 287 60 1;
#X msg 99 287 60 1;
#X msg 162 287 60 1;
#X msg 224 287 60 1;
#X msg 287 287 60 1;
#X msg 350 287 60 1;
#X obj 37 308 outlet;
#X obj 99 308 outlet;
#X obj 162 308 outlet;
#X obj 224 308 outlet;
#X obj 287 308 outlet;
#X obj 350 308 outlet;
#X connect 0 0 1 0;
#X connect 1 0 2 0;
#X connect 1 0 11 0;
#X connect 2 0 1 1;
#X connect 3 0 14 0;
#X connect 3 0 17 0;
#X connect 3 0 18 0;
#X connect 3 0 19 0;
#X connect 3 1 16 0;
#X connect 3 2 18 0;
#X connect 3 3 14 0;
#X connect 3 3 16 0;
#X connect 3 3 19 0;
#X connect 3 4 15 0;
#X connect 3 4 17 0;
#X connect 3 5 16 0;
#X connect 3 5 18 0;
#X connect 3 6 14 0;
#X connect 3 6 19 0;
#X connect 3 7 16 0;
#X connect 3 7 19 0;
#X connect 4 0 5 0;
#X connect 5 0 6 0;
#X connect 6 0 12 1;
#X connect 7 0 13 0;
#X connect 7 1 9 0;
#X connect 8 0 7 0;
#X connect 9 0 10 0;
#X connect 10 0 4 0;
#X connect 11 0 12 0;
#X connect 11 1 8 0;
#X connect 12 0 3 0;
#X connect 13 0 12 1;
#X connect 14 0 20 0;
#X connect 15 0 21 0;
#X connect 16 0 22 0;
#X connect 17 0 23 0;
#X connect 18 0 24 0;
#X connect 19 0 25 0;
#X restore 37 58 pd random.drums;
#X connect 0 0 3 0;
#X connect 2 0 1 0;
#X connect 2 1 1 0;
#X connect 2 2 1 0;
#X connect 2 3 1 0;
#X connect 2 4 1 0;
#X connect 2 5 1 0;
#X connect 3 0 2 0;
#X connect 3 1 2 1;
#X connect 3 2 2 2;
#X connect 3 3 2 3;
#X connect 3 4 2 4;
#X connect 3 5 2 5;
#X restore 148 253 pd \$0-drums;
#X obj 148 274 throw~ test-0;
#X obj 246 275 throw~ test-1;
#N canvas 448 515 450 300 \$0-scale 0;
#X msg 107 87 intervals 3 2 2 3 2;
#X obj 107 65 loadbang;
#X obj 107 118 cc.12tet test_scale;
#X connect 0 0 2 0;
#X connect 1 0 0 0;
#X restore 148 330 pd \$0-scale;
#X obj 356 212 random 2;
#X obj 356 233 sel 1;
#X obj 246 212 random 2;
#X obj 246 233 sel 1;
#X obj 148 365 cc.mixer~ test 3;
#X obj 356 275 throw~ test-2;
#X obj 148 157 metro 150;
#N canvas 448 151 497 615 \$0-instrument0 1;
#X obj 37 37 inlet;
#X obj 37 354 *~;
#X obj 37 378 outlet~;
#N canvas 428 227 936 599 vv 0;
#X obj 156 161 inlet~;
#X obj 156 250 *~ 0;
#X obj 156 269 phasor~;
#X obj 156 288 *~ 4;
#X obj 156 307 -~ 2;
#X obj 156 326 abs~;
#X obj 156 345 -~ 1;
#X obj 156 364 outlet~;
#X obj 177 208 samplerate~;
#X obj 177 229 / 2;
#X obj 177 187 r \$0-init;
#X text 279 157 based on one of acriel's random modulation algorithms
;
#X connect 0 0 1 0;
#X connect 1 0 2 0;
#X connect 2 0 3 0;
#X connect 3 0 4 0;
#X connect 4 0 5 0;
#X connect 5 0 6 0;
#X connect 6 0 7 0;
#X connect 8 0 9 0;
#X connect 9 0 1 1;
#X connect 10 0 8 0;
#X restore 87 278 pd vv;
#X obj 86 253 noise~;
#X obj 159 337 vline~;
#X obj 37 215 t f b;
#X msg 159 275 1 5 \, 0.25 20 5 \, 0 100 25;
#X obj 240 181 sel 0;
#X obj 240 202 tgl 15 0 empty empty empty 17 7 0 10 -262144 -1 -1 1
1;
#X obj 240 222 sel 0 1;
#X msg 320 243 random one;
#X msg 240 243 random all;
#X obj 279 23 loadbang;
#X obj 37 306 cc.waves~/dphasor;
#X obj 37 330 cc.waves~/rTri 0.5;
#X obj 37 60 cc.12tet/sequence test_scale;
#X msg 279 44 floor 60 \, range 24;
#X obj 37 236 mtof;
#X connect 0 0 16 0;
#X connect 1 0 2 0;
#X connect 3 0 14 1;
#X connect 4 0 3 0;
#X connect 5 0 1 1;
#X connect 6 0 18 0;
#X connect 6 1 7 0;
#X connect 7 0 5 0;
#X connect 8 0 9 0;
#X connect 9 0 10 0;
#X connect 10 0 12 0;
#X connect 10 1 11 0;
#X connect 11 0 16 0;
#X connect 12 0 16 0;
#X connect 13 0 17 0;
#X connect 14 0 15 0;
#X connect 15 0 1 0;
#X connect 16 0 6 0;
#X connect 16 1 8 0;
#X connect 17 0 16 0;
#X connect 18 0 14 0;
#X restore 246 254 pd \$0-instrument0;
#N canvas 448 151 497 615 \$0-instrument1 0;
#X obj 37 37 inlet;
#X obj 37 354 *~;
#X obj 37 378 outlet~;
#N canvas 428 227 936 599 vv 0;
#X obj 156 161 inlet~;
#X obj 156 250 *~ 0;
#X obj 156 269 phasor~;
#X obj 156 288 *~ 4;
#X obj 156 307 -~ 2;
#X obj 156 326 abs~;
#X obj 156 345 -~ 1;
#X obj 156 364 outlet~;
#X obj 177 208 samplerate~;
#X obj 177 229 / 2;
#X obj 177 187 r \$0-init;
#X text 279 157 based on one of acriel's random modulation algorithms
;
#X connect 0 0 1 0;
#X connect 1 0 2 0;
#X connect 2 0 3 0;
#X connect 3 0 4 0;
#X connect 4 0 5 0;
#X connect 5 0 6 0;
#X connect 6 0 7 0;
#X connect 8 0 9 0;
#X connect 9 0 1 1;
#X connect 10 0 8 0;
#X restore 87 278 pd vv;
#X obj 86 253 noise~;
#X obj 159 337 vline~;
#X obj 37 215 t f b;
#X msg 159 275 1 5 \, 0.25 20 5 \, 0 100 25;
#X obj 240 181 sel 0;
#X obj 240 202 tgl 15 0 empty empty empty 17 7 0 10 -262144 -1 -1 1
1;
#X obj 240 222 sel 0 1;
#X msg 320 243 random one;
#X msg 240 243 random all;
#X obj 279 23 loadbang;
#X msg 279 44 floor 36 \, range 48;
#X obj 37 306 cc.waves~/dphasor;
#X obj 37 330 cc.waves~/tsSaw 0.5;
#X obj 37 60 cc.12tet/sequence test_scale;
#X obj 37 236 mtof;
#X connect 0 0 17 0;
#X connect 1 0 2 0;
#X connect 3 0 15 1;
#X connect 4 0 3 0;
#X connect 5 0 1 1;
#X connect 6 0 18 0;
#X connect 6 1 7 0;
#X connect 7 0 5 0;
#X connect 8 0 9 0;
#X connect 9 0 10 0;
#X connect 10 0 12 0;
#X connect 10 1 11 0;
#X connect 11 0 17 0;
#X connect 12 0 17 0;
#X connect 13 0 14 0;
#X connect 14 0 17 0;
#X connect 15 0 16 0;
#X connect 16 0 1 0;
#X connect 17 0 6 0;
#X connect 17 1 8 0;
#X connect 18 0 15 0;
#X restore 356 254 pd \$0-instrument1;
#X text 147 293 channel 0;
#X text 245 293 channel 1;
#X text 354 293 channel 2;
#X text 354 173 50% chance to do something each bang, f 14;
#X obj 199 102 r tempo;
#X obj 368 365 loadbang;
#X msg 368 386 \; tempo.in 150;
#X obj 568 98 nbx 4 15 -1e+037 1e+037 0 0 empty tempo.in empty 0 -8
0 10 -257985 -1 -1 150 256;
#X obj 568 118 s tempo;
#X obj 512 118 s start;
#X obj 512 98 tgl 15 0 empty empty empty 20 7 0 10 -257985 -1 -1 1
1;
#X text 421 461;
#X text 510 147 [cc.mixer~] - automatic bus channel generator, f 66
;
#X text 510 170 This abstraction generates an arbitrary amount of bussing
channels as defined by the user. Each bus can be accessed by via the
throw~ object. The name of each channel is defined by the first argument
followed by their channel number. The second argument sets the total
amount of channels. The total amount of channels cannot be changed
without re-initializing the object., f 66;
#X text 510 248 The UI allows the user to mute \, solo \, set levels
\, and set panning on a channel by channel basis. The clear button
removes all solos and mutes. The inertia value determines the amount
of time it takes for a value to change after the user has changed it.
, f 66;
#X connect 1 0 12 0;
#X connect 2 0 3 0;
#X connect 6 0 7 0;
#X connect 7 0 14 0;
#X connect 8 0 9 0;
#X connect 9 0 13 0;
#X connect 10 0 0 0;
#X connect 10 1 0 1;
#X connect 12 0 2 0;
#X connect 12 0 6 0;
#X connect 12 0 8 0;
#X connect 13 0 4 0;
#X connect 14 0 11 0;
#X connect 19 0 12 1;
#X connect 20 0 21 0;
#X connect 22 0 23 0;
#X connect 25 0 24 0;
#X coords 0 709 1 708 85 60 0;
