#N canvas 246 260 1432 691 10;
#N canvas 825 181 708 713 \$0-limiter 0;
#N canvas 356 131 1920 1007 \$0-gainComputer 0;
#X obj 67 154 env~ 256;
#X obj 169 316 expr~ 2*($v1 - $v2);
#X text 269 74 threshold;
#X obj 66 436 expr~ if($v2 < -$v5 \, $v1 \, if($v2 > $v5 \, $v3 + ($v1
- $v3)/max($v4 \, 1) \, $v1 + (1/max($v4 \, 1) - 1)*pow($v1 - $v3 +
$v5/2 \, 2.0)/(2*max($v5 \, 1e-006))));
#X obj 67 208 sig~;
#X obj 67 105 inlet~;
#X obj 66 517 outlet~;
#X obj 567 164 env~ 256;
#X obj 669 316 expr~ 2*($v1 - $v2);
#X obj 566 436 expr~ if($v2 < -$v5 \, $v1 \, if($v2 > $v5 \, $v3 +
($v1 - $v3)/max($v4 \, 1) \, $v1 + (1/max($v4 \, 1) - 1)*pow($v1 -
$v3 + $v5/2 \, 2.0)/(2*max($v5 \, 1e-006))));
#X obj 567 208 sig~;
#X obj 567 115 inlet~;
#X obj 566 517 outlet~;
#X text 474 76 knee radius;
#X text 371 74 ratio;
#X obj 67 76 block~ 256 4 1;
#X obj 271 198 lop~ 5;
#X obj 374 177 sig~ 16;
#X obj 374 198 lop~ 5;
#X obj 476 198 lop~ 5;
#X obj 476 177 sig~ 8;
#X obj 271 157 r \$0-level.out;
#X obj 361 157 r \$0-level.numOut;
#X obj 271 178 sig~ 1;
#X obj 271 219 rmstodb~;
#X connect 0 0 4 0;
#X connect 1 0 3 1;
#X connect 3 0 6 0;
#X connect 4 0 3 0;
#X connect 4 0 1 0;
#X connect 5 0 0 0;
#X connect 7 0 10 0;
#X connect 8 0 9 1;
#X connect 9 0 12 0;
#X connect 10 0 9 0;
#X connect 10 0 8 0;
#X connect 11 0 7 0;
#X connect 16 0 24 0;
#X connect 17 0 18 0;
#X connect 18 0 9 3;
#X connect 18 0 3 3;
#X connect 19 0 3 4;
#X connect 19 0 9 4;
#X connect 20 0 19 0;
#X connect 21 0 23 0;
#X connect 22 0 23 0;
#X connect 23 0 16 0;
#X connect 24 0 1 1;
#X connect 24 0 3 2;
#X connect 24 0 9 2;
#X connect 24 0 8 1;
#X restore 64 110 pd \$0-gainComputer;
#X obj 64 43 inlet~;
#X obj 168 43 inlet~;
#X obj 64 175 dbtorms~;
#X obj 64 219 clip~ 0 1;
#X obj 49 269 samplerate~;
#X obj 49 341 *~;
#X obj 49 293 expr (256 / $f1) * 1000;
#X obj 214 175 dbtorms~;
#X obj 214 219 clip~ 0 1;
#X obj 199 269 samplerate~;
#X obj 199 351 *~;
#X obj 199 293 expr (256 / $f1) * 1000;
#X obj 49 317 delread~ \$0-feedforwardL;
#X obj 199 317 delread~ \$0-feedforwardR;
#X obj 49 425 outlet~;
#X obj 199 425 outlet~;
#X obj 262 43 inlet;
#X obj 262 67 switch~;
#X obj 49 245 r \$0-init;
#X obj 199 245 r \$0-init;
#X obj 64 196 lop~ 500;
#X obj 214 196 lop~ 500;
#X connect 0 0 3 0;
#X connect 0 1 8 0;
#X connect 1 0 0 0;
#X connect 2 0 0 1;
#X connect 3 0 21 0;
#X connect 4 0 6 1;
#X connect 5 0 7 0;
#X connect 6 0 15 0;
#X connect 7 0 13 0;
#X connect 8 0 22 0;
#X connect 9 0 11 1;
#X connect 10 0 12 0;
#X connect 11 0 16 0;
#X connect 12 0 14 0;
#X connect 13 0 6 0;
#X connect 14 0 11 0;
#X connect 17 0 18 0;
#X connect 19 0 5 0;
#X connect 20 0 10 0;
#X connect 21 0 4 0;
#X connect 22 0 9 0;
#X restore 433 445 pd \$0-limiter;
#N canvas 661 305 874 667 \$0-bypass 0;
#X obj 40 69 samplerate~;
#X obj 40 93 expr (256 / $f1) * 1000;
#X obj 369 68 samplerate~;
#X obj 369 92 expr (256 / $f1) * 1000;
#X obj 40 117 delread~ \$0-feedforwardL;
#X obj 369 116 delread~ \$0-feedforwardR;
#X obj 571 44 inlet;
#X obj 571 98 switch~;
#X obj 369 151 outlet~;
#X obj 40 142 outlet~;
#X obj 40 45 r \$0-init;
#X obj 369 44 r \$0-init;
#X connect 0 0 1 0;
#X connect 1 0 4 0;
#X connect 2 0 3 0;
#X connect 3 0 5 0;
#X connect 4 0 9 0;
#X connect 5 0 8 0;
#X connect 6 0 7 0;
#X connect 10 0 0 0;
#X connect 11 0 2 0;
#X restore 525 445 pd \$0-bypass;
#X obj 467 371 delwrite~ \$0-feedforwardL 1000;
#X obj 567 351 delwrite~ \$0-feedforwardR 1000;
#X obj 525 422 == 0;
#X obj 433 496 +~;
#X obj 525 496 +~;
#X obj 433 557 dac~ 1 2;
#X obj 532 261 *~;
#X obj 432 261 *~;
#X obj 547 206 clip~ 0 1;
#X obj 808 88 loadbang;
#X obj 808 109 bng 15 250 50 0 empty empty empty 17 7 0 10 -262144
-1 -1;
#X obj 532 142 inlet~;
#X obj 547 227 lop~ 5;
#X obj 494 557 env~ 1024;
#X obj 584 557 env~ 1024;
#X obj 108 120 hsl 195 45 0 1 0 0 \$0-level.out \$0-level.in empty
-2 8 0 8 -257985 -1 -1 8700 0;
#X obj 267 180 nbx 4 15 0 1e+006 0 1 \$0-null \$0-lvl_R R 0 -6 0 8
-257985 -1 -1 79.7655 10;
#X obj 227 180 nbx 4 15 0 100 0 0 \$0-null \$0-lvl_L L 0 -6 0 8 -257985
-1 -1 79.7655 256;
#X obj 145 180 tgl 15 0 \$0-limiter \$0-limiter.in limiter 17 7 0 8
-257985 -1 -1 1 1;
#X obj 105 180 nbx 4 15 0 1 0 0 \$0-level.numOut \$0-level.numIn level
0 -6 0 8 -257985 -1 -1 0.448454 256;
#X obj 808 249 r \$0-level.out;
#X msg 808 270 set \$1;
#X obj 808 291 s \$0-level.numIn;
#X msg 918 270 set \$1;
#X obj 918 249 r \$0-level.numOut;
#X obj 918 291 s \$0-level.In;
#X obj 547 162 r \$0-level.out;
#X obj 637 162 r \$0-level.numOut;
#X obj 547 185 sig~ 1;
#X obj 525 396 r \$0-limiter;
#X obj 494 578 s \$0-lvl_L;
#X obj 584 578 s \$0-lvl_R;
#X obj 808 129 f \$0;
#X obj 432 92 inlet~ fwd;
#X obj 489 113 s \$0-messages;
#X obj 808 325 r \$0-messages;
#X obj 808 346 list split 1;
#X obj 808 430 s;
#X obj 808 388 t b s;
#X obj 808 409 list;
#X obj 808 367 makefilename \$0-%s.in;
#X msg 808 155 \; \$1-level.in 0.4 \; \$1-limiter.in 1 \; \$1-init
bang \;;
#X connect 0 0 5 0;
#X connect 0 1 6 0;
#X connect 1 0 5 1;
#X connect 1 1 6 1;
#X connect 4 0 1 0;
#X connect 5 0 7 0;
#X connect 5 0 15 0;
#X connect 6 0 7 1;
#X connect 6 0 16 0;
#X connect 8 0 3 0;
#X connect 8 0 0 1;
#X connect 9 0 2 0;
#X connect 9 0 0 0;
#X connect 10 0 14 0;
#X connect 11 0 12 0;
#X connect 12 0 34 0;
#X connect 13 0 8 0;
#X connect 14 0 8 1;
#X connect 14 0 9 1;
#X connect 15 0 32 0;
#X connect 16 0 33 0;
#X connect 22 0 23 0;
#X connect 23 0 24 0;
#X connect 25 0 27 0;
#X connect 26 0 25 0;
#X connect 28 0 30 0;
#X connect 29 0 30 0;
#X connect 30 0 10 0;
#X connect 31 0 4 0;
#X connect 31 0 0 2;
#X connect 34 0 43 0;
#X connect 35 0 9 0;
#X connect 35 1 36 0;
#X connect 37 0 38 0;
#X connect 38 0 42 0;
#X connect 38 1 41 1;
#X connect 40 0 41 0;
#X connect 40 1 39 1;
#X connect 41 0 39 0;
#X connect 42 0 40 0;
#X coords 0 -1 1 1 210 100 1 100 100;
