#N struct 1023-cell float status float x float y;
#N struct 1023-arm float px float py;
#N canvas 433 128 1480 891 10;
#X obj 105 250 nbx 5 15 1 64 0 0 \$0-length \$0-length.in length 48
7 0 8 -257985 -1 -1 10 256;
#X obj 105 270 nbx 5 15 0 10 0 0 \$0-pulses \$0-pulses.in pulses 48
7 0 8 -257985 -1 -1 7 256;
#N canvas 729 219 653 641 \$0-cell 0;
#X obj 81 93 filledpolygon status 0 1 0 0 5 0 5 5 0 5;
#X obj 63 42 struct \$0-cell float status float x float y;
#X restore 105 677 pd \$0-cell;
#X obj 105 290 nbx 5 15 0 9 0 0 \$0-pulses.rotate \$0-pulses.rotate.in
rotate 48 7 0 8 -257985 -1 -1 0 256;
#N canvas 765 125 843 752 \$0-pulses 0;
#X obj 99 54 r \$0-pulses;
#X text 482 32 first distribute pulses evenly;
#X obj 174 54 r \$0-accents;
#X obj 174 75 t b f;
#X obj 263 54 r \$0-length;
#X obj 99 91 f 0;
#X obj 120 173 until;
#X obj 120 194 f 0;
#X obj 147 194 + 1;
#X obj 263 75 t b f;
#X obj 120 357 t l l;
#X obj 120 336 list prepend;
#X obj 99 378 list;
#X obj 99 112 t b f f b;
#X obj 129 271 t b f;
#X msg 129 292 1;
#X obj 129 313 array set \$0-seq;
#X obj 348 91 array size \$0-seq;
#X obj 348 154 s \$0-seq;
#X msg 348 128 const 0;
#X obj 151 152 f 0;
#X obj 120 245 expr (round($f1 * ($f3 / $f2)) + $f4) % $f3;
#X obj 348 182 r \$0-pulses.rotate;
#X obj 286 420 list length;
#X obj 116 484 f 0;
#X obj 147 484 + 1;
#X obj 344 442 r \$0-accents.rotate;
#X obj 116 505 expr (round($f1 * ($f3 / $f2)) + $f4) % $f3;
#X obj 116 440 f 0;
#X obj 116 461 until;
#X obj 150 440 f 0;
#X obj 116 568 list split;
#X obj 116 526 t b f;
#X obj 116 547 list, f 8;
#X obj 144 589 list split 1;
#X obj 144 609 t b f;
#X obj 144 651 array set \$0-seq;
#X msg 144 630 2;
#X obj 344 463 t b f;
#X obj 348 203 t b f;
#X obj 99 404 t b b l b;
#X obj 99 673 s \$0-draw;
#X connect 0 0 5 0;
#X connect 2 0 3 0;
#X connect 3 0 5 0;
#X connect 3 1 27 1;
#X connect 3 1 28 1;
#X connect 4 0 9 0;
#X connect 5 0 13 0;
#X connect 6 0 7 0;
#X connect 7 0 8 0;
#X connect 7 0 21 0;
#X connect 8 0 7 1;
#X connect 9 0 5 0;
#X connect 9 1 17 0;
#X connect 9 1 21 2;
#X connect 10 0 12 1;
#X connect 10 1 11 1;
#X connect 11 0 10 0;
#X connect 12 0 40 0;
#X connect 13 0 12 0;
#X connect 13 1 6 0;
#X connect 13 2 21 1;
#X connect 13 3 11 1;
#X connect 13 3 19 0;
#X connect 13 3 20 0;
#X connect 14 0 15 0;
#X connect 14 1 16 1;
#X connect 15 0 16 0;
#X connect 19 0 18 0;
#X connect 20 0 7 1;
#X connect 21 0 11 0;
#X connect 21 0 14 0;
#X connect 22 0 39 0;
#X connect 23 0 27 2;
#X connect 24 0 25 0;
#X connect 24 0 27 0;
#X connect 25 0 24 1;
#X connect 26 0 38 0;
#X connect 27 0 32 0;
#X connect 28 0 29 0;
#X connect 29 0 24 0;
#X connect 30 0 24 1;
#X connect 31 1 34 0;
#X connect 32 0 33 0;
#X connect 32 1 31 1;
#X connect 33 0 31 0;
#X connect 34 0 35 0;
#X connect 35 0 37 0;
#X connect 35 1 36 1;
#X connect 37 0 36 0;
#X connect 38 0 5 0;
#X connect 38 1 27 3;
#X connect 39 0 5 0;
#X connect 39 1 21 3;
#X connect 40 0 41 0;
#X connect 40 1 28 0;
#X connect 40 2 23 0;
#X connect 40 2 33 1;
#X connect 40 3 30 0;
#X restore 105 635 pd \$0-pulses;
#N canvas 840 61 618 926 \$0-draw 0;
#X msg 233 137 clear;
#X obj 100 224 list split 1;
#X obj 113 245 list;
#X obj 100 121 t b b;
#X obj 100 203 t l l;
#X obj 100 100 r \$0-draw;
#X obj 321 219 list length;
#X obj 318 100 r \$0-init;
#X obj 318 142 v pi\$0;
#X obj 318 121 expr atan(1) * 8;
#X obj 168 351 f 0;
#X obj 195 351 + 1;
#X obj 370 394 f \$0;
#X obj 370 436 pointer;
#X msg 119 330 990;
#X obj 119 309 sel 0 1 2;
#X obj 119 288 +;
#X obj 119 515 t l l;
#X obj 98 557 list;
#X obj 98 578 s \$0-pointers;
#X obj 127 156 s \$0-draw.reset;
#X obj 370 373 r \$0-draw.reset;
#X obj 169 266 s \$0-draw.done;
#X obj 98 536 r \$0-draw.done;
#X obj 119 494 list prepend;
#X obj 119 452 append \$0-cell status x y;
#X obj 283 478 r \$0-draw.reset;
#X msg 153 372 0;
#X msg 136 351 555;
#X obj 168 393 expr sin(($f1/$f2) * pi\$0) * 40 + 100 \; cos(($f1/$f2)
* pi\$0) * 40 \;, f 26;
#X obj 100 266 t b f b;
#X obj 183 288 r \$0-draw.reset;
#X obj 183 309 f 0;
#X obj 100 182 array get \$0-seq;
#X msg 370 415 traverse pd-\$1-graph.euclid \, bang;
#X obj 233 198 s pd-\$0-graph.euclid;
#X connect 0 0 35 0;
#X connect 1 0 30 0;
#X connect 1 1 2 1;
#X connect 1 2 22 0;
#X connect 2 0 1 0;
#X connect 3 0 33 0;
#X connect 3 1 0 0;
#X connect 3 1 20 0;
#X connect 4 0 1 0;
#X connect 4 1 6 0;
#X connect 5 0 3 0;
#X connect 6 0 29 1;
#X connect 7 0 9 0;
#X connect 9 0 8 0;
#X connect 10 0 11 0;
#X connect 10 0 29 0;
#X connect 11 0 10 1;
#X connect 12 0 34 0;
#X connect 13 0 25 3;
#X connect 14 0 25 0;
#X connect 15 0 14 0;
#X connect 15 1 28 0;
#X connect 15 2 27 0;
#X connect 16 0 15 0;
#X connect 17 0 18 1;
#X connect 17 1 24 1;
#X connect 18 0 19 0;
#X connect 21 0 12 0;
#X connect 23 0 18 0;
#X connect 24 0 17 0;
#X connect 25 0 24 0;
#X connect 26 0 24 1;
#X connect 27 0 25 0;
#X connect 28 0 25 0;
#X connect 29 0 25 1;
#X connect 29 1 25 2;
#X connect 30 0 2 0;
#X connect 30 1 16 0;
#X connect 30 2 10 0;
#X connect 31 0 32 0;
#X connect 32 0 10 1;
#X connect 33 0 4 0;
#X connect 34 0 13 0;
#X restore 105 614 pd \$0-draw;
#X obj 105 444 loadbang;
#X obj 105 485 f \$0;
#X obj 105 465 bng 15 250 50 0 empty empty empty 17 7 0 10 -262144
-1 -1;
#X obj 105 120 cnv 15 200 120 empty empty empty 20 12 0 14 -257985
-66577 0;
#X obj 210 270 nbx 5 15 0 9 0 0 \$0-accents \$0-accents.in accents
48 7 0 8 -257985 -1 -1 2 256;
#X obj 210 290 nbx 5 15 0 8 0 0 \$0-accents.rotate \$0-accents.rotate.in
rotate 48 7 0 8 -257985 -1 -1 0 256;
#X msg 105 506 \; \$1-init bang \; \$1-length.in 16 \; \$1-pulses.in
4 \; \$1-accents.in 2 \; \$1-pulses.rotate.in 0 \; \$1-accents.rotate.in
0 \;;
#X obj 105 593 array define -yrange 0 2 \$0-seq;
#X msg 105 337 range 0 \$1 \, bang;
#X obj 105 358 - 1;
#X obj 105 379 max 0;
#X msg 105 399 range 0 \$1;
#X obj 186 358 - 1;
#X obj 186 379 max 0;
#X msg 186 399 range 0 \$1;
#X msg 105 318 range 0 \$1;
#X obj 421 244 f 0;
#X obj 421 132 inlet;
#X obj 451 325 %;
#N canvas 888 390 654 473 \$0-arm 0;
#X obj 65 63 struct \$0-arm float px float py;
#X obj 65 129 drawpolygon 0 2 0 0 px py;
#X obj 270 299 f \$0;
#X obj 270 341 pointer;
#X msg 270 320 traverse pd-\$1-graph.arm \, bang;
#X obj 81 187 r \$0-length;
#X obj 159 262 r \$0-init;
#X obj 159 368 append \$0-arm px py;
#X obj 66 408 set \$0-arm px py;
#X obj 66 233 expr sin($f1 * pi\$0) * 0.3 \; cos($f1 * pi\$0) * 0.6
;
#X obj 159 304 pack 0 0.6;
#X obj 66 210 /;
#X msg 470 299 clear;
#X obj 470 320 s pd-\$0-graph.arm;
#X obj 159 283 t b b b;
#X obj 66 157 r \$0-arm.update;
#X connect 2 0 4 0;
#X connect 3 0 7 2;
#X connect 4 0 3 0;
#X connect 5 0 11 1;
#X connect 6 0 14 0;
#X connect 7 0 8 2;
#X connect 9 0 8 0;
#X connect 9 1 8 1;
#X connect 10 0 7 0;
#X connect 11 0 9 0;
#X connect 12 0 13 0;
#X connect 14 0 10 0;
#X connect 14 1 2 0;
#X connect 14 2 12 0;
#X connect 15 0 11 0;
#X restore 105 656 pd \$0-arm;
#N canvas -1099 90 1008 789 \$0-graph.euclid 0;
#X scalar 1023-cell 0 100 40 \;;
#X scalar 1023-cell 555 123.511 32.3607 \;;
#X scalar 1023-cell 555 138.042 12.3607 \;;
#X scalar 1023-cell 555 138.042 -12.3607 \;;
#X scalar 1023-cell 555 123.511 -32.3607 \;;
#X scalar 1023-cell 990 100 -40 \;;
#X scalar 1023-cell 0 76.4886 -32.3607 \;;
#X scalar 1023-cell 555 61.9577 -12.3607 \;;
#X scalar 1023-cell 555 61.9577 12.3607 \;;
#X scalar 1023-cell 555 76.4886 32.3607 \;;
#X coords 0 65 205 -60 200 120 2 0 0;
#X restore 105 120 pd \$0-graph.euclid;
#N canvas 334 443 450 300 \$0-graph.arm 0;
#X scalar 1023-arm -0.285317 -0.18541 \;;
#X coords -1 1 1 -1 200 120 2 100 100;
#X restore 105 120 pd \$0-graph.arm;
#X obj 466 297 r \$0-length;
#X obj 447 244 + 1;
#X obj 651 397 list split 1;
#X obj 651 439 t b s;
#X obj 651 460 f;
#X obj 651 481 s;
#X msg 518 364 set \$1;
#X obj 210 250 nbx 5 15 0 10 0 0 \$0-current \$0-current.in current
48 7 0 8 -257985 -1 -1 7 256;
#X obj 518 401 s \$0-current.in;
#X msg 478 227 0;
#X obj 588 376 route float;
#X obj 478 183 route float;
#X obj 421 153 route bang;
#X obj 898 215 list split 1;
#X obj 898 257 t b s;
#X obj 898 278 f;
#X obj 898 299 s;
#X obj 588 199 route pulses accents;
#X obj 709 241 list split 1;
#X obj 709 283 t b s;
#X obj 709 304 f;
#X obj 709 325 s;
#X obj 646 220 route float;
#X obj 709 262 makefilename \$0-accents.%s.in;
#X obj 651 418 makefilename \$0-pulses.%s.in;
#X obj 898 236 makefilename \$0-%s.in;
#X obj 646 355 s \$0-accents.in;
#X obj 588 511 s \$0-pulses.in;
#X obj 575 341 s \$0-arm.update;
#X obj 478 204 sel 0;
#X obj 451 452 array get \$0-seq 0 1;
#X obj 451 494 outlet;
#X obj 501 494 outlet;
#X obj 850 496 f 0;
#X obj 882 496 + 1;
#X obj 850 520 t f f;
#X obj 850 570 sel 1;
#X msg 850 594 0;
#X obj 850 546 >= 15;
#X obj 421 265 t f f;
#X obj 421 344 >=;
#X obj 421 313 - 1;
#X obj 421 365 sel 1;
#X msg 421 386 0;
#X obj 343 153 r \$0-current;
#X obj 451 473 sel 1 2;
#X connect 0 0 18 0;
#X connect 0 0 21 0;
#X connect 1 0 14 0;
#X connect 1 0 15 0;
#X connect 6 0 8 0;
#X connect 7 0 12 0;
#X connect 8 0 7 0;
#X connect 14 0 10 0;
#X connect 15 0 16 0;
#X connect 16 0 17 0;
#X connect 17 0 11 0;
#X connect 18 0 19 0;
#X connect 19 0 20 0;
#X connect 20 0 3 0;
#X connect 21 0 1 0;
#X connect 21 0 35 0;
#X connect 22 0 67 0;
#X connect 22 0 29 0;
#X connect 23 0 40 0;
#X connect 24 0 34 0;
#X connect 24 0 56 0;
#X connect 24 0 58 0;
#X connect 28 0 24 1;
#X connect 28 0 69 0;
#X connect 29 0 22 1;
#X connect 30 0 52 0;
#X connect 30 1 32 1;
#X connect 31 0 32 0;
#X connect 31 1 33 1;
#X connect 32 0 33 0;
#X connect 34 0 36 0;
#X connect 37 0 22 0;
#X connect 38 0 55 0;
#X connect 38 1 30 0;
#X connect 39 0 57 0;
#X connect 39 1 45 0;
#X connect 40 0 22 0;
#X connect 40 1 39 0;
#X connect 41 0 53 0;
#X connect 41 1 43 1;
#X connect 42 0 43 0;
#X connect 42 1 44 1;
#X connect 43 0 44 0;
#X connect 45 0 38 0;
#X connect 45 1 50 0;
#X connect 45 2 41 0;
#X connect 46 0 51 0;
#X connect 46 1 48 1;
#X connect 47 0 48 0;
#X connect 47 1 49 1;
#X connect 48 0 49 0;
#X connect 50 0 54 0;
#X connect 50 1 46 0;
#X connect 51 0 47 0;
#X connect 52 0 31 0;
#X connect 53 0 42 0;
#X connect 57 0 37 0;
#X connect 57 1 22 0;
#X connect 58 0 73 0;
#X connect 61 0 62 0;
#X connect 61 0 63 0;
#X connect 62 0 61 1;
#X connect 63 0 66 0;
#X connect 64 0 65 0;
#X connect 65 0 61 1;
#X connect 66 0 64 0;
#X connect 67 0 69 0;
#X connect 67 1 24 0;
#X connect 68 0 70 0;
#X connect 69 0 68 0;
#X connect 70 0 71 0;
#X connect 71 0 22 1;
#X connect 72 0 22 1;
#X connect 73 0 59 0;
#X connect 73 1 60 0;
#X coords 0 -1 1 1 210 210 1 100 100;
