#N canvas 218 55 1639 833 10;
#X obj 759 612 s pd-\$0-graph;
#N canvas 3 51 459 435 uniqueInvisible 0;
#X obj 109 195 t b f;
#X obj 109 239 list split;
#X obj 109 283 list;
#X obj 109 261 list split 1;
#X obj 51 195 sel;
#X obj 109 305 t l;
#X obj 51 327 list;
#X obj 51 151 t f f;
#X obj 51 129 t f b;
#X obj 51 173 div 2;
#X obj 109 173 mod 2;
#X msg 109 217 32 160;
#X obj 51 349 list tosymbol;
#X obj 51 371 outlet;
#X obj 51 85 inlet;
#X obj 51 107 expr \$0 * 1000 + $f1;
#X text 47 45 Generate a unique invisible name from a number;
#X connect 0 0 11 0;
#X connect 0 1 1 1;
#X connect 1 1 3 0;
#X connect 2 0 5 0;
#X connect 3 0 2 0;
#X connect 4 0 6 0;
#X connect 4 1 7 0;
#X connect 5 0 2 1;
#X connect 5 0 6 1;
#X connect 6 0 12 0;
#X connect 7 0 9 0;
#X connect 7 1 10 0;
#X connect 8 0 7 0;
#X connect 8 1 2 1;
#X connect 9 0 4 0;
#X connect 10 0 0 0;
#X connect 11 0 1 0;
#X connect 12 0 13 0;
#X connect 14 0 15 0;
#X connect 15 0 8 0;
#X restore 730 425 pd uniqueInvisible;
#X obj 329 303 bng 15 250 50 0 empty empty empty 17 7 0 10 -262144
-1 -1;
#X msg 759 528 clear \, donecanvasdialog 1 -1 0 0 0 0 0 0 0 0 0;
#X obj 672 313 f \$0;
#X obj 601 612 tabwrite~;
#X msg 730 475 set \$1;
#X obj 730 446 t s s;
#X obj 329 282 loadbang;
#N canvas 34 467 710 436 \$0-fpsClock 0;
#X obj 227 199 switch~;
#X obj 144 267 bang~;
#X obj 48 241 metro 30;
#X obj 48 283 outlet;
#X obj 48 37 inlet;
#X obj 276 37 inlet;
#X obj 276 88 t b f f;
#X obj 48 104 f 0;
#X obj 276 58 max 0;
#X msg 295 183 0;
#X obj 48 199 change 0;
#X obj 227 140 change 0;
#X obj 295 162 r \$0-init;
#X obj 404 67 samplerate~;
#X obj 227 120 expr ($f1 == 1) && ($f2 < $f3);
#X obj 48 167 expr ($f1 == 1) && ($f2 >= $f3) \; $f2;
#X obj 404 37 r \$0-init;
#X obj 404 88 expr 1024 / ($f1 / 1000);
#X connect 1 0 3 0;
#X connect 2 0 3 0;
#X connect 4 0 7 0;
#X connect 5 0 8 0;
#X connect 6 0 7 0;
#X connect 6 1 15 1;
#X connect 6 2 14 1;
#X connect 7 0 14 0;
#X connect 7 0 15 0;
#X connect 8 0 6 0;
#X connect 9 0 0 0;
#X connect 10 0 2 0;
#X connect 11 0 0 0;
#X connect 12 0 9 0;
#X connect 13 0 17 0;
#X connect 14 0 11 0;
#X connect 15 0 10 0;
#X connect 15 1 2 1;
#X connect 16 0 13 0;
#X connect 17 0 14 2;
#X connect 17 0 15 2;
#X restore 651 267 pd \$0-fpsClock;
#X obj 651 242 tgl 15 0 empty \$0-on on 17 7 0 10 -262144 -1 -1 1 1
;
#X floatatom 732 242 5 0 0 2 refresh #0-refresh -;
#X obj 672 292 r \$0-init;
#X obj 601 267 inlet~;
#X obj 329 323 f \$0;
#X obj 150 150 nbx 5 15 -1e+037 1e+037 0 0 \$0 \$0-value value 0 -6
0 8 -257985 -1 -1 0 256;
#X obj 105 120 cnv 15 42 75 empty empty empty 20 12 0 14 -257985 -66577
0;
#N canvas -828 127 793 605 \$0-graph 0;
#X array  \  \ \ \ \  \   \  \  \  \ \ \   1024 float 0;
#X coords 0 1 1024 -1 43 75 2 0 0;
#X restore 105 120 pd \$0-graph;
#X obj 1069 267 inlet;
#X obj 1069 288 unpack s f;
#X obj 1069 309 makefilename \$0-%s_in;
#X obj 1069 350 f;
#X obj 1069 371 s;
#X obj 1069 329 t b s;
#X obj 672 612 s \$0-this;
#X msg 789 563 donecanvasdialog 1 -1 0 0 0 0 0 0 0 0 0 \, dirty 0;
#X obj 672 334 t b f f b b, f 20;
#X obj 329 429 namecanvas \$0-this;
#X msg 672 372 donecanvasdialog 1 -1 1 0 1 0 -1 100 100 100 100 \,
dirty 0;
#X obj 533 591 snapshot~;
#X obj 533 612 s \$0-value;
#X obj 150 180 nbx 5 15 0 1e+037 0 0 \$0-refresh \$0-refresh_in refresh
0 -6 0 8 -257985 -1 -1 33.3 256;
#X msg 329 344 \; \$1-init bang \; \$1-refresh_in 33.3 \; \$1-on_in
1;
#X obj 483 612 outlet;
#X obj 329 403 block~ 1024;
#X msg 757 500 array \$1 1024 float 0;
#X obj 150 120 tgl 15 0 \$0-on \$0-on_in on 17 7 0 8 -257985 -1 -1
1 1;
#X msg 701 398 donecanvasdialog 1 -1 2 0 1 1024 -1 43 75 0 0;
#X obj 601 329 clip~ -1 1;
#X msg 1136 596 vis 1;
#X obj 140 187 bng 8 250 50 0 \$0-view \$0-view_in empty 17 7 0 10
-257985 -1 -1;
#X obj 1136 563 r \$0-view;
#X connect 1 0 7 0;
#X connect 2 0 14 0;
#X connect 3 0 0 0;
#X connect 4 0 26 0;
#X connect 6 0 5 0;
#X connect 7 0 6 0;
#X connect 7 1 35 0;
#X connect 8 0 2 0;
#X connect 9 0 5 0;
#X connect 9 0 29 0;
#X connect 10 0 9 0;
#X connect 11 0 9 1;
#X connect 12 0 4 0;
#X connect 13 0 29 0;
#X connect 13 0 38 0;
#X connect 14 0 32 0;
#X connect 18 0 19 0;
#X connect 19 0 20 0;
#X connect 19 1 21 1;
#X connect 20 0 23 0;
#X connect 21 0 22 0;
#X connect 23 0 21 0;
#X connect 23 1 22 1;
#X connect 25 0 24 0;
#X connect 26 0 28 0;
#X connect 26 1 37 0;
#X connect 26 2 1 0;
#X connect 26 3 3 0;
#X connect 26 4 25 0;
#X connect 28 0 24 0;
#X connect 29 0 30 0;
#X connect 29 0 33 0;
#X connect 35 0 0 0;
#X connect 37 0 0 0;
#X connect 38 0 5 0;
#X connect 39 0 0 0;
#X connect 41 0 39 0;
#X coords 0 1 1 -1 100 100 1 100 100;
