#N canvas 734 180 740 456 10;
#X obj 355 238 snapshot~;
#X obj 448 197 tgl 15 0 empty \$0-toggle on 17 7 0 10 -262144 -1 -1
1 1;
#X floatatom 529 197 5 0 0 2 refresh #0-intervals -;
#N canvas 34 467 710 436 \$0-clock 0;
#X obj 227 199 switch~;
#X obj 144 267 bang~;
#X obj 48 241 metro 30;
#X obj 48 283 outlet;
#X obj 48 37 inlet;
#X obj 276 37 inlet;
#X obj 276 88 t b f f;
#X obj 48 104 f 0;
#X obj 276 58 max 0;
#X msg 295 183 0;
#X obj 48 199 change 0;
#X obj 227 140 change 0;
#X obj 295 162 r \$0-init;
#X obj 404 67 samplerate~;
#X obj 227 120 expr ($f1 == 1) && ($f2 < $f3);
#X obj 48 167 expr ($f1 == 1) && ($f2 >= $f3) \; $f2;
#X obj 404 37 r \$0-init;
#X obj 404 88 expr 1024 / ($f1 / 1000);
#X connect 1 0 3 0;
#X connect 2 0 3 0;
#X connect 4 0 7 0;
#X connect 5 0 8 0;
#X connect 6 0 7 0;
#X connect 6 1 15 1;
#X connect 6 2 14 1;
#X connect 7 0 14 0;
#X connect 7 0 15 0;
#X connect 8 0 6 0;
#X connect 9 0 0 0;
#X connect 10 0 2 0;
#X connect 11 0 0 0;
#X connect 12 0 9 0;
#X connect 13 0 17 0;
#X connect 14 0 11 0;
#X connect 15 0 10 0;
#X connect 15 1 2 1;
#X connect 16 0 13 0;
#X connect 17 0 14 2;
#X connect 17 0 15 2;
#X restore 448 222 pd \$0-clock;
#X obj 105 130 nbx 4 14 -1e+037 1e+037 0 0 \$0-intervals \$0-intervals.in
interval 0 -8 0 8 -257985 -1 -1 0 256;
#X obj 105 180 tgl 15 0 \$0-toggle \$0-toggle.in on 17 7 0 8 -257985
-1 -1 1 1;
#X obj 511 78 loadbang;
#X msg 511 148 0;
#X msg 448 148 1;
#X obj 355 82 inlet~ fwd;
#X obj 412 119 s \$0-ctl;
#X obj 61 41 r \$0-ctl;
#X obj 355 339 outlet;
#X obj 355 315 line;
#X obj 355 272 pack f f;
#X obj 105 160 nbx 4 14 0 1e+037 0 0 \$0-grains \$0-grains.in grains
0 -8 0 8 -257985 -1 -1 0 256;
#X obj 150 130 nbx 4 14 0 103 0 0 \$0-glide \$0-glide glide 0 -8 0
8 -257985 -1 -1 10 256;
#X obj 425 299 r \$0-grain;
#X obj 425 256 r \$0-glide;
#X msg 226 144 range 0 \$1;
#X obj 105 275 spigot;
#X obj 138 239 <;
#X obj 61 65 route on interval glide grains;
#X msg 285 164 set \$1;
#X connect 0 0 14 0;
#X connect 1 0 3 0;
#X connect 2 0 3 1;
#X connect 3 0 0 0;
#X connect 4 0 19 0;
#X connect 4 0 20 0;
#X connect 4 0 21 0;
#X connect 6 0 7 0;
#X connect 6 0 8 0;
#X connect 7 0 3 1;
#X connect 8 0 1 0;
#X connect 8 0 23 0;
#X connect 9 0 0 0;
#X connect 9 1 10 0;
#X connect 11 0 22 0;
#X connect 13 0 12 0;
#X connect 14 0 13 0;
#X connect 16 0 21 1;
#X connect 17 0 13 2;
#X connect 18 0 14 1;
#X connect 19 0 16 0;
#X connect 20 0 16 0;
#X connect 21 0 20 1;
#X connect 22 0 5 0;
#X connect 22 1 4 0;
#X connect 22 2 16 0;
#X connect 22 3 15 0;
#X connect 23 0 5 0;
#X coords 0 -1 1 1 100 100 1 100 100;
