#N canvas 283 111 1421 789 10;
#X obj 1093 574 s~ \$0-lfo;
#X obj 1094 553 phasor~;
#X obj 155 130 nbx 5 15 0 2 0 0 \$0-gain \$0-gain.in gain 0 -8 0 8
-257985 -1 -1 1 256;
#X obj 968 564 /;
#X obj 968 534 swap 1000;
#X obj 968 590 s \$0-slop;
#X obj 968 490 r \$0-inertia;
#X obj 968 201 loadbang;
#X obj 968 222 bng 15 250 50 0 empty empty empty 17 7 0 10 -262144
-1 -1;
#X obj 968 243 f \$0;
#X obj 165 170 nbx 4 15 0 1 0 0 \$0-level.l \$0-level.l.in empty 0
-8 0 8 -257985 -1 -1 0.4 256;
#X obj 165 190 nbx 4 15 0 1 0 0 \$0-modulate.l \$0-modulate.l.in empty
0 -8 0 8 -257985 -1 -1 0 256;
#X obj 257 230 nbx 5 15 0 20000 0 0 \$0-lop.l \$0-lopass.l.in lop 0
-8 0 8 -257985 -1 -1 20000 256;
#X obj 207 230 nbx 5 15 0 20000 0 0 \$0-hip.l \$0-hipass.l.in hip 0
-8 0 8 -257985 -1 -1 20 256;
#X obj 165 150 nbx 4 15 0 500 0 0 \$0-time.l \$0-time.l.in empty 0
-8 0 8 -257985 -1 -1 260.87 256;
#X obj 105 130 nbx 5 15 0 1 0 0 \$0-select \$0-select.in select 0 -8
0 8 -257985 -1 -1 0 256;
#X obj 267 170 nbx 4 15 0 1 0 0 \$0-level.r \$0-level.r.in empty 0
-8 0 8 -257985 -1 -1 0.4 256;
#X obj 267 190 nbx 4 15 0 1 0 0 \$0-modulate.r \$0-modulate.r.in empty
0 -8 0 8 -257985 -1 -1 0 256;
#X obj 155 230 nbx 5 15 0 20000 0 0 \$0-lop.r \$0-lopass.r.in lop 0
-8 0 8 -257985 -1 -1 20000 256;
#X obj 105 230 nbx 5 15 0 20000 0 0 \$0-hip.r \$0-hipass.r.in hip 0
-8 0 8 -257985 -1 -1 20 256;
#X obj 267 150 nbx 4 15 0 500 0 0 \$0-time.r \$0-time.r.in empty 0
-8 0 8 -257985 -1 -1 130.435 256;
#N canvas 781 508 544 300 \$0-memory 0;
#X obj 100 100 array define \$0-times.l \$1;
#X obj 100 120 array define \$0-mod.l \$1;
#X obj 100 140 array define \$0-lvls.l \$1;
#X obj 290 100 array define \$0-times.r \$1;
#X obj 290 120 array define \$0-mod.r \$1;
#X obj 290 140 array define \$0-lvls.r \$1;
#X obj 100 160 array define \$0-lop.l \$1;
#X obj 100 180 array define \$0-hip.l \$1;
#X obj 290 160 array define \$0-lop.r \$1;
#X obj 290 180 array define \$0-hip.r \$1;
#X obj 100 11 r \$0-memory.init;
#X msg 100 32 const 0;
#X msg 160 32 const 20;
#X msg 230 32 const 20000;
#X connect 10 0 11 0;
#X connect 10 0 12 0;
#X connect 10 0 13 0;
#X connect 11 0 0 0;
#X connect 11 0 3 0;
#X connect 11 0 1 0;
#X connect 11 0 4 0;
#X connect 11 0 2 0;
#X connect 11 0 5 0;
#X connect 12 0 7 0;
#X connect 12 0 9 0;
#X connect 13 0 6 0;
#X connect 13 0 8 0;
#X coords 0 300 1 299 85 60 0;
#X restore 968 443 pd \$0-memory;
#X obj 436 370 +~;
#X obj 696 159 inlet~;
#X obj 696 370 +~;
#X obj 696 412 clone bin/tap \$1 \$1 \$0 r;
#X obj 436 412 clone bin/tap \$1 \$1 \$0 l;
#N canvas 309 109 857 753 \$0-selector 0;
#X obj 58 56 r \$0-time.l;
#X obj 58 108 r \$0-level.l;
#X obj 58 160 r \$0-modulate.l;
#X obj 58 207 r \$0-lop.l;
#X obj 58 253 r \$0-hip.l;
#X obj 112 36 r \$0-select;
#X obj 58 82 array set \$0-times.l 0;
#X obj 58 181 array set \$0-mod.l 0;
#X obj 58 134 array set \$0-lvls.l 0;
#X obj 58 274 array set \$0-hip.l;
#X obj 58 227 array set \$0-lop.l 0;
#X obj 272 36 r \$0-select;
#X obj 218 56 r \$0-time.r;
#X obj 218 82 array set \$0-times.r 0;
#X obj 218 108 r \$0-level.r;
#X obj 218 134 array set \$0-lvls.r 0;
#X obj 218 160 r \$0-modulate.r;
#X obj 218 181 array set \$0-mod.r 0;
#X obj 218 207 r \$0-lop.r;
#X obj 218 227 array set \$0-lop.r 0;
#X obj 218 253 r \$0-hip.r;
#X obj 218 274 array set \$0-hip.r;
#X obj 378 36 r \$0-select;
#X obj 378 57 array get \$0-times.l 0;
#X obj 378 161 array get \$0-lvls.l 0;
#X msg 378 78 set \$1;
#X obj 378 99 s \$0-time.l.in;
#X obj 378 140 r \$0-select;
#X msg 378 182 set \$1;
#X obj 378 203 s \$0-level.l.in;
#X obj 378 244 r \$0-select;
#X msg 378 286 set \$1;
#X obj 378 265 array get \$0-mod.l 0;
#X obj 378 307 s \$0-modulate.l.in;
#X msg 378 434 set \$1;
#X obj 378 481 r \$0-select;
#X msg 378 523 set \$1;
#X obj 378 455 s \$0-lop.l.in;
#X obj 378 544 s \$0-hip.l.in;
#X obj 378 502 array get \$0-hip.l 0;
#X obj 378 392 r \$0-select;
#X obj 518 36 r \$0-select;
#X msg 518 78 set \$1;
#X obj 518 140 r \$0-select;
#X msg 518 182 set \$1;
#X obj 518 244 r \$0-select;
#X msg 518 286 set \$1;
#X msg 518 434 set \$1;
#X obj 518 481 r \$0-select;
#X msg 518 523 set \$1;
#X obj 518 392 r \$0-select;
#X obj 518 57 array get \$0-times.r 0;
#X obj 518 161 array get \$0-lvls.r 0;
#X obj 518 265 array get \$0-mod.r 0;
#X obj 518 502 array get \$0-hip.r 0;
#X obj 518 544 s \$0-hip.r.in;
#X obj 518 455 s \$0-lop.r.in;
#X obj 518 307 s \$0-modulate.r.in;
#X obj 518 203 s \$0-level.r.in;
#X obj 518 99 s \$0-time.r.in;
#X obj 58 577 r \$0-lop.l;
#X obj 73 617 r \$0-select;
#X obj 58 668 s;
#X obj 151 596 r \$0-init;
#X msg 151 617 0;
#X obj 73 638 makefilename \$0-lop.l.%d;
#X obj 263 617 r \$0-select;
#X obj 248 668 s;
#X obj 341 596 r \$0-init;
#X msg 341 617 0;
#X obj 248 577 r \$0-lop.r;
#X obj 263 638 makefilename \$0-lop.r.%d;
#X obj 453 617 r \$0-select;
#X obj 438 668 s;
#X obj 531 596 r \$0-init;
#X msg 531 617 0;
#X obj 453 638 makefilename \$0-lop.l.%d;
#X obj 643 617 r \$0-select;
#X obj 628 668 s;
#X obj 721 596 r \$0-init;
#X msg 721 617 0;
#X obj 643 638 makefilename \$0-lop.r.%d;
#X obj 438 577 r \$0-hip.l;
#X obj 628 577 r \$0-hip.r;
#X obj 378 413 array get \$0-lop.l 0;
#X obj 518 413 array get \$0-lop.r 0;
#X obj 378 327 s \$0-modulate.l.bar.in;
#X obj 518 327 s \$0-modulate.r.bar.in;
#X obj 378 223 s \$0-level.l.bar.in;
#X obj 518 223 s \$0-level.r.bar.in;
#X obj 378 119 s \$0-time.l.bar.in;
#X obj 518 119 s \$0-time.r.bar.in;
#X connect 0 0 6 0;
#X connect 1 0 8 0;
#X connect 2 0 7 0;
#X connect 3 0 10 0;
#X connect 4 0 9 0;
#X connect 5 0 6 1;
#X connect 5 0 8 1;
#X connect 5 0 7 1;
#X connect 5 0 10 1;
#X connect 5 0 9 1;
#X connect 11 0 13 1;
#X connect 11 0 15 1;
#X connect 11 0 17 1;
#X connect 11 0 19 1;
#X connect 11 0 21 1;
#X connect 12 0 13 0;
#X connect 14 0 15 0;
#X connect 16 0 17 0;
#X connect 18 0 19 0;
#X connect 20 0 21 0;
#X connect 22 0 23 0;
#X connect 23 0 25 0;
#X connect 24 0 28 0;
#X connect 25 0 26 0;
#X connect 25 0 90 0;
#X connect 27 0 24 0;
#X connect 28 0 29 0;
#X connect 28 0 88 0;
#X connect 30 0 32 0;
#X connect 31 0 33 0;
#X connect 31 0 86 0;
#X connect 32 0 31 0;
#X connect 34 0 37 0;
#X connect 35 0 39 0;
#X connect 36 0 38 0;
#X connect 39 0 36 0;
#X connect 40 0 84 0;
#X connect 41 0 51 0;
#X connect 42 0 59 0;
#X connect 42 0 91 0;
#X connect 43 0 52 0;
#X connect 44 0 58 0;
#X connect 44 0 89 0;
#X connect 45 0 53 0;
#X connect 46 0 57 0;
#X connect 46 0 87 0;
#X connect 47 0 56 0;
#X connect 48 0 54 0;
#X connect 49 0 55 0;
#X connect 50 0 85 0;
#X connect 51 0 42 0;
#X connect 52 0 44 0;
#X connect 53 0 46 0;
#X connect 54 0 49 0;
#X connect 60 0 62 0;
#X connect 61 0 65 0;
#X connect 63 0 64 0;
#X connect 64 0 65 0;
#X connect 65 0 62 1;
#X connect 66 0 71 0;
#X connect 68 0 69 0;
#X connect 69 0 71 0;
#X connect 70 0 67 0;
#X connect 71 0 67 1;
#X connect 72 0 76 0;
#X connect 74 0 75 0;
#X connect 75 0 76 0;
#X connect 76 0 73 1;
#X connect 77 0 81 0;
#X connect 79 0 80 0;
#X connect 80 0 81 0;
#X connect 81 0 78 1;
#X connect 82 0 73 0;
#X connect 83 0 78 0;
#X connect 84 0 34 0;
#X connect 85 0 47 0;
#X restore 968 464 pd \$0-selector;
#X obj 451 533 *~;
#X obj 711 533 *~;
#X obj 726 465 sig~ 1;
#X obj 726 486 lop~ 200;
#X obj 788 470 r \$0-slop;
#X obj 451 284 sig~ 1;
#X obj 451 305 lop~ 200;
#X obj 513 289 r \$0-slop;
#X obj 451 263 r \$0-gain;
#X obj 696 340 *~;
#X obj 436 340 *~;
#X obj 207 130 nbx 5 15 -1e+037 1e+037 0 0 \$0-lfo \$0-lfo.in LFO 0
-8 0 8 -257985 -1 -1 0.01 256;
#X obj 1094 490 r \$0-lfo;
#X obj 1094 511 sig~ 0;
#X obj 1094 532 lop~ 200;
#X obj 1216 516 r \$0-slop;
#X obj 436 554 +~;
#X obj 696 554 +~;
#X obj 436 575 outlet~;
#X obj 696 575 outlet~;
#X obj 436 391 delwrite~ \$0-d.l \$2;
#X obj 696 391 delwrite~ \$0-d.r \$2;
#X obj 165 31 f \$2;
#X msg 165 52 range 0 \$1;
#X obj 165 10 r \$0-init;
#X msg 105 80 range 0 \$1;
#X obj 105 42 f \$1;
#X obj 105 61 - 1;
#X obj 436 159 inlet~ fwd;
#X obj 493 189 s \$0-control;
#X obj 968 115 r \$0-control;
#X obj 219 250 nbx 5 15 0 1 0 0 \$0-feedback \$0-feedback.in empty
0 -8 0 8 -257985 -1 -1 0.5 256;
#X obj 726 444 r \$0-dry;
#X obj 257 130 nbx 5 15 0 1 0 0 \$0-dry \$0-dry.in dry 0 -8 0 8 -257985
-1 -1 1 256;
#X obj 968 158 bin/paramin \$0 times;
#X obj 1014 179 bin/paramin \$0 lvls;
#X obj 1060 200 bin/paramin \$0 mod;
#X obj 1106 221 bin/paramin \$0 lop;
#X obj 1152 242 bin/paramin \$0 hip;
#X obj 1199 284 makefilename \$0-%s.in;
#X obj 1199 263 list split 1;
#X obj 1199 305 t b s;
#X obj 1199 326 list;
#X obj 1199 347 s;
#X obj 572 593 *~;
#X obj 337 505 lop~ 200;
#X obj 322 593 *~;
#X obj 337 429 sig~ 0;
#X obj 106 285 nbx 5 15 0 1e+037 0 0 \$0-inertia \$0-inertia.in inertia
0 -8 0 8 -257985 -1 -1 20 256;
#X obj 337 408 r \$0-feedback;
#X obj 404 489 r \$0-slop;
#X obj 968 136 route time level modulate lopass hipass;
#X obj 322 635 s~ \$0-fbout.l;
#X obj 572 635 s~ \$0-fbout.r;
#X obj 491 353 r~ \$0-fbout.l;
#X obj 821 353 r~ \$0-fbout.r;
#X obj 269 250 tgl 15 0 \$0-flip \$0-flip.in flip 17 8 0 8 -257985
-1 -1 1 1;
#X obj 816 159 r \$0-flip;
#X obj 816 180 pack f \$0;
#X obj 816 201 route 0 1;
#X msg 816 222 set \$1-fbout.l;
#X msg 821 242 set \$1-fbout.r;
#X msg 841 262 set \$1-fbout.r;
#X msg 851 282 set \$1-fbout.l;
#X obj 436 143 s~ \$0-dry.l;
#X obj 696 143 s~ \$0-dry.r;
#X obj 451 507 r~ \$0-dry.l;
#X obj 711 507 r~ \$0-dry.r;
#X obj 156 283 cnv 15 100 15 empty empty ctl:prm/chn/tap/val 2 9 0
8 -262144 -33289 0;
#X msg 437 105 level left 0 1 \, level right 0 1 \, time left 0 250
\, time right 0 175;
#X obj 108 150 hsl 55 15 0 500 0 0 \$0-time.l.bar \$0-time.l.bar.in
time 0 8 0 8 -262144 -1 -1 2817 0;
#X obj 210 150 hsl 55 15 0 500 0 0 \$0-time.r.bar \$0-time.r.bar.in
empty 0 8 0 8 -262144 -1 -1 1409 0;
#X obj 108 170 hsl 55 15 0 1 0 0 \$0-level.l.bar \$0-level.l.bar.in
level 0 8 0 8 -262144 -1 -1 2160 0;
#X obj 210 170 hsl 55 15 0 1 0 0 \$0-level.r.bar \$0-level.r.bar.in
empty 0 8 0 8 -262144 -1 -1 2160 0;
#X obj 108 190 hsl 55 15 0 1 0 0 \$0-modulate.l.bar \$0-modulate.l.bar.in
modulate 0 8 0 8 -262144 -1 -1 0 0;
#X obj 210 190 hsl 55 15 0 1 0 0 \$0-modulate.r.bar \$0-modulate.r.bar.in
empty 0 8 0 8 -262144 -1 -1 0 0;
#X obj 108 250 hsl 109 15 0 1 0 0 \$0-feedback.bar \$0-feedback.bar.in
feedback 0 8 0 8 -262144 -1 -1 5400 0;
#X msg 337 375 clear;
#X obj 337 354 r \$0-panic;
#X obj 290 285 bng 15 250 50 0 \$0-panic \$0-panic.in panic -27 7 0
8 -257985 -1 -1;
#X msg 49 250 set \$1;
#X msg 49 190 set \$1;
#X msg 49 170 set \$1;
#X msg 49 150 set \$1;
#X msg 319 190 set \$1;
#X msg 319 170 set \$1;
#X msg 319 150 set \$1;
#X obj 437 84 r \$0-defaults;
#X msg 968 264 \; \$1-gain.in 1 \; \$1-dry.in 1 \; \$1-select.in 0
\; \$1-lfo.in 0.01 \; \$1-lopass.l.in 20000 \; \$1-lopass.r.in 20000
\; \$1-hipass.l.in 20 \; \$1-hipass.r.in 20 \; \$1-flip.in 1 \; \$1-feedback.in
0.25 \; \$1-inertia.in 20 \; \$1-memory.init bang \; \$1-init bang
\; \$1-defaults bang \;;
#X obj 322 614 expr~ tanh($v1 * 3.14159265359);
#X obj 572 614 expr~ tanh($v1 * 3.14159265359);
#X obj 337 450 *~;
#X obj 337 471 *~;
#X connect 1 0 0 0;
#X connect 3 0 5 0;
#X connect 4 0 3 0;
#X connect 4 1 3 1;
#X connect 6 0 4 0;
#X connect 7 0 8 0;
#X connect 8 0 9 0;
#X connect 9 0 116 0;
#X connect 10 0 110 0;
#X connect 11 0 109 0;
#X connect 14 0 111 0;
#X connect 16 0 113 0;
#X connect 17 0 112 0;
#X connect 20 0 114 0;
#X connect 22 0 48 0;
#X connect 23 0 37 0;
#X connect 23 0 93 0;
#X connect 24 0 49 0;
#X connect 25 0 45 0;
#X connect 25 0 72 0;
#X connect 26 0 44 0;
#X connect 26 0 74 0;
#X connect 28 0 44 1;
#X connect 29 0 45 1;
#X connect 30 0 31 0;
#X connect 31 0 28 1;
#X connect 31 0 29 1;
#X connect 32 0 31 1;
#X connect 33 0 34 0;
#X connect 34 0 38 1;
#X connect 34 0 37 1;
#X connect 35 0 34 1;
#X connect 36 0 33 0;
#X connect 37 0 24 0;
#X connect 38 0 22 0;
#X connect 40 0 41 0;
#X connect 41 0 42 0;
#X connect 42 0 1 0;
#X connect 43 0 42 1;
#X connect 44 0 46 0;
#X connect 45 0 47 0;
#X connect 50 0 51 0;
#X connect 51 0 14 0;
#X connect 51 0 20 0;
#X connect 51 0 98 0;
#X connect 51 0 99 0;
#X connect 52 0 50 0;
#X connect 52 0 54 0;
#X connect 53 0 15 0;
#X connect 54 0 55 0;
#X connect 55 0 53 0;
#X connect 56 0 38 0;
#X connect 56 0 92 0;
#X connect 56 1 57 0;
#X connect 58 0 79 0;
#X connect 59 0 108 0;
#X connect 60 0 30 0;
#X connect 67 0 69 0;
#X connect 68 0 67 0;
#X connect 68 1 70 1;
#X connect 69 0 70 0;
#X connect 69 1 71 1;
#X connect 70 0 71 0;
#X connect 72 0 118 0;
#X connect 73 0 72 1;
#X connect 73 0 74 1;
#X connect 74 0 117 0;
#X connect 75 0 119 0;
#X connect 75 0 119 1;
#X connect 77 0 75 0;
#X connect 78 0 73 1;
#X connect 79 0 62 0;
#X connect 79 1 63 0;
#X connect 79 2 64 0;
#X connect 79 3 65 0;
#X connect 79 4 66 0;
#X connect 79 5 68 0;
#X connect 82 0 22 1;
#X connect 83 0 24 1;
#X connect 85 0 86 0;
#X connect 86 0 87 0;
#X connect 87 0 88 0;
#X connect 87 0 89 0;
#X connect 87 1 90 0;
#X connect 87 1 91 0;
#X connect 88 0 82 0;
#X connect 89 0 83 0;
#X connect 90 0 82 0;
#X connect 91 0 83 0;
#X connect 94 0 28 0;
#X connect 95 0 29 0;
#X connect 97 0 56 0;
#X connect 98 0 14 0;
#X connect 99 0 20 0;
#X connect 100 0 10 0;
#X connect 101 0 16 0;
#X connect 102 0 11 0;
#X connect 103 0 17 0;
#X connect 104 0 59 0;
#X connect 105 0 48 0;
#X connect 105 0 49 0;
#X connect 106 0 105 0;
#X connect 108 0 104 0;
#X connect 109 0 102 0;
#X connect 110 0 100 0;
#X connect 111 0 98 0;
#X connect 112 0 103 0;
#X connect 113 0 101 0;
#X connect 114 0 99 0;
#X connect 115 0 97 0;
#X connect 117 0 80 0;
#X connect 118 0 81 0;
#X connect 119 0 120 0;
#X connect 119 0 120 1;
#X connect 120 0 73 0;
#X coords 0 -1 1 1 210 210 1 100 100;
