#N struct 1007-key float status float x float y;
#N canvas 108 107 1579 831 10;
#X obj 260 180 nbx 5 15 0 6 0 0 \$0-mode \$0-mode.in mode -22 7 0 8
-257985 -1 -1 0 256;
#X obj 105 180 bng 15 250 50 0 \$0-random \$0-random.in random 17 7
0 8 -257985 -1 -1;
#X msg 209 233 set 0;
#X obj 370 77 inlet;
#X obj 594 77 loadbang;
#X obj 594 264 f 12;
#X obj 594 285 until;
#N canvas 687 565 450 300 \$0-key 0;
#X obj 77 80 print;
#X obj 77 59 struct \$0-key float status float x float y;
#X obj 77 113 filledpolygon status 0 1 0 0 16 0 16 32 0 32;
#X connect 1 0 0 0;
#X restore 100 290 pd \$0-key;
#X msg 735 306 traverse pd-\$1-keys \, bang;
#X obj 735 327 pointer;
#X obj 735 285 f \$0;
#X obj 594 306 f 0;
#X obj 626 306 + 1;
#N canvas 702 212 450 462 \$0-keys.shape 0;
#X obj 37 37 inlet;
#X obj 37 58 sel 0 1 2 3 4 5 6 7 8 9 10 11;
#X obj 37 326 outlet;
#X msg 79 142 0 30 0;
#X msg 65 121 0 20 36;
#X msg 51 100 0 10 0;
#X msg 37 79 0 0 36;
#X msg 94 163 0 40 36;
#X msg 108 184 0 60 36;
#X msg 122 205 0 70 0;
#X msg 136 226 0 80 36;
#X msg 151 247 0 90 0;
#X msg 165 268 0 100 36;
#X msg 179 289 0 110 0;
#X msg 193 310 0 120 36;
#X text 259 58 black keys: Db Eb Gb Ab Bb;
#X text 265 98 white keys: C D E F G A B;
#X text 355 71 1 3 6 8 10;
#X text 331 111 0 2 4 5 7 9 11;
#X connect 0 0 1 0;
#X connect 1 0 6 0;
#X connect 1 1 5 0;
#X connect 1 2 4 0;
#X connect 1 3 3 0;
#X connect 1 4 7 0;
#X connect 1 5 8 0;
#X connect 1 6 9 0;
#X connect 1 7 10 0;
#X connect 1 8 11 0;
#X connect 1 9 12 0;
#X connect 1 10 13 0;
#X connect 1 11 14 0;
#X connect 3 0 2 0;
#X connect 4 0 2 0;
#X connect 5 0 2 0;
#X connect 6 0 2 0;
#X connect 7 0 2 0;
#X connect 8 0 2 0;
#X connect 9 0 2 0;
#X connect 10 0 2 0;
#X connect 11 0 2 0;
#X connect 12 0 2 0;
#X connect 13 0 2 0;
#X connect 14 0 2 0;
#X restore 594 327 pd \$0-keys.shape;
#X msg 633 242 0;
#X msg 765 229 clear;
#X obj 765 250 s pd-\$0-keys;
#X obj 594 213 t b b b;
#X obj 105 120 cnv 15 200 55 empty empty empty 20 12 0 14 -162280 -66577
0;
#N canvas -912 105 764 510 \$0-keys 0;
#X scalar 1007-key 990 0 36 \;;
#X scalar 1007-key 0 10 0 \;;
#X scalar 1007-key 990 20 36 \;;
#X scalar 1007-key 0 30 0 \;;
#X scalar 1007-key 990 40 36 \;;
#X scalar 1007-key 0 60 36 \;;
#X scalar 1007-key 990 70 0 \;;
#X scalar 1007-key 990 80 36 \;;
#X scalar 1007-key 0 90 0 \;;
#X scalar 1007-key 990 100 36 \;;
#X scalar 1007-key 0 110 0 \;;
#X scalar 1007-key 990 120 36 \;;
#X coords -4 -5 139 71 200 55 2 100 100;
#X restore 105 120 pd \$0-keys;
#X obj 594 98 bng 15 250 50 0 empty empty empty 17 7 0 10 -262144 -1
-1;
#X obj 594 368 append \$0-key status x y;
#X obj 185 180 nbx 5 15 0 11 0 0 \$0-root \$0-root.in root -22 7 0
8 -257985 -1 -1 7 256;
#N canvas 0 50 450 535 \$0-draw 0;
#X obj 218 352 pointer;
#X obj 218 310 f \$0;
#X obj 100 121 t b b;
#X msg 100 142 12;
#X obj 100 163 until;
#X obj 119 380 set \$0-key status;
#X msg 218 331 traverse pd-\$1-keys \, next;
#X obj 177 200 f 0;
#X obj 119 298 ==;
#X obj 119 241 f 0;
#X obj 144 241 + 1;
#X msg 134 220 0;
#X obj 209 200 + 1;
#X obj 209 226 f;
#X obj 100 184 t b b b;
#X msg 100 220 next;
#X obj 119 319 sel 0 1;
#X obj 177 252 array get \$1 0 1;
#X obj 177 273 list split 1;
#X obj 100 100 inlet;
#X msg 119 352 0;
#X msg 150 352 990;
#X connect 0 0 5 1;
#X connect 1 0 6 0;
#X connect 2 0 3 0;
#X connect 2 1 11 0;
#X connect 2 1 1 0;
#X connect 3 0 4 0;
#X connect 4 0 14 0;
#X connect 6 0 0 0;
#X connect 7 0 13 1;
#X connect 7 0 17 0;
#X connect 8 0 16 0;
#X connect 9 0 10 0;
#X connect 9 0 8 0;
#X connect 10 0 9 1;
#X connect 11 0 9 1;
#X connect 11 0 7 1;
#X connect 12 0 7 1;
#X connect 13 0 12 0;
#X connect 14 0 15 0;
#X connect 14 1 9 0;
#X connect 14 2 7 0;
#X connect 15 0 0 0;
#X connect 16 0 20 0;
#X connect 16 1 13 0;
#X connect 16 1 21 0;
#X connect 17 0 18 0;
#X connect 18 0 8 1;
#X connect 19 0 2 0;
#X connect 20 0 5 0;
#X connect 21 0 5 0;
#X restore 100 368 pd \$0-draw;
#N canvas 0 50 582 448 \$0-symbol 0;
#X obj 100 121 list fromsymbol;
#X obj 100 142 list split 1;
#X obj 113 163 list;
#X obj 119 242 - 48;
#X obj 119 284 t l l;
#X obj 98 305 list;
#X obj 119 263 list prepend;
#X obj 119 221 spigot;
#X obj 100 184 t b f f;
#X obj 152 200 expr $f1 > 47 && $f1 < 58;
#X obj 290 121 list split 1;
#X obj 303 143 list;
#X obj 290 164 t b f;
#X obj 317 206 + 48;
#X obj 317 248 t l l;
#X obj 317 227 list prepend;
#X obj 296 268 list;
#X obj 296 289 list tosymbol;
#X msg 296 310 set \$1;
#X obj 296 331 s \$0-intervals.symbol.in;
#X obj 290 100 r \$0-intervals;
#X obj 317 185 route float;
#X obj 100 100 r \$0-intervals.symbol;
#X obj 98 326 s \$0-intervals;
#X connect 0 0 1 0;
#X connect 1 0 8 0;
#X connect 1 1 2 1;
#X connect 1 2 5 0;
#X connect 1 2 6 1;
#X connect 2 0 1 0;
#X connect 3 0 6 0;
#X connect 4 0 5 1;
#X connect 4 1 6 1;
#X connect 5 0 23 0;
#X connect 6 0 4 0;
#X connect 7 0 3 0;
#X connect 8 0 2 0;
#X connect 8 1 7 0;
#X connect 8 2 9 0;
#X connect 9 0 7 1;
#X connect 10 0 12 0;
#X connect 10 1 11 1;
#X connect 10 2 15 1;
#X connect 10 2 16 0;
#X connect 11 0 10 0;
#X connect 12 0 11 0;
#X connect 12 1 21 0;
#X connect 13 0 15 0;
#X connect 14 0 16 1;
#X connect 14 1 15 1;
#X connect 15 0 14 0;
#X connect 16 0 17 0;
#X connect 17 0 18 0;
#X connect 18 0 19 0;
#X connect 20 0 10 0;
#X connect 21 0 13 0;
#X connect 22 0 0 0;
#X restore 100 238 pd \$0-symbol;
#N canvas 672 90 466 736 \$0-generate 0;
#X obj 119 162 list split 1;
#X obj 132 183 list;
#X obj 163 271 +;
#X obj 136 229 f 0;
#X obj 136 250 t f f;
#X obj 100 55 r \$0-scale.gen;
#X obj 100 142 t b l b;
#X obj 100 591 outlet;
#X obj 136 291 % 12;
#X obj 227 84 r \$0-root;
#X obj 227 105 t b f;
#X obj 136 433 t l l;
#X obj 115 454 list;
#X obj 136 412 list prepend;
#X obj 115 475 list split;
#X obj 115 496 list prepend;
#X obj 115 564 array set \$1;
#X obj 115 517 t l b;
#X msg 142 543 0;
#X obj 100 97 bang;
#X obj 239 158 f 0;
#X obj 119 204 t b b f b;
#X obj 172 365 f 0;
#X obj 196 365 + 1;
#X obj 187 338 <;
#X obj 136 312 t f b f f;
#X msg 221 322 0;
#X obj 172 386 spigot;
#X obj 100 121 array get \$0-intervals 0;
#X obj 100 76 route bang;
#X connect 0 0 21 0;
#X connect 0 1 1 1;
#X connect 0 2 12 0;
#X connect 1 0 0 0;
#X connect 2 0 3 1;
#X connect 3 0 4 0;
#X connect 4 0 8 0;
#X connect 4 1 2 0;
#X connect 5 0 29 0;
#X connect 6 0 7 0;
#X connect 6 1 0 0;
#X connect 6 2 13 1;
#X connect 6 2 20 0;
#X connect 6 2 26 0;
#X connect 8 0 25 0;
#X connect 9 0 10 0;
#X connect 10 0 28 0;
#X connect 10 1 20 1;
#X connect 11 0 12 1;
#X connect 11 1 13 1;
#X connect 12 0 14 0;
#X connect 13 0 11 0;
#X connect 14 0 15 0;
#X connect 14 1 15 1;
#X connect 15 0 17 0;
#X connect 17 0 16 0;
#X connect 17 1 18 0;
#X connect 18 0 16 1;
#X connect 19 0 28 0;
#X connect 20 0 3 1;
#X connect 21 0 1 0;
#X connect 21 1 3 0;
#X connect 21 2 2 1;
#X connect 22 0 23 0;
#X connect 22 0 27 0;
#X connect 23 0 22 1;
#X connect 24 0 27 1;
#X connect 25 0 13 0;
#X connect 25 1 22 0;
#X connect 25 2 24 1;
#X connect 25 3 24 0;
#X connect 26 0 14 1;
#X connect 26 0 22 1;
#X connect 26 0 24 1;
#X connect 27 0 14 1;
#X connect 28 0 6 0;
#X connect 29 0 19 0;
#X connect 29 1 6 0;
#X restore 100 342 pd \$0-generate;
#N canvas 0 50 450 408 \$0-intervals 0;
#X obj 119 275 array set \$0-intervals;
#X obj 139 254 array size \$0-intervals;
#X obj 139 142 list length;
#X obj 100 100 r \$0-intervals;
#X obj 100 296 s \$0-scale.gen;
#X msg 157 189 range 0 \$1;
#X obj 157 168 - 1;
#X obj 157 210 s \$0-mode.in;
#X obj 149 234 array size \$1;
#X obj 100 121 t b l l;
#X connect 2 0 1 0;
#X connect 2 0 6 0;
#X connect 2 0 8 0;
#X connect 3 0 9 0;
#X connect 5 0 7 0;
#X connect 6 0 5 0;
#X connect 9 0 4 0;
#X connect 9 1 0 0;
#X connect 9 2 2 0;
#X restore 100 212 pd \$0-intervals;
#X obj 594 187 r \$0-init;
#X obj 594 118 f \$0;
#X msg 594 139 \; \$1-init bang \; \$1-intervals 2 2 1 2 2 2 1;
#N canvas 0 50 450 556 \$0-random 0;
#X obj 117 223 random;
#X obj 117 267 list;
#X obj 117 244 t b f;
#X obj 117 288 list split;
#X obj 145 309 list split 1;
#X obj 117 372 list append;
#X obj 100 121 array get \$0-intervals;
#X obj 117 163 list length;
#X obj 117 204 until;
#X obj 117 184 t f f;
#X obj 117 393 list length;
#X obj 145 330 list append;
#X obj 145 351 t l l;
#X obj 100 142 t b l l b;
#X obj 100 414 list;
#X obj 100 435 s \$0-intervals;
#X obj 100 100 r \$0-random;
#X connect 0 0 2 0;
#X connect 1 0 3 0;
#X connect 2 0 1 0;
#X connect 2 1 3 1;
#X connect 3 0 5 0;
#X connect 3 1 4 0;
#X connect 4 0 11 0;
#X connect 4 1 5 1;
#X connect 5 0 1 1;
#X connect 5 0 10 0;
#X connect 6 0 13 0;
#X connect 7 0 9 0;
#X connect 8 0 0 0;
#X connect 9 0 8 0;
#X connect 9 1 0 1;
#X connect 10 0 0 1;
#X connect 11 0 12 0;
#X connect 12 0 14 1;
#X connect 12 1 11 1;
#X connect 13 0 14 0;
#X connect 13 1 7 0;
#X connect 13 2 1 1;
#X connect 13 3 11 1;
#X connect 14 0 15 0;
#X connect 16 0 6 0;
#X restore 100 316 pd \$0-random;
#X obj 204 342 array define -yrange 0 12 \$1;
#X obj 204 368 array define -yrange 0 12 \$0-intervals;
#X obj 209 212 r \$0-random;
#N canvas 0 50 450 396 \$0-mode 0;
#X obj 100 163 array get \$0-intervals;
#X obj 100 142 t b f;
#X obj 100 184 list split;
#X obj 100 205 t b l;
#X obj 100 226 list;
#X obj 100 247 list append;
#X obj 100 268 s \$0-scale.gen;
#X obj 100 100 r \$0-mode;
#X obj 100 121 change;
#X connect 0 0 2 0;
#X connect 1 0 0 0;
#X connect 1 1 2 1;
#X connect 2 0 3 0;
#X connect 2 1 4 1;
#X connect 3 0 4 0;
#X connect 3 1 5 1;
#X connect 4 0 5 0;
#X connect 5 0 6 0;
#X connect 7 0 8 0;
#X connect 8 0 1 0;
#X restore 100 264 pd \$0-mode;
#X obj 370 98 route intervals;
#X obj 370 224 s \$0-intervals;
#X obj 457 119 list split 1;
#X obj 457 140 makefilename \$0-%s;
#X obj 457 161 t b s;
#X obj 457 182 f;
#X obj 457 203 s;
#X symbolatom 255 105 8 0 0 0 - #0-intervals.symbol.in #0-intervals.symbol
;
#X connect 2 0 0 0;
#X connect 3 0 35 0;
#X connect 4 0 20 0;
#X connect 5 0 6 0;
#X connect 6 0 11 0;
#X connect 8 0 9 0;
#X connect 9 0 21 3;
#X connect 10 0 8 0;
#X connect 11 0 12 0;
#X connect 11 0 13 0;
#X connect 12 0 11 1;
#X connect 13 0 21 0;
#X connect 14 0 11 1;
#X connect 15 0 16 0;
#X connect 17 0 5 0;
#X connect 17 1 15 0;
#X connect 17 1 10 0;
#X connect 17 2 14 0;
#X connect 20 0 28 0;
#X connect 25 0 23 0;
#X connect 27 0 17 0;
#X connect 28 0 29 0;
#X connect 33 0 2 0;
#X connect 35 0 36 0;
#X connect 35 1 37 0;
#X connect 37 0 38 0;
#X connect 37 1 40 1;
#X connect 38 0 39 0;
#X connect 39 0 40 0;
#X connect 39 1 41 1;
#X connect 40 0 41 0;
#X coords 0 1 1 -1 210 100 1 100 100;
