#N canvas 59 51 1920 1007 10;
#X obj 565 536 *~;
#X obj 757 203 line~;
#X obj 867 519 line~;
#X obj 565 557 +~;
#X obj 527 595 *~;
#X obj 527 681 +~;
#X obj 707 336 wrap~;
#X obj 742 536 *~;
#X obj 742 557 +~;
#X obj 707 595 *~;
#X obj 707 315 +~ 0.5;
#X text 480 163 speed;
#X text 474 177 change;
#X text 455 259 tape head;
#X text 870 426 delay;
#X text 867 437 (msec);
#X text 455 272 rotation freq, f 9;
#X text 800 246 <= window (msec);
#X obj 677 28 r~ \$0-feedback;
#X obj 811 761 s~ \$0-feedback;
#X obj 527 357 -~ 0.5;
#X obj 527 377 abs~;
#X obj 527 397 -~ 0.25;
#X obj 527 439 clip~ -0.125 0.125;
#X obj 527 459 +~ 0.125;
#X obj 527 480 cos~;
#X obj 707 357 -~ 0.5;
#X obj 707 377 abs~;
#X obj 707 397 -~ 0.25;
#X obj 707 439 clip~ -0.125 0.125;
#X obj 707 459 +~ 0.125;
#X obj 707 480 cos~;
#X text 567 376 phasor -> tri;
#X text 458 439 off while out of phase, f 10;
#X obj 811 698 hip~ 10;
#X obj 811 719 *~;
#X obj 527 278 /~;
#X obj 527 257 *~ -1;
#X obj 527 236 -~ 1;
#X obj 742 578 vd~ \$0-d;
#X obj 565 578 vd~ \$0-d;
#X obj 526 126 delwrite~ \$0-d \$1;
#X obj 867 540 max~ 1.5;
#X obj 867 457 r \$0-delay;
#X obj 867 498 pack f f;
#X obj 912 478 r \$0-inertia;
#X obj 757 182 pack f f;
#X obj 802 162 r \$0-inertia;
#X obj 757 245 max~ 1;
#X obj 667 261 *~ 0.001;
#X obj 526 214 line~;
#X obj 526 193 pack f f;
#X obj 571 173 r \$0-inertia;
#X obj 757 141 r \$0-window;
#X obj 526 152 r \$0-factor;
#X obj 883 662 abs;
#X obj 868 719 /;
#X obj 883 681 max 1;
#X obj 868 641 samplerate~;
#X obj 868 598 r \$0-factor;
#X obj 155 130 nbx 5 15 -1e+037 1e+037 0 0 \$0-transpose \$0-transpose.in
transpose 0 -8 0 8 -257985 -1 -1 0 256;
#X obj 100 444 exp;
#X obj 100 423 * 0.05776;
#X obj 205 130 nbx 5 15 1e-037 1e+037 0 0 \$0-factor \$0-factor.in
factor 0 -8 0 8 -257985 -1 -1 1 256;
#X obj 100 402 r \$0-transpose;
#X obj 100 465 s \$0-factor.in;
#X obj 868 619 t b f;
#X obj 867 403 line~;
#X obj 867 382 pack f f;
#X obj 912 362 r \$0-inertia;
#X obj 707 418 *~;
#X obj 527 418 *~;
#X obj 867 341 r \$0-crossfade;
#X obj 260 175 nbx 5 15 0 1 0 0 \$0-window \$0-window.in empty 0 -8
0 8 -257985 -1 -1 0.5 256;
#X obj 260 195 nbx 5 15 0 1 0 0 \$0-crossfade \$0-crossfade.in empty
0 -8 0 8 -257985 -1 -1 0.5 256;
#X obj 757 224 *~ \$1;
#X obj 260 155 nbx 5 15 0 0 0 0 \$0-delay \$0-delay.in empty 0 -8 0
8 -257985 -1 -1 0 256;
#X msg 105 72 range 0 \$1;
#X obj 105 51 f \$1;
#X obj 105 279 nbx 5 15 0 1e+037 0 0 \$0-inertia \$0-inertia.in inertia
0 -8 0 8 -257985 -1 -1 20 256;
#X obj 100 531 loadbang;
#X obj 100 552 bng 15 250 50 0 empty empty empty 17 7 0 10 -262144
-1 -1;
#X obj 100 573 f \$0;
#X obj 105 30 r \$0-init;
#X obj 811 740 lop~;
#X floatatom 868 740 8 0 0 0 - - -;
#X obj 962 603 r \$0-init;
#X obj 951 50 list split 1;
#X obj 951 92 t b s;
#X obj 951 113 list;
#X obj 951 134 unpack f f;
#X obj 951 155 s;
#X obj 951 71 makefilename \$0-%s.in;
#X obj 526 34 inlet~ fwd;
#X obj 260 215 nbx 5 15 -1 1 0 0 \$0-feedback \$0-feedback.in empty
0 -8 0 8 -257985 -1 -1 0 256;
#X obj 1045 659 line~;
#X obj 1045 598 pack f f;
#X obj 1090 578 r \$0-inertia;
#X obj 1045 557 r \$0-feedback;
#X obj 1008 155 s \$0-inertia.in;
#N canvas 492 209 511 710 dphasor 0;
#X obj 86 188 /~;
#X obj 87 237 -~;
#X obj 103 211 wrap~;
#X obj 49 427 /~;
#X obj 86 410 +~;
#X obj 129 171 abs~;
#X obj 49 453 expr~ copysign($v1 \, $v2);
#X obj 49 519 phasor~;
#X obj 129 307 -~;
#X obj 159 254 +~ 1;
#X obj 144 280 /~;
#X obj 129 330 /~;
#X obj 71 281 /~;
#X obj 97 297 -~;
#X obj 129 393 expr~ $v1 < $v2;
#X obj 49 86 s~ \$0-frequency;
#X obj 190 154 r~ \$0-frequency;
#X obj 49 60 inlet~;
#X obj 49 540 outlet~;
#X obj 129 351 *~ 2;
#X obj 129 372 -~ 1;
#X obj 49 172 sig~ \$1;
#N canvas 428 227 936 599 vv 0;
#X obj 156 161 inlet~;
#X obj 156 250 *~ 0;
#X obj 156 269 phasor~;
#X obj 156 288 *~ 4;
#X obj 156 307 -~ 2;
#X obj 156 326 abs~;
#X obj 156 345 -~ 1;
#X obj 156 364 outlet~;
#X obj 177 208 samplerate~;
#X obj 177 229 / 2;
#X obj 177 187 r \$0-init;
#X text 279 157 based on one of acriel's random modulation algorithms
;
#X obj 254 179 bng 15 250 50 0 empty empty empty 17 7 0 10 -262144
-1 -1;
#X connect 0 0 1 0;
#X connect 1 0 2 0;
#X connect 2 0 3 0;
#X connect 3 0 4 0;
#X connect 4 0 5 0;
#X connect 5 0 6 0;
#X connect 6 0 7 0;
#X connect 8 0 9 0;
#X connect 9 0 1 1;
#X connect 10 0 8 0;
#X connect 12 0 8 0;
#X restore 216 372 pd vv;
#X obj 216 351 noise~;
#X connect 0 0 2 0;
#X connect 0 0 1 0;
#X connect 1 0 9 0;
#X connect 1 0 12 1;
#X connect 1 0 4 0;
#X connect 2 0 1 1;
#X connect 3 0 6 0;
#X connect 4 0 3 1;
#X connect 5 0 0 1;
#X connect 5 0 8 0;
#X connect 6 0 7 0;
#X connect 7 0 18 0;
#X connect 8 0 11 0;
#X connect 9 0 10 1;
#X connect 10 0 8 1;
#X connect 10 0 13 1;
#X connect 11 0 19 0;
#X connect 12 0 13 0;
#X connect 13 0 11 1;
#X connect 14 0 4 1;
#X connect 16 0 6 1;
#X connect 16 0 5 0;
#X connect 17 0 15 0;
#X connect 19 0 20 0;
#X connect 20 0 14 0;
#X connect 21 0 0 0;
#X connect 21 0 3 0;
#X connect 21 0 10 0;
#X connect 21 0 12 0;
#X connect 22 0 14 1;
#X connect 23 0 22 0;
#X restore 527 298 pd dphasor;
#X obj 883 700 * 2.25;
#X obj 1045 680 *~;
#X obj 677 49 expr~ tanh($v1 * 3.14159265359);
#X text 675 67 color & limit;
#X obj 1045 702 expr~ copysign($v1 \, $f2);
#X obj 108 155 hsl 150 15 0 0 0 0 \$0-delay.bar \$0-delay.bar.in delay
0 8 0 8 -262144 -1 -1 -2.14748e+009 0;
#X msg 315 154 set \$1;
#X obj 108 175 hsl 150 15 0 1 0 0 \$0-window.bar \$0-window.bar.in
window 0 8 0 8 -262144 -1 -1 4700 0;
#X msg 315 174 set \$1;
#X obj 108 195 hsl 150 15 0 1 0 0 \$0-crossfade.bar \$0-crossfade.bar.in
crossfade 0 8 0 8 -262144 -1 -1 4700 0;
#X msg 315 194 set \$1;
#X obj 108 215 hsl 150 15 -1 1 0 0 \$0-feedback.bar \$0-feedback.bar.in
feedback 0 8 0 8 -262144 -1 -1 4700 0;
#X msg 315 214 set \$1;
#X obj 260 235 nbx 5 15 0 1 0 0 \$0-mix \$0-mix.in empty 0 -8 0 8 -257985
-1 -1 1 256;
#X obj 108 235 hsl 150 15 0 1 0 0 \$0-mix.bar \$0-mix.bar.in mix 0
8 0 8 -262144 -1 -1 9400 0;
#X msg 315 234 set \$1;
#X obj 527 817 *~;
#X obj 678 821 *~;
#X obj 541 719 r~ \$0-mix;
#X obj 527 848 +~;
#X obj 527 879 *~;
#X obj 621 862 r~ \$0-level;
#X obj 527 900 outlet~;
#X obj 240 416 expr atan(1) * 2;
#X obj 240 437 v halfpi\$0;
#X obj 279 619 s~ \$0-mix;
#X obj 526 95 *~;
#X obj 577 78 r~ \$0-gain;
#X obj 105 130 nbx 5 15 0 2 0 0 \$0-gain \$0-gain.in gain 0 -8 0 8
-257985 -1 -1 1 256;
#X obj 155 280 nbx 5 15 0 2 0 0 \$0-level \$0-level.in level 0 -8 0
8 -257985 -1 -1 1 256;
#X obj 279 521 r \$0-mix;
#X obj 279 572 pack f f;
#X obj 324 545 r \$0-inertia;
#X obj 279 593 line~;
#X obj 279 692 pack f f;
#X obj 324 665 r \$0-inertia;
#X obj 279 713 line~;
#X obj 279 641 r \$0-gain;
#X obj 279 739 s~ \$0-gain;
#X obj 279 812 pack f f;
#X obj 324 785 r \$0-inertia;
#X obj 279 833 line~;
#X obj 279 761 r \$0-level;
#X obj 279 859 s~ \$0-level;
#X msg 100 594 \; \$1-delay.in 0 \; \$1-window.in 0.5 \; \$1-crossfade.in
0.5 \; \$1-transpose.in 0 \; \$1-factor.in 1 \; \$1-feedback.in 0 \;
\$1-mix.in 1 \; \$1-gain.in 1 \; \$1-level.in 1 \; \$1-inertia.in 20
\; \$1-init bang \;;
#X obj 541 750 expr~ sin($v1 * halfpi\$0) \; cos($v1 * halfpi\$0) \;
;
#X obj 240 388 r \$0-init;
#X connect 0 0 3 0;
#X connect 1 0 75 0;
#X connect 2 0 42 0;
#X connect 3 0 40 0;
#X connect 4 0 5 0;
#X connect 5 0 34 0;
#X connect 5 0 117 0;
#X connect 6 0 7 0;
#X connect 6 0 26 0;
#X connect 7 0 8 0;
#X connect 8 0 39 0;
#X connect 9 0 5 1;
#X connect 10 0 6 0;
#X connect 18 0 103 0;
#X connect 20 0 21 0;
#X connect 21 0 22 0;
#X connect 22 0 71 0;
#X connect 23 0 24 0;
#X connect 24 0 25 0;
#X connect 25 0 4 0;
#X connect 26 0 27 0;
#X connect 27 0 28 0;
#X connect 28 0 70 0;
#X connect 29 0 30 0;
#X connect 30 0 31 0;
#X connect 31 0 9 0;
#X connect 34 0 35 0;
#X connect 35 0 84 0;
#X connect 36 0 100 0;
#X connect 37 0 36 0;
#X connect 38 0 37 0;
#X connect 39 0 9 1;
#X connect 40 0 4 1;
#X connect 42 0 8 1;
#X connect 42 0 3 1;
#X connect 43 0 44 0;
#X connect 44 0 2 0;
#X connect 45 0 44 1;
#X connect 46 0 1 0;
#X connect 47 0 46 1;
#X connect 48 0 7 1;
#X connect 48 0 0 1;
#X connect 48 0 49 0;
#X connect 49 0 36 1;
#X connect 50 0 38 0;
#X connect 51 0 50 0;
#X connect 52 0 51 1;
#X connect 53 0 46 0;
#X connect 54 0 51 0;
#X connect 55 0 57 0;
#X connect 56 0 84 1;
#X connect 56 0 85 0;
#X connect 57 0 101 0;
#X connect 58 0 56 0;
#X connect 59 0 66 0;
#X connect 61 0 65 0;
#X connect 62 0 61 0;
#X connect 64 0 62 0;
#X connect 66 0 58 0;
#X connect 66 1 55 0;
#X connect 67 0 70 1;
#X connect 67 0 71 1;
#X connect 68 0 67 0;
#X connect 69 0 68 1;
#X connect 70 0 29 0;
#X connect 71 0 23 0;
#X connect 72 0 68 0;
#X connect 73 0 109 0;
#X connect 74 0 111 0;
#X connect 75 0 48 0;
#X connect 76 0 107 0;
#X connect 77 0 76 0;
#X connect 77 0 106 0;
#X connect 78 0 77 0;
#X connect 80 0 81 0;
#X connect 81 0 82 0;
#X connect 82 0 145 0;
#X connect 83 0 78 0;
#X connect 84 0 19 0;
#X connect 86 0 66 0;
#X connect 87 0 92 0;
#X connect 87 1 89 1;
#X connect 88 0 89 0;
#X connect 88 1 91 1;
#X connect 89 0 90 0;
#X connect 90 0 91 0;
#X connect 90 1 99 0;
#X connect 92 0 88 0;
#X connect 93 0 127 0;
#X connect 93 0 118 0;
#X connect 93 1 87 0;
#X connect 94 0 113 0;
#X connect 95 0 102 0;
#X connect 95 0 102 1;
#X connect 96 0 95 0;
#X connect 97 0 96 1;
#X connect 98 0 96 0;
#X connect 98 0 105 1;
#X connect 100 0 10 0;
#X connect 100 0 20 0;
#X connect 100 0 0 0;
#X connect 101 0 56 1;
#X connect 102 0 105 0;
#X connect 103 0 41 0;
#X connect 105 0 35 1;
#X connect 106 0 76 0;
#X connect 107 0 106 0;
#X connect 108 0 73 0;
#X connect 109 0 108 0;
#X connect 110 0 74 0;
#X connect 111 0 110 0;
#X connect 112 0 94 0;
#X connect 113 0 112 0;
#X connect 114 0 116 0;
#X connect 115 0 114 0;
#X connect 116 0 115 0;
#X connect 117 0 120 0;
#X connect 118 0 120 1;
#X connect 119 0 146 0;
#X connect 120 0 121 0;
#X connect 121 0 123 0;
#X connect 122 0 121 1;
#X connect 124 0 125 0;
#X connect 127 0 41 0;
#X connect 128 0 127 1;
#X connect 131 0 132 0;
#X connect 132 0 134 0;
#X connect 133 0 132 1;
#X connect 134 0 126 0;
#X connect 135 0 137 0;
#X connect 136 0 135 1;
#X connect 137 0 139 0;
#X connect 138 0 135 0;
#X connect 140 0 142 0;
#X connect 141 0 140 1;
#X connect 142 0 144 0;
#X connect 143 0 140 0;
#X connect 146 0 117 1;
#X connect 146 1 118 1;
#X connect 147 0 124 0;
#X coords 0 -1 1 1 210 210 1 100 100;
