#N canvas 290 165 986 810 10;
#N canvas 1013 326 637 543 \$0-init 0;
#N canvas 449 200 663 583 \$0-bus.gen 0;
#X msg 159 197 clear;
#X obj 89 239 until;
#X obj 89 265 f 0;
#X obj 121 265 + 1;
#X msg 127 197 0;
#X obj 89 197 f \$2;
#X obj 218 387 makefilename \$1-%d;
#X obj 89 85 inlet;
#X obj 89 109 t b b;
#X obj 89 312 expr ($f1 * 25) + 100 \; \$0 \; $f1 \;;
#X obj 89 424 pack f f f s;
#X msg 89 450 obj 100 \$1 bin/bus.out \$4 \$2 \$3;
#X obj 89 490 s pd-\$0-bus;
#X connect 0 0 12 0;
#X connect 1 0 2 0;
#X connect 2 0 3 0;
#X connect 2 0 9 0;
#X connect 3 0 2 1;
#X connect 4 0 2 1;
#X connect 5 0 1 0;
#X connect 6 0 10 3;
#X connect 7 0 8 0;
#X connect 8 0 5 0;
#X connect 8 1 4 0;
#X connect 8 1 0 0;
#X connect 9 0 10 0;
#X connect 9 1 10 1;
#X connect 9 2 6 0;
#X connect 9 2 10 2;
#X connect 10 0 11 0;
#X connect 11 0 12 0;
#X restore 92 364 pd \$0-bus.gen;
#X obj 108 341 v \$0-halfpi;
#X obj 108 320 expr atan(1) * 2;
#X obj 61 214 r \$0-init.0;
#X obj 61 426 s \$0-memory.name;
#X obj 61 405 symbol \$1;
#X obj 124 256 f \$2;
#X obj 61 67 inlet;
#X obj 61 88 pack \$0 \$2;
#X obj 61 235 t b b b b b;
#N canvas 871 233 450 300 \$0-memory.reset 0;
#X obj 37 37 inlet;
#X obj 37 58 f \$2;
#X obj 37 79 + 1;
#X msg 253 110 resize \$1 \, const 0.5;
#X obj 47 131 s \$0-memory_lvl;
#X obj 253 131 s \$0-memory_pan;
#X obj 37 231 s \$0-memory_mute;
#X obj 243 231 s \$0-memory_solo;
#X msg 37 210 resize \$1 \, const 0;
#X msg 243 210 resize \$1 \, const 0;
#X msg 47 110 resize \$1 \, const 1;
#X floatatom 15 127 5 0 0 0 - - -;
#X connect 0 0 1 0;
#X connect 1 0 2 0;
#X connect 2 0 10 0;
#X connect 2 0 3 0;
#X connect 2 0 8 0;
#X connect 2 0 9 0;
#X connect 2 0 11 0;
#X connect 3 0 5 0;
#X connect 8 0 6 0;
#X connect 9 0 7 0;
#X connect 10 0 4 0;
#X restore 76 384 pd \$0-memory.reset;
#X msg 124 277 range 0 \$1 \, 0;
#X obj 124 298 s \$0-track.in;
#X msg 61 110 \; \$1-init.0 bang \; \$1-init.1 bang \; \$1-inertia.in
1 \; \$1-on.in 1 \; \$1-update bang \;;
#X connect 2 0 1 0;
#X connect 3 0 9 0;
#X connect 5 0 4 0;
#X connect 6 0 11 0;
#X connect 7 0 8 0;
#X connect 8 0 13 0;
#X connect 9 0 5 0;
#X connect 9 1 10 0;
#X connect 9 2 0 0;
#X connect 9 3 2 0;
#X connect 9 4 6 0;
#X connect 11 0 12 0;
#X restore 100 351 pd \$0-init;
#N canvas 29 614 740 314 \$0-memory 0;
#X obj 252 86 array define -yrange 0 1 \$1-pan;
#X obj 34 58 r \$0-memory_lvl;
#X obj 252 58 r \$0-memory_pan;
#X obj 34 166 r \$0-memory_mute;
#X obj 34 194 array define -yrange 0 100 \$1-mute;
#X obj 252 166 r \$0-memory_solo;
#X obj 252 194 array define -yrange 0 1 \$1-solo;
#X msg 503 99 const 0;
#X obj 503 130 s \$0-memory_mute;
#X obj 613 130 s \$0-memory_solo;
#X obj 476 79 t b b;
#X obj 579 95 s \$0-clear;
#X obj 34 86 array define -yrange 0 1 \$1-lvl;
#X obj 476 58 r \$0-clear;
#X obj 476 150 s \$0-update;
#X connect 1 0 12 0;
#X connect 2 0 0 0;
#X connect 3 0 4 0;
#X connect 5 0 6 0;
#X connect 7 0 8 0;
#X connect 7 0 9 0;
#X connect 10 0 14 0;
#X connect 10 1 7 0;
#X connect 10 1 11 0;
#X connect 13 0 10 0;
#X restore 100 403 pd \$0-memory;
#X obj 372 100 inlet;
#X obj 399 487 list split 1;
#X obj 399 508 makefilename \$1-%d_lvl;
#X obj 399 575 s;
#X obj 399 529 t b s;
#X obj 399 550 list;
#X obj 435 378 list split 1;
#X obj 435 466 s;
#X obj 435 420 t b s;
#X obj 435 441 list;
#X obj 435 399 makefilename \$1-%d_pan;
#X obj 472 273 list split 1;
#X obj 472 357 s;
#X obj 472 315 t b s;
#X obj 472 336 list;
#X obj 472 294 makefilename \$1-%d_mute;
#X obj 509 168 list split 1;
#X obj 509 252 s;
#X obj 509 210 t b s;
#X obj 509 231 list;
#X obj 509 189 makefilename \$1-%d_solo;
#X obj 372 126 t b a;
#X obj 100 476 outlet~;
#X obj 175 476 outlet~;
#X obj 162 331 switch~;
#X obj 100 310 loadbang;
#X obj 100 331 bng 15 250 50 0 empty empty empty 17 7 0 10 -262144
-1 -1;
#X obj 148 162 hsl 94 15 0 1 0 0 \$0-pan.slideOut \$0-pan.slideIn pan
-2 8 0 8 -262017 -1 -1 4650 0;
#X obj 105 162 nbx 4 15 0 1e+037 0 0 \$0-pan.numOut \$0-pan.numIn empty
0 -6 0 8 -262017 -1 -1 0.5 256;
#X obj 148 145 hsl 94 15 0 1 0 0 \$0-lvl.slideOut \$0-lvl.slideIn level
-2 8 0 8 -257985 -1 -1 9300 0;
#X obj 105 145 nbx 4 15 0 1 0 0 \$0-lvl.numOut \$0-lvl.numIn empty
0 -6 0 8 -257985 -1 -1 1 256;
#X obj 145 128 nbx 4 15 0 2 0 0 \$0-track.out \$0-track.in track 0
-6 0 8 -257985 -1 -1 0 256;
#X obj 281 112 vu 8 80 \$0-meter.masterR empty -1 -8 0 7 -66577 -1
1 0;
#X obj 270 112 vu 8 80 \$0-meter.masterL empty -1 -8 0 7 -66577 -1
0 0;
#X obj 105 128 tgl 15 0 \$0-on \$0-on.in on 17 7 0 8 -257985 -1 -1
1 1;
#X obj 185 179 bng 15 250 50 0 \$0-clear \$0-clear.in clear 17 7 0
8 -257985 -1 -1;
#X obj 185 128 nbx 4 15 0.1 100 0 0 \$0-inertia \$0-inertia.in inertia
0 -6 0 8 -257985 -1 -1 1 256;
#X obj 258 112 vu 8 80 \$0-meter.currentR empty -1 -8 0 7 -66577 -1
0 0;
#X obj 247 112 vu 8 80 \$0-meter.currentL empty -1 -8 0 7 -66577 -1
0 0;
#X obj 105 179 tgl 15 0 \$0-mute.out \$0-mute.in mute 17 7 0 8 -257985
-1 -1 0 1;
#X obj 145 179 tgl 15 0 \$0-solo.out \$0-solo.in solo 17 7 0 8 -262017
-1 -1 0 1;
#X obj 399 147 route level pan mute solo;
#X obj 372 596 s \$0-update;
#X obj 162 310 r \$0-on;
#X obj 665 163 list split 1;
#X obj 665 247 s;
#X obj 665 205 t b s;
#X obj 665 226 list;
#X obj 665 184 makefilename \$0-%s.in;
#N canvas 757 83 1303 770 \$0-ui 1;
#X obj 100 100 r \$0-lvl.slideOut;
#X msg 100 191 set \$1;
#X obj 100 212 s \$0-lvl.numIn;
#X obj 212 100 r \$0-lvl.numOut;
#X msg 212 191 set \$1;
#X obj 212 212 s \$0-lvl.slideIn;
#X msg 100 320 set \$1;
#X msg 212 320 set \$1;
#X obj 100 238 r \$0-pan.slideOut;
#X obj 212 238 r \$0-pan.numOut;
#X obj 212 341 s \$0-pan.slideIn;
#X obj 100 341 s \$0-pan.numIn;
#X obj 331 191 makefilename \$1-%d_lvl;
#X obj 331 320 makefilename \$1-%d_pan;
#X obj 316 341 s;
#X obj 316 212 s;
#X obj 361 100 r \$0-inertia;
#X obj 316 149 pack f f;
#X obj 316 280 pack f f;
#X obj 487 100 r \$0-mute.out;
#X obj 487 184 r \$0-solo.out;
#X obj 487 252 s;
#X obj 502 231 makefilename \$1-%d_solo;
#X obj 487 163 s;
#X obj 502 142 makefilename \$1-%d_mute;
#X obj 331 299 r \$0-track.out;
#X obj 331 170 r \$0-track.out;
#X obj 502 210 r \$0-track.out;
#X obj 502 121 r \$0-track.out;
#X obj 100 570 r \$0-track.out;
#X obj 765 141 r \$0-track.out;
#X obj 815 380 array get \$1-mute 0 1;
#X obj 975 380 array get \$1-solo 0 1;
#X msg 765 271 set \$1;
#X obj 765 292 s \$0-lvl.numIn;
#X obj 785 312 s \$0-lvl.slideIn;
#X obj 765 250 array get \$1-lvl 0 1;
#X obj 925 250 array get \$1-pan 0 1;
#X msg 925 271 set \$1;
#X obj 925 292 s \$0-pan.numIn;
#X obj 945 312 s \$0-pan.slideIn;
#X msg 815 401 set \$1;
#X obj 699 157 f 0;
#X obj 699 177 s \$0-track.out;
#X msg 809 173 set \$1;
#X obj 809 194 s \$0-track.in;
#X obj 815 422 s \$0-mute.in;
#X msg 975 401 set \$1;
#X obj 975 422 s \$0-solo.in;
#X obj 699 100 r \$0-update;
#X obj 100 815 s \$0-pan.slideIn;
#X msg 100 659 color #fffa00 22 22;
#X obj 100 591 == \$2;
#X obj 100 612 change;
#X obj 100 633 sel 0 1;
#X msg 119 678 color #cccccc #cccccc #cccccc;
#X obj 119 836 s \$0-pan.numIn;
#X msg 142 736 color #fffa00 22 22;
#X msg 155 713 color #cccccc #cccccc 22;
#X obj 142 772 s \$0-solo.in;
#X connect 0 0 1 0;
#X connect 0 0 17 0;
#X connect 1 0 2 0;
#X connect 3 0 4 0;
#X connect 3 0 17 0;
#X connect 4 0 5 0;
#X connect 6 0 11 0;
#X connect 7 0 10 0;
#X connect 8 0 6 0;
#X connect 8 0 18 0;
#X connect 9 0 7 0;
#X connect 9 0 18 0;
#X connect 12 0 15 1;
#X connect 13 0 14 1;
#X connect 16 0 17 1;
#X connect 16 0 18 1;
#X connect 17 0 15 0;
#X connect 18 0 14 0;
#X connect 19 0 23 0;
#X connect 20 0 21 0;
#X connect 22 0 21 1;
#X connect 24 0 23 1;
#X connect 25 0 13 0;
#X connect 26 0 12 0;
#X connect 27 0 22 0;
#X connect 28 0 24 0;
#X connect 29 0 52 0;
#X connect 30 0 37 0;
#X connect 30 0 32 0;
#X connect 30 0 31 0;
#X connect 30 0 36 0;
#X connect 30 0 42 1;
#X connect 31 0 41 0;
#X connect 32 0 47 0;
#X connect 33 0 34 0;
#X connect 33 0 35 0;
#X connect 36 0 33 0;
#X connect 37 0 38 0;
#X connect 38 0 39 0;
#X connect 38 0 40 0;
#X connect 41 0 46 0;
#X connect 42 0 43 0;
#X connect 42 0 44 0;
#X connect 44 0 45 0;
#X connect 47 0 48 0;
#X connect 49 0 42 0;
#X connect 51 0 50 0;
#X connect 51 0 56 0;
#X connect 52 0 53 0;
#X connect 53 0 54 0;
#X connect 54 0 51 0;
#X connect 54 0 57 0;
#X connect 54 1 55 0;
#X connect 54 1 58 0;
#X connect 55 0 50 0;
#X connect 55 0 56 0;
#X connect 57 0 59 0;
#X connect 58 0 59 0;
#X restore 100 377 pd \$0-ui;
#N canvas 252 167 978 851 \$0-output 0;
#X obj 97 73 catch~ \$0-bus.L;
#X obj 272 73 catch~ \$0-bus.R;
#X obj 272 289 *~;
#X obj 97 289 *~;
#X obj 112 223 clip~ 0 1;
#X obj 97 456 outlet~;
#X obj 272 456 outlet~;
#X obj 112 160 unpack f f;
#X obj 112 202 lop~ 2;
#X obj 112 118 r \$1-\$2_lvl;
#X obj 287 349 sig~ 1;
#X obj 287 329 == 0;
#X obj 287 308 r \$1-\$2_mute;
#X obj 287 370 lop~ 5;
#X obj 97 396 *~;
#X obj 272 396 *~;
#X obj 325 329 array set \$1-mute \$2;
#X obj 122 139 array set \$1-lvl \$2;
#X obj 153 456 s~ \$1-\$2_L;
#X obj 328 456 s~ \$1-\$2_R;
#X obj 112 181 sig~ 1;
#X connect 0 0 3 0;
#X connect 1 0 2 0;
#X connect 2 0 15 0;
#X connect 3 0 14 0;
#X connect 4 0 3 1;
#X connect 4 0 2 1;
#X connect 7 0 20 0;
#X connect 7 1 8 1;
#X connect 8 0 4 0;
#X connect 9 0 7 0;
#X connect 9 0 17 0;
#X connect 10 0 13 0;
#X connect 11 0 10 0;
#X connect 12 0 11 0;
#X connect 12 0 16 0;
#X connect 13 0 14 1;
#X connect 13 0 15 1;
#X connect 14 0 5 0;
#X connect 14 0 18 0;
#X connect 15 0 6 0;
#X connect 15 0 19 0;
#X connect 20 0 8 0;
#X restore 100 455 pd \$0-output;
#N canvas 474 273 498 369 \$0-bus 0;
#X obj 100 100 bin/bus.out ch-0 1142 0;
#X obj 100 125 bin/bus.out ch-1 1142 1;
#X restore 100 429 pd \$0-bus;
#X obj 100 618 s \$0-meter.masterL;
#X obj 100 576 env~ 1024;
#X obj 100 597 - 100;
#X obj 250 576 env~ 1024;
#X obj 250 597 - 100;
#X obj 250 618 s \$0-meter.masterR;
#X obj 100 552 r~ \$1-\$2_L;
#X obj 250 552 r~ \$1-\$2_L;
#X obj 100 644 r \$0-track.out;
#X msg 100 689 set \$1;
#X obj 100 668 makefilename \$1-%d_L;
#X obj 100 729 env~ 1024;
#X obj 100 750 - 100;
#X obj 100 771 s \$0-meter.currentL;
#X msg 230 689 set \$1;
#X obj 230 729 env~ 1024;
#X obj 230 750 - 100;
#X obj 230 668 makefilename \$1-%d_R;
#X obj 230 771 s \$0-meter.currentR;
#X obj 100 708 r~ \$1-0_L;
#X obj 230 708 r~ \$1-0_R;
#X connect 2 0 23 0;
#X connect 3 0 4 0;
#X connect 3 1 7 1;
#X connect 4 0 6 0;
#X connect 6 0 7 0;
#X connect 6 1 5 1;
#X connect 7 0 5 0;
#X connect 8 0 12 0;
#X connect 8 1 11 1;
#X connect 10 0 11 0;
#X connect 10 1 9 1;
#X connect 11 0 9 0;
#X connect 12 0 10 0;
#X connect 13 0 17 0;
#X connect 13 1 16 1;
#X connect 15 0 16 0;
#X connect 15 1 14 1;
#X connect 16 0 14 0;
#X connect 17 0 15 0;
#X connect 18 0 22 0;
#X connect 18 1 21 1;
#X connect 20 0 21 0;
#X connect 20 1 19 1;
#X connect 21 0 19 0;
#X connect 22 0 20 0;
#X connect 23 0 44 0;
#X connect 23 1 43 0;
#X connect 27 0 28 0;
#X connect 28 0 0 0;
#X connect 43 0 3 0;
#X connect 43 1 8 0;
#X connect 43 2 13 0;
#X connect 43 3 18 0;
#X connect 43 4 46 0;
#X connect 45 0 26 0;
#X connect 46 0 50 0;
#X connect 46 1 49 1;
#X connect 48 0 49 0;
#X connect 48 1 47 1;
#X connect 49 0 47 0;
#X connect 50 0 48 0;
#X connect 52 0 24 0;
#X connect 52 1 25 0;
#X connect 55 0 56 0;
#X connect 56 0 54 0;
#X connect 57 0 58 0;
#X connect 58 0 59 0;
#X connect 60 0 55 0;
#X connect 61 0 57 0;
#X connect 62 0 64 0;
#X connect 62 0 71 0;
#X connect 63 0 73 0;
#X connect 64 0 63 0;
#X connect 65 0 66 0;
#X connect 66 0 67 0;
#X connect 68 0 74 0;
#X connect 69 0 70 0;
#X connect 70 0 72 0;
#X connect 71 0 68 0;
#X connect 73 0 65 0;
#X connect 74 0 69 0;
#X coords 0 -1 1 1 210 100 1 100 100;
