#N canvas 333 111 986 810 10;
#N canvas 1013 326 637 543 \$0-init 0;
#X obj 61 67 inlet;
#X obj 61 88 pack \$0 \$2;
#X msg 61 110 \; \$1-init bang \; \$1-track.in 0 \; \$1-inertia.in
20 \;;
#X connect 0 0 1 0;
#X connect 1 0 2 0;
#X restore 609 195 pd \$0-init;
#N canvas 1028 329 510 259 \$0-memory 0;
#X obj 34 28 r \$0-init;
#X obj 34 86 array define \$0-lvl \$2;
#X obj 34 112 array define \$0-mute \$2;
#X obj 252 86 array define \$0-pan \$2;
#X obj 252 112 array define \$0-solo \$2;
#X msg 34 133 const 0;
#X msg 34 65 const 1;
#X msg 252 65 const 0.5;
#X msg 252 133 const 0;
#X connect 0 0 6 0;
#X connect 0 0 7 0;
#X connect 0 0 8 0;
#X connect 0 0 5 0;
#X connect 5 0 2 0;
#X connect 6 0 1 0;
#X connect 7 0 3 0;
#X connect 8 0 4 0;
#X restore 609 247 pd \$0-memory;
#X obj 100 230 inlet;
#X obj 100 256 t b a;
#X obj 671 175 switch~;
#X obj 609 154 loadbang;
#X obj 609 175 bng 15 250 50 0 empty empty empty 17 7 0 10 -262144
-1 -1;
#X obj 148 162 hsl 94 15 0 1 0 0 \$0-pan.slideOut \$0-pan.slideIn pan
-2 8 0 8 -262017 -1 -1 1500 0;
#X obj 105 162 nbx 4 15 0 1e+037 0 0 \$0-pan.numOut \$0-pan.numIn empty
0 -6 0 8 -262017 -1 -1 0.16129 256;
#X obj 148 145 hsl 94 15 0 1 0 0 \$0-lvl.slideOut \$0-lvl.slideIn level
-2 8 0 8 -257985 -1 -1 9300 0;
#X obj 105 145 nbx 4 15 0 1 0 0 \$0-lvl.numOut \$0-lvl.numIn empty
0 -6 0 8 -257985 -1 -1 1 256;
#X obj 145 128 nbx 4 15 0 4 0 0 \$0-track.out \$0-track.in track 0
-6 0 8 -257985 -1 -1 2 256;
#X obj 281 112 vu 8 80 \$0-meter.masterR empty -1 -8 0 7 -66577 -1
1 0;
#X obj 270 112 vu 8 80 \$0-meter.masterL empty -1 -8 0 7 -66577 -1
0 0;
#X obj 105 128 tgl 15 0 \$0-on \$0-on.in on 17 7 0 8 -257985 -1 -1
1 1;
#X obj 185 179 bng 15 250 50 0 \$0-clear \$0-clear.in clear 17 7 0
8 -257985 -1 -1;
#X obj 185 128 nbx 4 15 0.1 100 0 0 \$0-inertia \$0-inertia.in inertia
0 -6 0 8 -257985 -1 -1 20 256;
#X obj 258 112 vu 8 80 \$0-meter.currentR empty -1 -8 0 7 -66577 -1
0 0;
#X obj 247 112 vu 8 80 \$0-meter.currentL empty -1 -8 0 7 -66577 -1
0 0;
#X obj 105 179 tgl 15 0 \$0-mute.out \$0-mute.in mute 17 7 0 8 -257985
-1 -1 0 1;
#X obj 145 179 tgl 15 0 \$0-solo.out \$0-solo.in solo 17 7 0 8 -262017
-1 -1 0 1;
#X obj 127 277 route level pan mute solo;
#X obj 100 465 s \$0-update;
#X obj 671 154 r \$0-on;
#X obj 393 293 list split 1;
#X obj 393 377 s;
#X obj 393 335 t b s;
#X obj 393 356 list;
#X obj 393 314 makefilename \$0-%s.in;
#N canvas 691 146 968 617 \$0-ui 1;
#X obj 100 100 r \$0-lvl.slideOut;
#X msg 100 191 set \$1;
#X obj 100 212 s \$0-lvl.numIn;
#X obj 212 100 r \$0-lvl.numOut;
#X msg 212 191 set \$1;
#X obj 212 212 s \$0-lvl.slideIn;
#X msg 100 320 set \$1;
#X msg 212 320 set \$1;
#X obj 100 238 r \$0-pan.slideOut;
#X obj 212 238 r \$0-pan.numOut;
#X obj 212 341 s \$0-pan.slideIn;
#X obj 100 341 s \$0-pan.numIn;
#X obj 100 456 r \$0-inertia;
#X obj 100 367 r \$0-mute.out;
#X obj 322 363 r \$0-solo.out;
#X obj 374 100 r \$0-track.out;
#X obj 575 141 r \$0-track.out;
#X msg 575 271 set \$1;
#X obj 575 292 s \$0-lvl.numIn;
#X obj 595 312 s \$0-lvl.slideIn;
#X msg 735 271 set \$1;
#X obj 735 292 s \$0-pan.numIn;
#X obj 755 312 s \$0-pan.slideIn;
#X msg 625 401 set \$1;
#X obj 509 157 f 0;
#X obj 509 177 s \$0-track.out;
#X msg 619 173 set \$1;
#X obj 619 194 s \$0-track.in;
#X obj 625 422 s \$0-mute.in;
#X msg 785 401 set \$1;
#X obj 785 422 s \$0-solo.in;
#X obj 509 100 r \$0-update;
#X obj 575 250 array get \$0-lvl 0 1;
#X obj 735 250 array get \$0-pan 0 1;
#X obj 785 380 array get \$0-solo 0 1;
#X obj 374 238 r \$0-track.out;
#X obj 322 342 array set \$0-pan 0;
#X obj 322 212 array set \$0-lvl 0;
#X obj 155 393 r \$0-track.out;
#X obj 100 477 swap 1000;
#X obj 100 498 /;
#X obj 100 519 s \$0-slop;
#X obj 322 384 t b f;
#X obj 322 451 sig~ 0;
#X obj 322 472 s~ \$0-solo_total;
#X obj 349 406 array set \$0-solo 0;
#X obj 625 380 array get \$0-mute 0 1;
#X obj 100 430 array set \$0-mute 0;
#X obj 322 430 array sum \$0-solo;
#X obj 217 363 r \$0-solo.update;
#X obj 287 414 bang;
#X connect 0 0 1 0;
#X connect 0 0 37 0;
#X connect 1 0 2 0;
#X connect 3 0 4 0;
#X connect 3 0 37 0;
#X connect 4 0 5 0;
#X connect 6 0 11 0;
#X connect 7 0 10 0;
#X connect 8 0 6 0;
#X connect 8 0 36 0;
#X connect 9 0 7 0;
#X connect 9 0 36 0;
#X connect 12 0 39 0;
#X connect 13 0 47 0;
#X connect 14 0 42 0;
#X connect 15 0 37 1;
#X connect 16 0 24 1;
#X connect 16 0 32 0;
#X connect 16 0 33 0;
#X connect 16 0 34 0;
#X connect 16 0 46 0;
#X connect 17 0 18 0;
#X connect 17 0 19 0;
#X connect 20 0 21 0;
#X connect 20 0 22 0;
#X connect 23 0 28 0;
#X connect 24 0 25 0;
#X connect 24 0 26 0;
#X connect 24 0 32 0;
#X connect 24 0 33 0;
#X connect 24 0 46 0;
#X connect 24 0 34 0;
#X connect 26 0 27 0;
#X connect 29 0 30 0;
#X connect 31 0 24 0;
#X connect 32 0 17 0;
#X connect 33 0 20 0;
#X connect 34 0 29 0;
#X connect 35 0 36 1;
#X connect 35 0 45 1;
#X connect 38 0 47 1;
#X connect 39 0 40 0;
#X connect 39 1 40 1;
#X connect 40 0 41 0;
#X connect 42 0 48 0;
#X connect 42 1 45 0;
#X connect 43 0 44 0;
#X connect 46 0 23 0;
#X connect 48 0 43 0;
#X connect 49 0 50 0;
#X connect 50 0 48 0;
#X restore 609 221 pd \$0-ui;
#X obj 554 418 s \$0-meter.masterL;
#X obj 554 376 env~ 1024;
#X obj 554 397 - 100;
#X obj 694 376 env~ 1024;
#X obj 694 397 - 100;
#X obj 694 418 s \$0-meter.masterR;
#X obj 609 293 clone bin/bus \$2 \$0 \$1;
#X obj 145 11 r \$0-init;
#X obj 145 32 f \$2;
#X obj 145 53 - 1;
#X obj 610 454 outlet~;
#X obj 738 454 outlet~;
#X msg 145 74 range 0 \$1;
#X msg 105 75 1;
#X obj 127 425 array set \$0-lvl;
#X obj 127 303 unpack f f;
#X obj 163 323 unpack f f;
#X obj 200 344 unpack f f;
#X obj 322 432 unpack f f;
#X obj 295 293 t b l;
#X obj 322 465 array set \$0-solo;
#X obj 295 491 s \$0-solo.update;
#X obj 163 445 array set \$0-pan;
#X obj 200 465 array set \$0-mute;
#X connect 2 0 3 0;
#X connect 3 0 22 0;
#X connect 3 1 21 0;
#X connect 5 0 6 0;
#X connect 6 0 0 0;
#X connect 21 0 45 0;
#X connect 21 1 46 0;
#X connect 21 2 47 0;
#X connect 21 3 49 0;
#X connect 21 4 24 0;
#X connect 23 0 4 0;
#X connect 24 0 28 0;
#X connect 24 1 27 1;
#X connect 26 0 27 0;
#X connect 26 1 25 1;
#X connect 27 0 25 0;
#X connect 28 0 26 0;
#X connect 31 0 32 0;
#X connect 32 0 30 0;
#X connect 33 0 34 0;
#X connect 34 0 35 0;
#X connect 36 0 40 0;
#X connect 36 0 31 0;
#X connect 36 1 41 0;
#X connect 36 1 33 0;
#X connect 37 0 38 0;
#X connect 37 0 43 0;
#X connect 38 0 39 0;
#X connect 39 0 42 0;
#X connect 42 0 11 0;
#X connect 43 0 14 0;
#X connect 45 0 44 0;
#X connect 45 1 44 1;
#X connect 46 0 52 0;
#X connect 46 1 52 1;
#X connect 47 0 53 0;
#X connect 47 1 53 1;
#X connect 48 0 50 0;
#X connect 48 1 50 1;
#X connect 49 0 51 0;
#X connect 49 1 48 0;
#X coords 0 -1 1 1 210 100 1 100 100;
