#N struct 1219-cell float status float x float y;
#N struct 1219-arm float px float py;
#N struct 1220-key float status float x float y;
#N canvas 145 169 1008 709 10;
#X obj 494 120 s start;
#X obj 494 100 tgl 15 0 empty empty empty 20 7 0 10 -257985 -1 -1 1
1;
#N canvas 886 473 450 300 \$0-output 0;
#X obj 122 115 cc.output~;
#X text 129 99 Volume Control;
#X obj 121 55 inlet~;
#X obj 324 55 inlet~;
#X connect 2 0 0 0;
#X connect 3 0 0 1;
#X restore 148 483 pd \$0-output;
#X obj 199 132 nbx 4 15 -1e+037 1e+037 0 0 empty empty tempo 0 -8 0
10 -257985 -1 -1 200 256;
#X obj 148 102 r start;
#N canvas 367 112 506 552 \$0-drums 0;
#X obj 37 37 inlet;
#X obj 37 288 sel 1 2;
#X obj 37 344 cc.ezkick~;
#X msg 37 309 440 1;
#X msg 167 309 440 1;
#X obj 167 344 cc.ezsnare~;
#X obj 37 479 outlet~;
#X obj 37 69 cc.euclid;
#X obj 95 17 loadbang;
#X msg 95 39 pulses 6 \, accents 2 \, accents rotate 2 \, pulses value
1 \, accents value 2, f 35;
#X connect 0 0 7 0;
#X connect 1 0 3 0;
#X connect 1 1 4 0;
#X connect 2 0 6 0;
#X connect 3 0 2 0;
#X connect 4 0 5 0;
#X connect 5 0 6 0;
#X connect 7 0 1 0;
#X connect 8 0 9 0;
#X connect 9 0 7 0;
#X restore 148 253 pd \$0-drums;
#X obj 148 274 throw~ test-0;
#X obj 246 275 throw~ test-1;
#N canvas 448 515 450 300 \$0-scale 0;
#X msg 107 87 intervals 3 2 2 3 2;
#X obj 107 65 loadbang;
#X obj 107 118 cc.scale test_scale;
#X connect 0 0 2 0;
#X connect 1 0 0 0;
#X restore 148 330 pd \$0-scale;
#X obj 356 212 random 2;
#X obj 356 233 sel 1;
#X obj 246 212 random 2;
#X obj 246 233 sel 1;
#X obj 148 365 cc.mixer~ test 3;
#X obj 356 275 throw~ test-2;
#X obj 263 95 loadbang;
#X msg 263 116 150;
#X obj 148 157 metro 150;
#X text 492 149 cc.mixer~ - automatic bus channel generator;
#X text 492 169 This abstraction generates an arbitrary amount of bussing
channels as defined by the user. Each bus can be accessed by via the
throw~ object. The name of each channel is defined by the first argument
followed by their channel number. The second argument sets the total
amount of channels. The total amount of channels cannot be changed
without re-initializing the object.;
#N canvas 448 151 497 615 \$0-instrument0 0;
#X obj 37 37 inlet;
#X obj 37 306 cc.dphasor~;
#X obj 37 354 *~;
#X obj 37 378 outlet~;
#N canvas 428 227 936 599 vv 0;
#X obj 156 161 inlet~;
#X obj 156 250 *~ 0;
#X obj 156 269 phasor~;
#X obj 156 288 *~ 4;
#X obj 156 307 -~ 2;
#X obj 156 326 abs~;
#X obj 156 345 -~ 1;
#X obj 156 364 outlet~;
#X obj 177 208 samplerate~;
#X obj 177 229 / 2;
#X obj 177 187 r \$0-init;
#X text 279 157 based on one of acriel's random modulation algorithms
;
#X connect 0 0 1 0;
#X connect 1 0 2 0;
#X connect 2 0 3 0;
#X connect 3 0 4 0;
#X connect 4 0 5 0;
#X connect 5 0 6 0;
#X connect 6 0 7 0;
#X connect 8 0 9 0;
#X connect 9 0 1 1;
#X connect 10 0 8 0;
#X restore 67 278 pd vv;
#X obj 66 253 noise~;
#X obj 119 337 vline~;
#X obj 37 215 t f b;
#X msg 119 275 1 5 \, 0.25 20 5 \, 0 100 25;
#X obj 37 330 cc.rTri~ 0.5;
#X obj 240 181 sel 0;
#X obj 240 202 tgl 15 0 empty empty empty 17 7 0 10 -262144 -1 -1 0
1;
#X obj 240 222 sel 0 1;
#X msg 320 243 random one;
#X msg 240 243 random all;
#X obj 279 23 loadbang;
#X msg 279 44 floor 36 \, range 48;
#X obj 37 60 cc.scale/sequence test_scale;
#X connect 0 0 17 0;
#X connect 1 0 9 0;
#X connect 2 0 3 0;
#X connect 4 0 1 1;
#X connect 5 0 4 0;
#X connect 6 0 2 1;
#X connect 7 0 1 0;
#X connect 7 1 8 0;
#X connect 8 0 6 0;
#X connect 9 0 2 0;
#X connect 10 0 11 0;
#X connect 11 0 12 0;
#X connect 12 0 14 0;
#X connect 12 1 13 0;
#X connect 13 0 17 0;
#X connect 14 0 17 0;
#X connect 15 0 16 0;
#X connect 16 0 17 0;
#X connect 17 0 7 0;
#X connect 17 1 10 0;
#X restore 246 254 pd \$0-instrument0;
#N canvas 448 151 497 615 \$0-instrument1 0;
#X obj 37 37 inlet;
#X obj 37 306 cc.dphasor~;
#X obj 37 354 *~;
#X obj 37 378 outlet~;
#N canvas 428 227 936 599 vv 0;
#X obj 156 161 inlet~;
#X obj 156 250 *~ 0;
#X obj 156 269 phasor~;
#X obj 156 288 *~ 4;
#X obj 156 307 -~ 2;
#X obj 156 326 abs~;
#X obj 156 345 -~ 1;
#X obj 156 364 outlet~;
#X obj 177 208 samplerate~;
#X obj 177 229 / 2;
#X obj 177 187 r \$0-init;
#X text 279 157 based on one of acriel's random modulation algorithms
;
#X connect 0 0 1 0;
#X connect 1 0 2 0;
#X connect 2 0 3 0;
#X connect 3 0 4 0;
#X connect 4 0 5 0;
#X connect 5 0 6 0;
#X connect 6 0 7 0;
#X connect 8 0 9 0;
#X connect 9 0 1 1;
#X connect 10 0 8 0;
#X restore 67 278 pd vv;
#X obj 66 253 noise~;
#X obj 129 337 vline~;
#X obj 37 215 t f b;
#X msg 129 275 1 5 \, 0.25 20 5 \, 0 100 25;
#X obj 240 181 sel 0;
#X obj 240 202 tgl 15 0 empty empty empty 17 7 0 10 -262144 -1 -1 1
1;
#X obj 240 222 sel 0 1;
#X msg 320 243 random one;
#X msg 240 243 random all;
#X obj 279 23 loadbang;
#X msg 279 44 floor 36 \, range 48;
#X obj 37 330 cc.tsSaw~ 0.5;
#X obj 37 60 cc.scale/sequence test_scale;
#X connect 0 0 17 0;
#X connect 1 0 16 0;
#X connect 2 0 3 0;
#X connect 4 0 1 1;
#X connect 5 0 4 0;
#X connect 6 0 2 1;
#X connect 7 0 1 0;
#X connect 7 1 8 0;
#X connect 8 0 6 0;
#X connect 9 0 10 0;
#X connect 10 0 11 0;
#X connect 11 0 13 0;
#X connect 11 1 12 0;
#X connect 12 0 17 0;
#X connect 13 0 17 0;
#X connect 14 0 15 0;
#X connect 15 0 17 0;
#X connect 16 0 2 0;
#X connect 17 0 7 0;
#X connect 17 1 9 0;
#X restore 356 254 pd \$0-instrument1;
#X text 147 293 channel 0;
#X text 245 293 channel 1;
#X text 354 293 channel 2;
#X text 354 173 50% chance to do something each bang, f 14;
#X text 492 329 In this pretty standard example \, we are using cc.mixer
to mix multiple sound sources together., f 60;
#X text 492 255 The UI allows the user to mute \, solo \, set levels
\, and set panning on a channel by channel basis. The clear button
removes all solos and mutes. The inertia value determines the amount
of time it takes for a value to change after the user has changed it.
The final channel is always master channel., f 60;
#X connect 1 0 0 0;
#X connect 3 0 17 1;
#X connect 4 0 17 0;
#X connect 5 0 6 0;
#X connect 9 0 10 0;
#X connect 10 0 21 0;
#X connect 11 0 12 0;
#X connect 12 0 20 0;
#X connect 13 0 2 0;
#X connect 13 1 2 1;
#X connect 15 0 16 0;
#X connect 16 0 3 0;
#X connect 17 0 5 0;
#X connect 17 0 9 0;
#X connect 17 0 11 0;
#X connect 20 0 7 0;
#X connect 21 0 14 0;
#X coords 0 709 1 708 85 60 0;
